<?xml version="1.0" encoding="utf-8"?>
<svg xmlns="http://www.w3.org/2000/svg" xmlns:xlink="http://www.w3.org/1999/xlink" width="600" height="400" viewBox="0 0 2400 1600">
<defs>
  <clipPath id="clip030">
    <rect x="0" y="0" width="2400" height="1600"/>
  </clipPath>
</defs>
<path clip-path="url(#clip030)" d="
M0 1600 L2400 1600 L2400 0 L0 0  Z
  " fill="#ffffff" fill-rule="evenodd" fill-opacity="1"/>
<defs>
  <clipPath id="clip031">
    <rect x="480" y="0" width="1681" height="1600"/>
  </clipPath>
</defs>
<path clip-path="url(#clip030)" d="
M219.38 1423.18 L2352.76 1423.18 L2352.76 47.2441 L219.38 47.2441  Z
  " fill="#ffffff" fill-rule="evenodd" fill-opacity="1"/>
<defs>
  <clipPath id="clip032">
    <rect x="219" y="47" width="2134" height="1377"/>
  </clipPath>
</defs>
<polyline clip-path="url(#clip032)" style="stroke:#000000; stroke-linecap:butt; stroke-linejoin:round; stroke-width:2; stroke-opacity:0.1; fill:none" points="
  269.594,1423.18 269.594,47.2441 
  "/>
<polyline clip-path="url(#clip032)" style="stroke:#000000; stroke-linecap:butt; stroke-linejoin:round; stroke-width:2; stroke-opacity:0.1; fill:none" points="
  777.831,1423.18 777.831,47.2441 
  "/>
<polyline clip-path="url(#clip032)" style="stroke:#000000; stroke-linecap:butt; stroke-linejoin:round; stroke-width:2; stroke-opacity:0.1; fill:none" points="
  1286.07,1423.18 1286.07,47.2441 
  "/>
<polyline clip-path="url(#clip032)" style="stroke:#000000; stroke-linecap:butt; stroke-linejoin:round; stroke-width:2; stroke-opacity:0.1; fill:none" points="
  1794.31,1423.18 1794.31,47.2441 
  "/>
<polyline clip-path="url(#clip032)" style="stroke:#000000; stroke-linecap:butt; stroke-linejoin:round; stroke-width:2; stroke-opacity:0.1; fill:none" points="
  2302.54,1423.18 2302.54,47.2441 
  "/>
<polyline clip-path="url(#clip030)" style="stroke:#000000; stroke-linecap:butt; stroke-linejoin:round; stroke-width:4; stroke-opacity:1; fill:none" points="
  219.38,1423.18 2352.76,1423.18 
  "/>
<polyline clip-path="url(#clip030)" style="stroke:#000000; stroke-linecap:butt; stroke-linejoin:round; stroke-width:4; stroke-opacity:1; fill:none" points="
  269.594,1423.18 269.594,1406.67 
  "/>
<polyline clip-path="url(#clip030)" style="stroke:#000000; stroke-linecap:butt; stroke-linejoin:round; stroke-width:4; stroke-opacity:1; fill:none" points="
  777.831,1423.18 777.831,1406.67 
  "/>
<polyline clip-path="url(#clip030)" style="stroke:#000000; stroke-linecap:butt; stroke-linejoin:round; stroke-width:4; stroke-opacity:1; fill:none" points="
  1286.07,1423.18 1286.07,1406.67 
  "/>
<polyline clip-path="url(#clip030)" style="stroke:#000000; stroke-linecap:butt; stroke-linejoin:round; stroke-width:4; stroke-opacity:1; fill:none" points="
  1794.31,1423.18 1794.31,1406.67 
  "/>
<polyline clip-path="url(#clip030)" style="stroke:#000000; stroke-linecap:butt; stroke-linejoin:round; stroke-width:4; stroke-opacity:1; fill:none" points="
  2302.54,1423.18 2302.54,1406.67 
  "/>
<path clip-path="url(#clip030)" d="M269.594 1452.37 Q265.983 1452.37 264.154 1455.94 Q262.349 1459.48 262.349 1466.61 Q262.349 1473.71 264.154 1477.28 Q265.983 1480.82 269.594 1480.82 Q273.228 1480.82 275.034 1477.28 Q276.862 1473.71 276.862 1466.61 Q276.862 1459.48 275.034 1455.94 Q273.228 1452.37 269.594 1452.37 M269.594 1448.67 Q275.404 1448.67 278.46 1453.27 Q281.538 1457.86 281.538 1466.61 Q281.538 1475.33 278.46 1479.94 Q275.404 1484.52 269.594 1484.52 Q263.784 1484.52 260.705 1479.94 Q257.65 1475.33 257.65 1466.61 Q257.65 1457.86 260.705 1453.27 Q263.784 1448.67 269.594 1448.67 Z" fill="#000000" fill-rule="evenodd" fill-opacity="1" /><path clip-path="url(#clip030)" d="M768.213 1479.92 L775.852 1479.92 L775.852 1453.55 L767.542 1455.22 L767.542 1450.96 L775.806 1449.29 L780.481 1449.29 L780.481 1479.92 L788.12 1479.92 L788.12 1483.85 L768.213 1483.85 L768.213 1479.92 Z" fill="#000000" fill-rule="evenodd" fill-opacity="1" /><path clip-path="url(#clip030)" d="M1280.72 1479.92 L1297.04 1479.92 L1297.04 1483.85 L1275.1 1483.85 L1275.1 1479.92 Q1277.76 1477.16 1282.34 1472.53 Q1286.95 1467.88 1288.13 1466.54 Q1290.37 1464.01 1291.25 1462.28 Q1292.16 1460.52 1292.16 1458.83 Q1292.16 1456.07 1290.21 1454.34 Q1288.29 1452.6 1285.19 1452.6 Q1282.99 1452.6 1280.54 1453.37 Q1278.11 1454.13 1275.33 1455.68 L1275.33 1450.96 Q1278.15 1449.82 1280.61 1449.25 Q1283.06 1448.67 1285.1 1448.67 Q1290.47 1448.67 1293.66 1451.35 Q1296.86 1454.04 1296.86 1458.53 Q1296.86 1460.66 1296.04 1462.58 Q1295.26 1464.48 1293.15 1467.07 Q1292.57 1467.74 1289.47 1470.96 Q1286.37 1474.15 1280.72 1479.92 Z" fill="#000000" fill-rule="evenodd" fill-opacity="1" /><path clip-path="url(#clip030)" d="M1798.55 1465.22 Q1801.91 1465.94 1803.78 1468.2 Q1805.68 1470.47 1805.68 1473.81 Q1805.68 1478.92 1802.16 1481.72 Q1798.65 1484.52 1792.16 1484.52 Q1789.99 1484.52 1787.67 1484.08 Q1785.38 1483.67 1782.93 1482.81 L1782.93 1478.3 Q1784.87 1479.43 1787.19 1480.01 Q1789.5 1480.59 1792.02 1480.59 Q1796.42 1480.59 1798.71 1478.85 Q1801.03 1477.12 1801.03 1473.81 Q1801.03 1470.75 1798.88 1469.04 Q1796.75 1467.3 1792.93 1467.3 L1788.9 1467.3 L1788.9 1463.46 L1793.11 1463.46 Q1796.56 1463.46 1798.39 1462.09 Q1800.22 1460.7 1800.22 1458.11 Q1800.22 1455.45 1798.32 1454.04 Q1796.45 1452.6 1792.93 1452.6 Q1791.01 1452.6 1788.81 1453.02 Q1786.61 1453.44 1783.97 1454.31 L1783.97 1450.15 Q1786.63 1449.41 1788.95 1449.04 Q1791.28 1448.67 1793.34 1448.67 Q1798.67 1448.67 1801.77 1451.1 Q1804.87 1453.5 1804.87 1457.63 Q1804.87 1460.5 1803.23 1462.49 Q1801.59 1464.45 1798.55 1465.22 Z" fill="#000000" fill-rule="evenodd" fill-opacity="1" /><path clip-path="url(#clip030)" d="M2305.55 1453.37 L2293.75 1471.81 L2305.55 1471.81 L2305.55 1453.37 M2304.32 1449.29 L2310.2 1449.29 L2310.2 1471.81 L2315.13 1471.81 L2315.13 1475.7 L2310.2 1475.7 L2310.2 1483.85 L2305.55 1483.85 L2305.55 1475.7 L2289.95 1475.7 L2289.95 1471.19 L2304.32 1449.29 Z" fill="#000000" fill-rule="evenodd" fill-opacity="1" /><path clip-path="url(#clip030)" d="M1066.9 1532.4 L1073.1 1532.4 L1084.24 1562.31 L1095.38 1532.4 L1101.59 1532.4 L1088.22 1568.04 L1080.26 1568.04 L1066.9 1532.4 Z" fill="#000000" fill-rule="evenodd" fill-opacity="1" /><path clip-path="url(#clip030)" d="M1140.17 1548.76 L1140.17 1551.62 L1113.24 1551.62 Q1113.62 1557.67 1116.87 1560.85 Q1120.15 1564 1125.97 1564 Q1129.34 1564 1132.5 1563.17 Q1135.68 1562.35 1138.8 1560.69 L1138.8 1566.23 Q1135.65 1567.57 1132.34 1568.27 Q1129.03 1568.97 1125.62 1568.97 Q1117.09 1568.97 1112.09 1564 Q1107.13 1559.04 1107.13 1550.57 Q1107.13 1541.82 1111.84 1536.69 Q1116.58 1531.54 1124.6 1531.54 Q1131.8 1531.54 1135.96 1536.18 Q1140.17 1540.8 1140.17 1548.76 M1134.31 1547.04 Q1134.25 1542.23 1131.6 1539.37 Q1128.99 1536.5 1124.67 1536.5 Q1119.76 1536.5 1116.8 1539.27 Q1113.88 1542.04 1113.43 1547.07 L1134.31 1547.04 Z" fill="#000000" fill-rule="evenodd" fill-opacity="1" /><path clip-path="url(#clip030)" d="M1149.78 1518.52 L1155.63 1518.52 L1155.63 1568.04 L1149.78 1568.04 L1149.78 1518.52 Z" fill="#000000" fill-rule="evenodd" fill-opacity="1" /><path clip-path="url(#clip030)" d="M1181.7 1536.5 Q1176.99 1536.5 1174.25 1540.19 Q1171.52 1543.85 1171.52 1550.25 Q1171.52 1556.65 1174.22 1560.34 Q1176.96 1564 1181.7 1564 Q1186.38 1564 1189.12 1560.31 Q1191.86 1556.62 1191.86 1550.25 Q1191.86 1543.92 1189.12 1540.23 Q1186.38 1536.5 1181.7 1536.5 M1181.7 1531.54 Q1189.34 1531.54 1193.7 1536.5 Q1198.06 1541.47 1198.06 1550.25 Q1198.06 1559 1193.7 1564 Q1189.34 1568.97 1181.7 1568.97 Q1174.03 1568.97 1169.67 1564 Q1165.34 1559 1165.34 1550.25 Q1165.34 1541.47 1169.67 1536.5 Q1174.03 1531.54 1181.7 1531.54 Z" fill="#000000" fill-rule="evenodd" fill-opacity="1" /><path clip-path="url(#clip030)" d="M1233.42 1533.76 L1233.42 1539.24 Q1230.94 1537.87 1228.43 1537.2 Q1225.94 1536.5 1223.4 1536.5 Q1217.7 1536.5 1214.55 1540.13 Q1211.4 1543.73 1211.4 1550.25 Q1211.4 1556.78 1214.55 1560.4 Q1217.7 1564 1223.4 1564 Q1225.94 1564 1228.43 1563.33 Q1230.94 1562.63 1233.42 1561.26 L1233.42 1566.68 Q1230.97 1567.82 1228.33 1568.39 Q1225.72 1568.97 1222.76 1568.97 Q1214.71 1568.97 1209.97 1563.91 Q1205.22 1558.85 1205.22 1550.25 Q1205.22 1541.53 1210 1536.53 Q1214.8 1531.54 1223.14 1531.54 Q1225.85 1531.54 1228.43 1532.11 Q1231 1532.65 1233.42 1533.76 Z" fill="#000000" fill-rule="evenodd" fill-opacity="1" /><path clip-path="url(#clip030)" d="M1243.61 1532.4 L1249.47 1532.4 L1249.47 1568.04 L1243.61 1568.04 L1243.61 1532.4 M1243.61 1518.52 L1249.47 1518.52 L1249.47 1525.93 L1243.61 1525.93 L1243.61 1518.52 Z" fill="#000000" fill-rule="evenodd" fill-opacity="1" /><path clip-path="url(#clip030)" d="M1267.51 1522.27 L1267.51 1532.4 L1279.58 1532.4 L1279.58 1536.95 L1267.51 1536.95 L1267.51 1556.3 Q1267.51 1560.66 1268.69 1561.9 Q1269.9 1563.14 1273.56 1563.14 L1279.58 1563.14 L1279.58 1568.04 L1273.56 1568.04 Q1266.78 1568.04 1264.2 1565.53 Q1261.62 1562.98 1261.62 1556.3 L1261.62 1536.95 L1257.33 1536.95 L1257.33 1532.4 L1261.62 1532.4 L1261.62 1522.27 L1267.51 1522.27 Z" fill="#000000" fill-rule="evenodd" fill-opacity="1" /><path clip-path="url(#clip030)" d="M1302.11 1571.35 Q1299.63 1577.72 1297.27 1579.66 Q1294.92 1581.6 1290.97 1581.6 L1286.29 1581.6 L1286.29 1576.7 L1289.73 1576.7 Q1292.15 1576.7 1293.48 1575.56 Q1294.82 1574.41 1296.44 1570.14 L1297.49 1567.47 L1283.08 1532.4 L1289.28 1532.4 L1300.42 1560.28 L1311.56 1532.4 L1317.77 1532.4 L1302.11 1571.35 Z" fill="#000000" fill-rule="evenodd" fill-opacity="1" /><path clip-path="url(#clip030)" d="M1376.21 1546.53 L1376.21 1568.04 L1370.35 1568.04 L1370.35 1546.72 Q1370.35 1541.66 1368.38 1539.14 Q1366.4 1536.63 1362.46 1536.63 Q1357.71 1536.63 1354.98 1539.65 Q1352.24 1542.68 1352.24 1547.9 L1352.24 1568.04 L1346.35 1568.04 L1346.35 1532.4 L1352.24 1532.4 L1352.24 1537.93 Q1354.34 1534.72 1357.17 1533.13 Q1360.04 1531.54 1363.76 1531.54 Q1369.9 1531.54 1373.06 1535.36 Q1376.21 1539.14 1376.21 1546.53 Z" fill="#000000" fill-rule="evenodd" fill-opacity="1" /><path clip-path="url(#clip030)" d="M1401.7 1536.5 Q1396.99 1536.5 1394.25 1540.19 Q1391.52 1543.85 1391.52 1550.25 Q1391.52 1556.65 1394.22 1560.34 Q1396.96 1564 1401.7 1564 Q1406.38 1564 1409.12 1560.31 Q1411.85 1556.62 1411.85 1550.25 Q1411.85 1543.92 1409.12 1540.23 Q1406.38 1536.5 1401.7 1536.5 M1401.7 1531.54 Q1409.34 1531.54 1413.7 1536.5 Q1418.06 1541.47 1418.06 1550.25 Q1418.06 1559 1413.7 1564 Q1409.34 1568.97 1401.7 1568.97 Q1394.03 1568.97 1389.67 1564 Q1385.34 1559 1385.34 1550.25 Q1385.34 1541.47 1389.67 1536.5 Q1394.03 1531.54 1401.7 1531.54 Z" fill="#000000" fill-rule="evenodd" fill-opacity="1" /><path clip-path="url(#clip030)" d="M1448.43 1537.87 Q1447.44 1537.3 1446.26 1537.04 Q1445.12 1536.76 1443.71 1536.76 Q1438.75 1536.76 1436.08 1540 Q1433.43 1543.22 1433.43 1549.27 L1433.43 1568.04 L1427.55 1568.04 L1427.55 1532.4 L1433.43 1532.4 L1433.43 1537.93 Q1435.28 1534.69 1438.24 1533.13 Q1441.2 1531.54 1445.43 1531.54 Q1446.04 1531.54 1446.77 1531.63 Q1447.5 1531.7 1448.39 1531.85 L1448.43 1537.87 Z" fill="#000000" fill-rule="evenodd" fill-opacity="1" /><path clip-path="url(#clip030)" d="M1481.18 1539.24 Q1483.37 1535.29 1486.43 1533.41 Q1489.48 1531.54 1493.62 1531.54 Q1499.19 1531.54 1502.22 1535.45 Q1505.24 1539.33 1505.24 1546.53 L1505.24 1568.04 L1499.35 1568.04 L1499.35 1546.72 Q1499.35 1541.59 1497.54 1539.11 Q1495.72 1536.63 1492 1536.63 Q1487.45 1536.63 1484.81 1539.65 Q1482.16 1542.68 1482.16 1547.9 L1482.16 1568.04 L1476.28 1568.04 L1476.28 1546.72 Q1476.28 1541.56 1474.46 1539.11 Q1472.65 1536.63 1468.86 1536.63 Q1464.37 1536.63 1461.73 1539.68 Q1459.09 1542.71 1459.09 1547.9 L1459.09 1568.04 L1453.2 1568.04 L1453.2 1532.4 L1459.09 1532.4 L1459.09 1537.93 Q1461.09 1534.66 1463.89 1533.1 Q1466.69 1531.54 1470.55 1531.54 Q1474.43 1531.54 1477.13 1533.51 Q1479.87 1535.48 1481.18 1539.24 Z" fill="#000000" fill-rule="evenodd" fill-opacity="1" /><polyline clip-path="url(#clip032)" style="stroke:#000000; stroke-linecap:butt; stroke-linejoin:round; stroke-width:2; stroke-opacity:0.1; fill:none" points="
  219.38,1384.24 2352.76,1384.24 
  "/>
<polyline clip-path="url(#clip032)" style="stroke:#000000; stroke-linecap:butt; stroke-linejoin:round; stroke-width:2; stroke-opacity:0.1; fill:none" points="
  219.38,972.941 2352.76,972.941 
  "/>
<polyline clip-path="url(#clip032)" style="stroke:#000000; stroke-linecap:butt; stroke-linejoin:round; stroke-width:2; stroke-opacity:0.1; fill:none" points="
  219.38,561.645 2352.76,561.645 
  "/>
<polyline clip-path="url(#clip032)" style="stroke:#000000; stroke-linecap:butt; stroke-linejoin:round; stroke-width:2; stroke-opacity:0.1; fill:none" points="
  219.38,150.348 2352.76,150.348 
  "/>
<polyline clip-path="url(#clip030)" style="stroke:#000000; stroke-linecap:butt; stroke-linejoin:round; stroke-width:4; stroke-opacity:1; fill:none" points="
  219.38,1423.18 219.38,47.2441 
  "/>
<polyline clip-path="url(#clip030)" style="stroke:#000000; stroke-linecap:butt; stroke-linejoin:round; stroke-width:4; stroke-opacity:1; fill:none" points="
  219.38,1384.24 244.981,1384.24 
  "/>
<polyline clip-path="url(#clip030)" style="stroke:#000000; stroke-linecap:butt; stroke-linejoin:round; stroke-width:4; stroke-opacity:1; fill:none" points="
  219.38,972.941 244.981,972.941 
  "/>
<polyline clip-path="url(#clip030)" style="stroke:#000000; stroke-linecap:butt; stroke-linejoin:round; stroke-width:4; stroke-opacity:1; fill:none" points="
  219.38,561.645 244.981,561.645 
  "/>
<polyline clip-path="url(#clip030)" style="stroke:#000000; stroke-linecap:butt; stroke-linejoin:round; stroke-width:4; stroke-opacity:1; fill:none" points="
  219.38,150.348 244.981,150.348 
  "/>
<path clip-path="url(#clip030)" d="M126.205 1370.04 Q122.593 1370.04 120.765 1373.6 Q118.959 1377.14 118.959 1384.27 Q118.959 1391.38 120.765 1394.94 Q122.593 1398.49 126.205 1398.49 Q129.839 1398.49 131.644 1394.94 Q133.473 1391.38 133.473 1384.27 Q133.473 1377.14 131.644 1373.6 Q129.839 1370.04 126.205 1370.04 M126.205 1366.33 Q132.015 1366.33 135.07 1370.94 Q138.149 1375.52 138.149 1384.27 Q138.149 1393 135.07 1397.61 Q132.015 1402.19 126.205 1402.19 Q120.394 1402.19 117.316 1397.61 Q114.26 1393 114.26 1384.27 Q114.26 1375.52 117.316 1370.94 Q120.394 1366.33 126.205 1366.33 Z" fill="#000000" fill-rule="evenodd" fill-opacity="1" /><path clip-path="url(#clip030)" d="M146.366 1395.64 L151.251 1395.64 L151.251 1401.52 L146.366 1401.52 L146.366 1395.64 Z" fill="#000000" fill-rule="evenodd" fill-opacity="1" /><path clip-path="url(#clip030)" d="M171.436 1370.04 Q167.825 1370.04 165.996 1373.6 Q164.19 1377.14 164.19 1384.27 Q164.19 1391.38 165.996 1394.94 Q167.825 1398.49 171.436 1398.49 Q175.07 1398.49 176.876 1394.94 Q178.704 1391.38 178.704 1384.27 Q178.704 1377.14 176.876 1373.6 Q175.07 1370.04 171.436 1370.04 M171.436 1366.33 Q177.246 1366.33 180.301 1370.94 Q183.38 1375.52 183.38 1384.27 Q183.38 1393 180.301 1397.61 Q177.246 1402.19 171.436 1402.19 Q165.626 1402.19 162.547 1397.61 Q159.491 1393 159.491 1384.27 Q159.491 1375.52 162.547 1370.94 Q165.626 1366.33 171.436 1366.33 Z" fill="#000000" fill-rule="evenodd" fill-opacity="1" /><path clip-path="url(#clip030)" d="M127.2 958.74 Q123.589 958.74 121.76 962.305 Q119.955 965.847 119.955 972.976 Q119.955 980.083 121.76 983.647 Q123.589 987.189 127.2 987.189 Q130.834 987.189 132.64 983.647 Q134.468 980.083 134.468 972.976 Q134.468 965.847 132.64 962.305 Q130.834 958.74 127.2 958.74 M127.2 955.037 Q133.01 955.037 136.066 959.643 Q139.144 964.226 139.144 972.976 Q139.144 981.703 136.066 986.309 Q133.01 990.893 127.2 990.893 Q121.39 990.893 118.311 986.309 Q115.256 981.703 115.256 972.976 Q115.256 964.226 118.311 959.643 Q121.39 955.037 127.2 955.037 Z" fill="#000000" fill-rule="evenodd" fill-opacity="1" /><path clip-path="url(#clip030)" d="M147.362 984.342 L152.246 984.342 L152.246 990.221 L147.362 990.221 L147.362 984.342 Z" fill="#000000" fill-rule="evenodd" fill-opacity="1" /><path clip-path="url(#clip030)" d="M162.477 955.661 L180.834 955.661 L180.834 959.597 L166.76 959.597 L166.76 968.069 Q167.778 967.722 168.797 967.56 Q169.815 967.374 170.834 967.374 Q176.621 967.374 180.001 970.546 Q183.38 973.717 183.38 979.134 Q183.38 984.712 179.908 987.814 Q176.436 990.893 170.116 990.893 Q167.94 990.893 165.672 990.522 Q163.427 990.152 161.019 989.411 L161.019 984.712 Q163.102 985.847 165.325 986.402 Q167.547 986.958 170.024 986.958 Q174.028 986.958 176.366 984.851 Q178.704 982.745 178.704 979.134 Q178.704 975.523 176.366 973.416 Q174.028 971.31 170.024 971.31 Q168.149 971.31 166.274 971.726 Q164.422 972.143 162.477 973.023 L162.477 955.661 Z" fill="#000000" fill-rule="evenodd" fill-opacity="1" /><path clip-path="url(#clip030)" d="M117.015 574.99 L124.654 574.99 L124.654 548.624 L116.343 550.291 L116.343 546.031 L124.607 544.365 L129.283 544.365 L129.283 574.99 L136.922 574.99 L136.922 578.925 L117.015 578.925 L117.015 574.99 Z" fill="#000000" fill-rule="evenodd" fill-opacity="1" /><path clip-path="url(#clip030)" d="M146.366 573.045 L151.251 573.045 L151.251 578.925 L146.366 578.925 L146.366 573.045 Z" fill="#000000" fill-rule="evenodd" fill-opacity="1" /><path clip-path="url(#clip030)" d="M171.436 547.443 Q167.825 547.443 165.996 551.008 Q164.19 554.55 164.19 561.679 Q164.19 568.786 165.996 572.351 Q167.825 575.892 171.436 575.892 Q175.07 575.892 176.876 572.351 Q178.704 568.786 178.704 561.679 Q178.704 554.55 176.876 551.008 Q175.07 547.443 171.436 547.443 M171.436 543.74 Q177.246 543.74 180.301 548.346 Q183.38 552.93 183.38 561.679 Q183.38 570.406 180.301 575.013 Q177.246 579.596 171.436 579.596 Q165.626 579.596 162.547 575.013 Q159.491 570.406 159.491 561.679 Q159.491 552.93 162.547 548.346 Q165.626 543.74 171.436 543.74 Z" fill="#000000" fill-rule="evenodd" fill-opacity="1" /><path clip-path="url(#clip030)" d="M118.01 163.693 L125.649 163.693 L125.649 137.327 L117.339 138.994 L117.339 134.735 L125.603 133.068 L130.279 133.068 L130.279 163.693 L137.917 163.693 L137.917 167.628 L118.01 167.628 L118.01 163.693 Z" fill="#000000" fill-rule="evenodd" fill-opacity="1" /><path clip-path="url(#clip030)" d="M147.362 161.748 L152.246 161.748 L152.246 167.628 L147.362 167.628 L147.362 161.748 Z" fill="#000000" fill-rule="evenodd" fill-opacity="1" /><path clip-path="url(#clip030)" d="M162.477 133.068 L180.834 133.068 L180.834 137.003 L166.76 137.003 L166.76 145.475 Q167.778 145.128 168.797 144.966 Q169.815 144.781 170.834 144.781 Q176.621 144.781 180.001 147.952 Q183.38 151.123 183.38 156.54 Q183.38 162.119 179.908 165.221 Q176.436 168.299 170.116 168.299 Q167.94 168.299 165.672 167.929 Q163.427 167.559 161.019 166.818 L161.019 162.119 Q163.102 163.253 165.325 163.809 Q167.547 164.364 170.024 164.364 Q174.028 164.364 176.366 162.258 Q178.704 160.151 178.704 156.54 Q178.704 152.929 176.366 150.823 Q174.028 148.716 170.024 148.716 Q168.149 148.716 166.274 149.133 Q164.422 149.549 162.477 150.429 L162.477 133.068 Z" fill="#000000" fill-rule="evenodd" fill-opacity="1" /><path clip-path="url(#clip030)" d="M14.479 874.271 L19.3487 874.271 L19.3487 879.873 Q19.3487 883.024 20.6219 884.265 Q21.895 885.474 25.2052 885.474 L28.3562 885.474 L28.3562 875.83 L32.9077 875.83 L32.9077 885.474 L64.0042 885.474 L64.0042 891.363 L32.9077 891.363 L32.9077 896.965 L28.3562 896.965 L28.3562 891.363 L25.8736 891.363 Q19.9216 891.363 17.2162 888.594 Q14.479 885.825 14.479 879.809 L14.479 874.271 Z" fill="#000000" fill-rule="evenodd" fill-opacity="1" /><path clip-path="url(#clip030)" d="M33.8307 848.713 Q33.2578 849.699 33.0032 850.877 Q32.7167 852.023 32.7167 853.423 Q32.7167 858.388 35.9632 861.062 Q39.1779 863.704 45.2253 863.704 L64.0042 863.704 L64.0042 869.592 L28.3562 869.592 L28.3562 863.704 L33.8944 863.704 Q30.6479 861.858 29.0883 858.898 Q27.4968 855.938 27.4968 851.704 Q27.4968 851.1 27.5923 850.368 Q27.656 849.636 27.8151 848.744 L33.8307 848.713 Z" fill="#000000" fill-rule="evenodd" fill-opacity="1" /><path clip-path="url(#clip030)" d="M44.7161 813.51 L47.5806 813.51 L47.5806 840.437 Q53.6281 840.055 56.8109 836.809 Q59.9619 833.53 59.9619 827.706 Q59.9619 824.332 59.1344 821.181 Q58.3069 817.998 56.6518 814.879 L62.1899 814.879 Q63.5267 818.03 64.227 821.34 Q64.9272 824.65 64.9272 828.056 Q64.9272 836.586 59.9619 841.583 Q54.9967 846.548 46.5303 846.548 Q37.7774 846.548 32.6531 841.838 Q27.4968 837.095 27.4968 829.074 Q27.4968 821.881 32.1438 817.712 Q36.7589 813.51 44.7161 813.51 M42.9973 819.367 Q38.1912 819.43 35.3266 822.072 Q32.4621 824.682 32.4621 829.011 Q32.4621 833.912 35.2312 836.872 Q38.0002 839.801 43.0292 840.246 L42.9973 819.367 Z" fill="#000000" fill-rule="evenodd" fill-opacity="1" /><path clip-path="url(#clip030)" d="M46.212 800.397 Q52.6732 800.397 56.3653 797.755 Q60.0256 795.081 60.0256 790.434 Q60.0256 785.788 56.3653 783.114 Q52.6732 780.44 46.212 780.44 Q39.7508 780.44 36.0905 783.114 Q32.3984 785.788 32.3984 790.434 Q32.3984 795.081 36.0905 797.755 Q39.7508 800.397 46.212 800.397 M58.657 780.44 Q61.8398 782.286 63.3994 785.119 Q64.9272 787.92 64.9272 791.867 Q64.9272 798.328 59.771 802.402 Q54.6147 806.444 46.212 806.444 Q37.8093 806.444 32.6531 802.402 Q27.4968 798.328 27.4968 791.867 Q27.4968 787.92 29.0564 785.119 Q30.5842 782.286 33.7671 780.44 L28.3562 780.44 L28.3562 774.584 L77.5631 774.584 L77.5631 780.44 L58.657 780.44 Z" fill="#000000" fill-rule="evenodd" fill-opacity="1" /><path clip-path="url(#clip030)" d="M49.9359 763.126 L28.3562 763.126 L28.3562 757.269 L49.7131 757.269 Q54.7739 757.269 57.3202 755.296 Q59.8346 753.322 59.8346 749.376 Q59.8346 744.633 56.8109 741.896 Q53.7872 739.127 48.5673 739.127 L28.3562 739.127 L28.3562 733.27 L64.0042 733.27 L64.0042 739.127 L58.5296 739.127 Q61.7762 741.259 63.3676 744.092 Q64.9272 746.893 64.9272 750.617 Q64.9272 756.76 61.1078 759.943 Q57.2883 763.126 49.9359 763.126 M27.4968 748.389 L27.4968 748.389 Z" fill="#000000" fill-rule="evenodd" fill-opacity="1" /><path clip-path="url(#clip030)" d="M44.7161 690.716 L47.5806 690.716 L47.5806 717.643 Q53.6281 717.261 56.8109 714.014 Q59.9619 710.736 59.9619 704.911 Q59.9619 701.537 59.1344 698.386 Q58.3069 695.204 56.6518 692.084 L62.1899 692.084 Q63.5267 695.235 64.227 698.545 Q64.9272 701.856 64.9272 705.261 Q64.9272 713.791 59.9619 718.788 Q54.9967 723.754 46.5303 723.754 Q37.7774 723.754 32.6531 719.043 Q27.4968 714.301 27.4968 706.28 Q27.4968 699.087 32.1438 694.917 Q36.7589 690.716 44.7161 690.716 M42.9973 696.572 Q38.1912 696.636 35.3266 699.278 Q32.4621 701.887 32.4621 706.216 Q32.4621 711.118 35.2312 714.078 Q38.0002 717.006 43.0292 717.452 L42.9973 696.572 Z" fill="#000000" fill-rule="evenodd" fill-opacity="1" /><path clip-path="url(#clip030)" d="M42.4881 651.471 L64.0042 651.471 L64.0042 657.328 L42.679 657.328 Q37.6183 657.328 35.1038 659.301 Q32.5894 661.274 32.5894 665.221 Q32.5894 669.963 35.6131 672.701 Q38.6368 675.438 43.8567 675.438 L64.0042 675.438 L64.0042 681.326 L28.3562 681.326 L28.3562 675.438 L33.8944 675.438 Q30.6797 673.337 29.0883 670.505 Q27.4968 667.64 27.4968 663.916 Q27.4968 657.773 31.3163 654.622 Q35.1038 651.471 42.4881 651.471 Z" fill="#000000" fill-rule="evenodd" fill-opacity="1" /><path clip-path="url(#clip030)" d="M29.7248 614.136 L35.1993 614.136 Q33.8307 616.619 33.1623 619.133 Q32.4621 621.616 32.4621 624.162 Q32.4621 629.86 36.0905 633.011 Q39.6872 636.162 46.212 636.162 Q52.7369 636.162 56.3653 633.011 Q59.9619 629.86 59.9619 624.162 Q59.9619 621.616 59.2935 619.133 Q58.5933 616.619 57.2247 614.136 L62.6355 614.136 Q63.7814 616.587 64.3543 619.229 Q64.9272 621.839 64.9272 624.799 Q64.9272 632.851 59.8664 637.594 Q54.8057 642.336 46.212 642.336 Q37.491 642.336 32.4939 637.562 Q27.4968 632.756 27.4968 624.417 Q27.4968 621.711 28.0697 619.133 Q28.6108 616.555 29.7248 614.136 Z" fill="#000000" fill-rule="evenodd" fill-opacity="1" /><path clip-path="url(#clip030)" d="M67.3143 589.119 Q73.68 591.602 75.6216 593.957 Q77.5631 596.312 77.5631 600.259 L77.5631 604.938 L72.6615 604.938 L72.6615 601.5 Q72.6615 599.081 71.5157 597.745 Q70.3699 596.408 66.1048 594.784 L63.4312 593.734 L28.3562 608.152 L28.3562 601.946 L56.238 590.806 L28.3562 579.666 L28.3562 573.459 L67.3143 589.119 Z" fill="#000000" fill-rule="evenodd" fill-opacity="1" /><polyline clip-path="url(#clip032)" style="stroke:#009af9; stroke-linecap:butt; stroke-linejoin:round; stroke-width:8; stroke-opacity:1; fill:none" points="
  279.759,1333.24 300.088,1221.78 320.418,1107.02 340.747,1011.6 361.077,898.497 381.406,798.552 401.736,713.413 422.065,615.936 442.395,543.959 462.724,423.449 
  483.054,350.649 503.383,291.423 523.712,278.673 544.042,217.801 564.371,164.332 584.701,179.55 605.03,154.05 625.36,126.081 645.689,97.2907 666.019,123.202 
  686.348,86.1857 706.678,102.638 727.007,126.493 747.337,163.509 767.666,162.276 787.996,237.132 808.325,255.64 828.655,270.858 848.984,346.537 869.314,385.61 
  889.643,434.143 909.973,474.861 930.302,499.95 950.632,538.612 970.961,614.702 991.291,643.081 1011.62,734.801 1031.95,742.615 1052.28,791.148 1072.61,864.77 
  1092.94,896.44 1113.27,921.118 1133.6,957.724 1153.93,1000.91 1174.26,1063.84 1194.59,1061.37 1214.91,1094.69 1235.24,1122.65 1255.57,1137.46 1275.9,1169.54 
  1296.23,1211.9 1316.56,1217.66 1336.89,1243.99 1357.22,1250.98 1377.55,1278.12 1397.88,1290.46 1418.21,1286.76 1438.54,1308.56 1458.87,1309.38 1479.2,1319.66 
  1499.53,1329.54 1519.86,1335.71 1540.19,1346.4 1560.52,1350.1 1580.85,1359.15 1601.17,1364.08 1621.5,1367.38 1641.83,1366.14 1662.16,1367.38 1682.49,1369.84 
  1702.82,1374.78 1723.15,1376.83 1743.48,1376.83 1763.81,1378.89 1784.14,1381.36 1804.47,1379.71 1824.8,1380.54 1845.13,1380.95 1865.46,1383.83 1885.79,1381.77 
  1906.12,1383.42 1926.45,1383 1946.78,1383.83 1967.11,1382.18 1987.44,1383 2007.76,1383 2028.09,1384.24 2048.42,1383.42 2068.75,1384.24 2089.08,1382.59 
  2109.41,1383.83 2129.74,1383.83 2150.07,1384.24 2170.4,1383.83 2190.73,1384.24 2211.06,1384.24 2231.39,1384.24 2251.72,1383.83 2272.05,1384.24 2292.38,1384.24 
  
  "/>
<polyline clip-path="url(#clip032)" style="stroke:#e26f46; stroke-linecap:butt; stroke-linejoin:round; stroke-width:8; stroke-opacity:1; fill:none" points="
  279.759,668.582 300.088,676.397 320.418,655.009 340.747,675.163 361.077,692.848 381.406,690.792 401.736,679.276 422.065,694.082 442.395,656.654 462.724,692.026 
  483.054,683.8 503.383,671.05 523.712,669.404 544.042,667.759 564.371,678.042 584.701,659.122 605.03,663.646 625.36,668.171 645.689,660.356 666.019,675.574 
  686.348,679.276 706.678,682.566 727.007,654.187 747.337,690.381 767.666,703.131 787.996,679.687 808.325,660.767 828.655,663.235 848.984,681.332 869.314,705.187 
  889.643,677.219 909.973,679.276 930.302,657.066 950.632,641.848 970.961,689.147 991.291,672.284 1011.62,696.55 1031.95,692.848 1052.28,668.171 1072.61,694.905 
  1092.94,695.316 1113.27,665.292 1133.6,671.872 1153.93,650.896 1174.26,683.389 1194.59,687.913 1214.91,682.155 1235.24,693.26 1255.57,678.042 1275.9,685.445 
  1296.23,668.171 1316.56,673.106 1336.89,690.792 1357.22,657.477 1377.55,694.494 1397.88,715.881 1418.21,687.502 1438.54,650.074 1458.87,1262.49 1479.2,1384.24 
  1499.53,1384.24 1519.86,1384.24 1540.19,1384.24 1560.52,1384.24 1580.85,1384.24 1601.17,1384.24 1621.5,1384.24 1641.83,1384.24 1662.16,1384.24 1682.49,1384.24 
  1702.82,1384.24 1723.15,1384.24 1743.48,1384.24 1763.81,1384.24 1784.14,1384.24 1804.47,1384.24 1824.8,1384.24 1845.13,1384.24 1865.46,1384.24 1885.79,1384.24 
  1906.12,1384.24 1926.45,1384.24 1946.78,1384.24 1967.11,1384.24 1987.44,1384.24 2007.76,1384.24 2028.09,1384.24 2048.42,1384.24 2068.75,1384.24 2089.08,1384.24 
  2109.41,1384.24 2129.74,1384.24 2150.07,1384.24 2170.4,1384.24 2190.73,1384.24 2211.06,1384.24 2231.39,1384.24 2251.72,1384.24 2272.05,1384.24 2292.38,1384.24 
  
  "/>
<path clip-path="url(#clip030)" d="
M1882.17 274.549 L2281.64 274.549 L2281.64 93.1086 L1882.17 93.1086  Z
  " fill="#ffffff" fill-rule="evenodd" fill-opacity="1"/>
<polyline clip-path="url(#clip030)" style="stroke:#000000; stroke-linecap:butt; stroke-linejoin:round; stroke-width:4; stroke-opacity:1; fill:none" points="
  1882.17,274.549 2281.64,274.549 2281.64,93.1086 1882.17,93.1086 1882.17,274.549 
  "/>
<polyline clip-path="url(#clip030)" style="stroke:#009af9; stroke-linecap:butt; stroke-linejoin:round; stroke-width:4; stroke-opacity:1; fill:none" points="
  1905.88,153.589 2048.1,153.589 
  "/>
<path clip-path="url(#clip030)" d="M2071.81 136.309 L2078.1 136.309 L2093.43 165.221 L2093.43 136.309 L2097.96 136.309 L2097.96 170.869 L2091.67 170.869 L2076.34 141.957 L2076.34 170.869 L2071.81 170.869 L2071.81 136.309 Z" fill="#000000" fill-rule="evenodd" fill-opacity="1" /><path clip-path="url(#clip030)" d="M2117.13 147.929 Q2113.7 147.929 2111.71 150.614 Q2109.72 153.276 2109.72 157.929 Q2109.72 162.582 2111.69 165.267 Q2113.68 167.929 2117.13 167.929 Q2120.53 167.929 2122.52 165.244 Q2124.51 162.558 2124.51 157.929 Q2124.51 153.322 2122.52 150.637 Q2120.53 147.929 2117.13 147.929 M2117.13 144.318 Q2122.68 144.318 2125.86 147.929 Q2129.03 151.54 2129.03 157.929 Q2129.03 164.295 2125.86 167.929 Q2122.68 171.54 2117.13 171.54 Q2111.55 171.54 2108.38 167.929 Q2105.23 164.295 2105.23 157.929 Q2105.23 151.54 2108.38 147.929 Q2111.55 144.318 2117.13 144.318 Z" fill="#000000" fill-rule="evenodd" fill-opacity="1" /><path clip-path="url(#clip030)" d="M2151.11 148.924 Q2150.39 148.508 2149.54 148.322 Q2148.7 148.114 2147.68 148.114 Q2144.07 148.114 2142.13 150.475 Q2140.21 152.813 2140.21 157.211 L2140.21 170.869 L2135.93 170.869 L2135.93 144.943 L2140.21 144.943 L2140.21 148.971 Q2141.55 146.609 2143.7 145.475 Q2145.86 144.318 2148.93 144.318 Q2149.37 144.318 2149.91 144.387 Q2150.44 144.434 2151.09 144.549 L2151.11 148.924 Z" fill="#000000" fill-rule="evenodd" fill-opacity="1" /><path clip-path="url(#clip030)" d="M2174.93 149.92 Q2176.53 147.049 2178.75 145.684 Q2180.97 144.318 2183.98 144.318 Q2188.03 144.318 2190.23 147.165 Q2192.43 149.989 2192.43 155.221 L2192.43 170.869 L2188.15 170.869 L2188.15 155.359 Q2188.15 151.633 2186.83 149.827 Q2185.51 148.022 2182.8 148.022 Q2179.49 148.022 2177.57 150.221 Q2175.65 152.42 2175.65 156.216 L2175.65 170.869 L2171.36 170.869 L2171.36 155.359 Q2171.36 151.609 2170.05 149.827 Q2168.73 148.022 2165.97 148.022 Q2162.71 148.022 2160.79 150.244 Q2158.87 152.443 2158.87 156.216 L2158.87 170.869 L2154.58 170.869 L2154.58 144.943 L2158.87 144.943 L2158.87 148.971 Q2160.32 146.586 2162.36 145.452 Q2164.4 144.318 2167.2 144.318 Q2170.02 144.318 2171.99 145.753 Q2173.98 147.188 2174.93 149.92 Z" fill="#000000" fill-rule="evenodd" fill-opacity="1" /><path clip-path="url(#clip030)" d="M2212.71 157.836 Q2207.55 157.836 2205.55 159.017 Q2203.56 160.197 2203.56 163.045 Q2203.56 165.313 2205.05 166.656 Q2206.55 167.975 2209.12 167.975 Q2212.66 167.975 2214.79 165.475 Q2216.94 162.952 2216.94 158.785 L2216.94 157.836 L2212.71 157.836 M2221.2 156.077 L2221.2 170.869 L2216.94 170.869 L2216.94 166.933 Q2215.49 169.295 2213.31 170.429 Q2211.13 171.54 2207.99 171.54 Q2204 171.54 2201.64 169.318 Q2199.3 167.072 2199.3 163.322 Q2199.3 158.947 2202.22 156.725 Q2205.16 154.503 2210.97 154.503 L2216.94 154.503 L2216.94 154.086 Q2216.94 151.147 2215 149.549 Q2213.08 147.929 2209.58 147.929 Q2207.36 147.929 2205.25 148.461 Q2203.15 148.994 2201.2 150.059 L2201.2 146.123 Q2203.54 145.221 2205.74 144.781 Q2207.94 144.318 2210.02 144.318 Q2215.65 144.318 2218.42 147.234 Q2221.2 150.151 2221.2 156.077 Z" fill="#000000" fill-rule="evenodd" fill-opacity="1" /><path clip-path="url(#clip030)" d="M2229.98 134.85 L2234.24 134.85 L2234.24 170.869 L2229.98 170.869 L2229.98 134.85 Z" fill="#000000" fill-rule="evenodd" fill-opacity="1" /><polyline clip-path="url(#clip030)" style="stroke:#e26f46; stroke-linecap:butt; stroke-linejoin:round; stroke-width:4; stroke-opacity:1; fill:none" points="
  1905.88,214.069 2048.1,214.069 
  "/>
<path clip-path="url(#clip030)" d="M2071.81 196.789 L2091.67 196.789 L2091.67 200.724 L2076.48 200.724 L2076.48 210.909 L2090.18 210.909 L2090.18 214.844 L2076.48 214.844 L2076.48 231.349 L2071.81 231.349 L2071.81 196.789 Z" fill="#000000" fill-rule="evenodd" fill-opacity="1" /><path clip-path="url(#clip030)" d="M2098.89 195.33 L2103.15 195.33 L2103.15 231.349 L2098.89 231.349 L2098.89 195.33 Z" fill="#000000" fill-rule="evenodd" fill-opacity="1" /><path clip-path="url(#clip030)" d="M2123.84 218.316 Q2118.68 218.316 2116.69 219.497 Q2114.7 220.677 2114.7 223.525 Q2114.7 225.793 2116.18 227.136 Q2117.68 228.455 2120.25 228.455 Q2123.8 228.455 2125.93 225.955 Q2128.08 223.432 2128.08 219.265 L2128.08 218.316 L2123.84 218.316 M2132.34 216.557 L2132.34 231.349 L2128.08 231.349 L2128.08 227.413 Q2126.62 229.775 2124.44 230.909 Q2122.27 232.02 2119.12 232.02 Q2115.14 232.02 2112.78 229.798 Q2110.44 227.552 2110.44 223.802 Q2110.44 219.427 2113.36 217.205 Q2116.3 214.983 2122.11 214.983 L2128.08 214.983 L2128.08 214.566 Q2128.08 211.627 2126.13 210.029 Q2124.21 208.409 2120.72 208.409 Q2118.49 208.409 2116.39 208.941 Q2114.28 209.474 2112.34 210.539 L2112.34 206.603 Q2114.68 205.701 2116.87 205.261 Q2119.07 204.798 2121.16 204.798 Q2126.78 204.798 2129.56 207.714 Q2132.34 210.631 2132.34 216.557 Z" fill="#000000" fill-rule="evenodd" fill-opacity="1" /><path clip-path="url(#clip030)" d="M2145.32 198.062 L2145.32 205.423 L2154.1 205.423 L2154.1 208.733 L2145.32 208.733 L2145.32 222.807 Q2145.32 225.978 2146.18 226.881 Q2147.06 227.784 2149.72 227.784 L2154.1 227.784 L2154.1 231.349 L2149.72 231.349 Q2144.79 231.349 2142.92 229.52 Q2141.04 227.668 2141.04 222.807 L2141.04 208.733 L2137.92 208.733 L2137.92 205.423 L2141.04 205.423 L2141.04 198.062 L2145.32 198.062 Z" fill="#000000" fill-rule="evenodd" fill-opacity="1" /></svg>
