<?xml version="1.0" encoding="utf-8"?>
<svg xmlns="http://www.w3.org/2000/svg" xmlns:xlink="http://www.w3.org/1999/xlink" width="600" height="400" viewBox="0 0 2400 1600">
<defs>
  <clipPath id="clip230">
    <rect x="0" y="0" width="2400" height="1600"/>
  </clipPath>
</defs>
<path clip-path="url(#clip230)" d="
M0 1600 L2400 1600 L2400 0 L0 0  Z
  " fill="#ffffff" fill-rule="evenodd" fill-opacity="1"/>
<defs>
  <clipPath id="clip231">
    <rect x="480" y="0" width="1681" height="1600"/>
  </clipPath>
</defs>
<path clip-path="url(#clip230)" d="
M249.542 1423.18 L2352.76 1423.18 L2352.76 47.2441 L249.542 47.2441  Z
  " fill="#ffffff" fill-rule="evenodd" fill-opacity="1"/>
<defs>
  <clipPath id="clip232">
    <rect x="249" y="47" width="2104" height="1377"/>
  </clipPath>
</defs>
<polyline clip-path="url(#clip232)" style="stroke:#000000; stroke-linecap:butt; stroke-linejoin:round; stroke-width:2; stroke-opacity:0.1; fill:none" points="
  299.046,1423.18 299.046,47.2441 
  "/>
<polyline clip-path="url(#clip232)" style="stroke:#000000; stroke-linecap:butt; stroke-linejoin:round; stroke-width:2; stroke-opacity:0.1; fill:none" points="
  800.097,1423.18 800.097,47.2441 
  "/>
<polyline clip-path="url(#clip232)" style="stroke:#000000; stroke-linecap:butt; stroke-linejoin:round; stroke-width:2; stroke-opacity:0.1; fill:none" points="
  1301.15,1423.18 1301.15,47.2441 
  "/>
<polyline clip-path="url(#clip232)" style="stroke:#000000; stroke-linecap:butt; stroke-linejoin:round; stroke-width:2; stroke-opacity:0.1; fill:none" points="
  1802.2,1423.18 1802.2,47.2441 
  "/>
<polyline clip-path="url(#clip232)" style="stroke:#000000; stroke-linecap:butt; stroke-linejoin:round; stroke-width:2; stroke-opacity:0.1; fill:none" points="
  2303.25,1423.18 2303.25,47.2441 
  "/>
<polyline clip-path="url(#clip230)" style="stroke:#000000; stroke-linecap:butt; stroke-linejoin:round; stroke-width:4; stroke-opacity:1; fill:none" points="
  249.542,1423.18 2352.76,1423.18 
  "/>
<polyline clip-path="url(#clip230)" style="stroke:#000000; stroke-linecap:butt; stroke-linejoin:round; stroke-width:4; stroke-opacity:1; fill:none" points="
  299.046,1423.18 299.046,1406.67 
  "/>
<polyline clip-path="url(#clip230)" style="stroke:#000000; stroke-linecap:butt; stroke-linejoin:round; stroke-width:4; stroke-opacity:1; fill:none" points="
  800.097,1423.18 800.097,1406.67 
  "/>
<polyline clip-path="url(#clip230)" style="stroke:#000000; stroke-linecap:butt; stroke-linejoin:round; stroke-width:4; stroke-opacity:1; fill:none" points="
  1301.15,1423.18 1301.15,1406.67 
  "/>
<polyline clip-path="url(#clip230)" style="stroke:#000000; stroke-linecap:butt; stroke-linejoin:round; stroke-width:4; stroke-opacity:1; fill:none" points="
  1802.2,1423.18 1802.2,1406.67 
  "/>
<polyline clip-path="url(#clip230)" style="stroke:#000000; stroke-linecap:butt; stroke-linejoin:round; stroke-width:4; stroke-opacity:1; fill:none" points="
  2303.25,1423.18 2303.25,1406.67 
  "/>
<path clip-path="url(#clip230)" d="M276.43 1452.37 Q272.819 1452.37 270.991 1455.94 Q269.185 1459.48 269.185 1466.61 Q269.185 1473.71 270.991 1477.28 Q272.819 1480.82 276.43 1480.82 Q280.065 1480.82 281.87 1477.28 Q283.699 1473.71 283.699 1466.61 Q283.699 1459.48 281.87 1455.94 Q280.065 1452.37 276.43 1452.37 M276.43 1448.67 Q282.24 1448.67 285.296 1453.27 Q288.375 1457.86 288.375 1466.61 Q288.375 1475.33 285.296 1479.94 Q282.24 1484.52 276.43 1484.52 Q270.62 1484.52 267.541 1479.94 Q264.486 1475.33 264.486 1466.61 Q264.486 1457.86 267.541 1453.27 Q270.62 1448.67 276.43 1448.67 Z" fill="#000000" fill-rule="evenodd" fill-opacity="1" /><path clip-path="url(#clip230)" d="M296.592 1477.97 L301.476 1477.97 L301.476 1483.85 L296.592 1483.85 L296.592 1477.97 Z" fill="#000000" fill-rule="evenodd" fill-opacity="1" /><path clip-path="url(#clip230)" d="M321.662 1452.37 Q318.05 1452.37 316.222 1455.94 Q314.416 1459.48 314.416 1466.61 Q314.416 1473.71 316.222 1477.28 Q318.05 1480.82 321.662 1480.82 Q325.296 1480.82 327.101 1477.28 Q328.93 1473.71 328.93 1466.61 Q328.93 1459.48 327.101 1455.94 Q325.296 1452.37 321.662 1452.37 M321.662 1448.67 Q327.472 1448.67 330.527 1453.27 Q333.606 1457.86 333.606 1466.61 Q333.606 1475.33 330.527 1479.94 Q327.472 1484.52 321.662 1484.52 Q315.851 1484.52 312.773 1479.94 Q309.717 1475.33 309.717 1466.61 Q309.717 1457.86 312.773 1453.27 Q315.851 1448.67 321.662 1448.67 Z" fill="#000000" fill-rule="evenodd" fill-opacity="1" /><path clip-path="url(#clip230)" d="M777.98 1452.37 Q774.368 1452.37 772.54 1455.94 Q770.734 1459.48 770.734 1466.61 Q770.734 1473.71 772.54 1477.28 Q774.368 1480.82 777.98 1480.82 Q781.614 1480.82 783.419 1477.28 Q785.248 1473.71 785.248 1466.61 Q785.248 1459.48 783.419 1455.94 Q781.614 1452.37 777.98 1452.37 M777.98 1448.67 Q783.79 1448.67 786.845 1453.27 Q789.924 1457.86 789.924 1466.61 Q789.924 1475.33 786.845 1479.94 Q783.79 1484.52 777.98 1484.52 Q772.169 1484.52 769.091 1479.94 Q766.035 1475.33 766.035 1466.61 Q766.035 1457.86 769.091 1453.27 Q772.169 1448.67 777.98 1448.67 Z" fill="#000000" fill-rule="evenodd" fill-opacity="1" /><path clip-path="url(#clip230)" d="M798.141 1477.97 L803.026 1477.97 L803.026 1483.85 L798.141 1483.85 L798.141 1477.97 Z" fill="#000000" fill-rule="evenodd" fill-opacity="1" /><path clip-path="url(#clip230)" d="M813.257 1449.29 L831.613 1449.29 L831.613 1453.23 L817.539 1453.23 L817.539 1461.7 Q818.558 1461.35 819.577 1461.19 Q820.595 1461 821.614 1461 Q827.401 1461 830.78 1464.18 Q834.16 1467.35 834.16 1472.76 Q834.16 1478.34 830.688 1481.44 Q827.215 1484.52 820.896 1484.52 Q818.72 1484.52 816.452 1484.15 Q814.206 1483.78 811.799 1483.04 L811.799 1478.34 Q813.882 1479.48 816.104 1480.03 Q818.327 1480.59 820.803 1480.59 Q824.808 1480.59 827.146 1478.48 Q829.484 1476.38 829.484 1472.76 Q829.484 1469.15 827.146 1467.05 Q824.808 1464.94 820.803 1464.94 Q818.928 1464.94 817.053 1465.36 Q815.202 1465.77 813.257 1466.65 L813.257 1449.29 Z" fill="#000000" fill-rule="evenodd" fill-opacity="1" /><path clip-path="url(#clip230)" d="M1268.3 1479.92 L1275.94 1479.92 L1275.94 1453.55 L1267.63 1455.22 L1267.63 1450.96 L1275.89 1449.29 L1280.57 1449.29 L1280.57 1479.92 L1288.21 1479.92 L1288.21 1483.85 L1268.3 1483.85 L1268.3 1479.92 Z" fill="#000000" fill-rule="evenodd" fill-opacity="1" /><path clip-path="url(#clip230)" d="M1297.65 1477.97 L1302.54 1477.97 L1302.54 1483.85 L1297.65 1483.85 L1297.65 1477.97 Z" fill="#000000" fill-rule="evenodd" fill-opacity="1" /><path clip-path="url(#clip230)" d="M1322.72 1452.37 Q1319.11 1452.37 1317.28 1455.94 Q1315.48 1459.48 1315.48 1466.61 Q1315.48 1473.71 1317.28 1477.28 Q1319.11 1480.82 1322.72 1480.82 Q1326.36 1480.82 1328.16 1477.28 Q1329.99 1473.71 1329.99 1466.61 Q1329.99 1459.48 1328.16 1455.94 Q1326.36 1452.37 1322.72 1452.37 M1322.72 1448.67 Q1328.53 1448.67 1331.59 1453.27 Q1334.67 1457.86 1334.67 1466.61 Q1334.67 1475.33 1331.59 1479.94 Q1328.53 1484.52 1322.72 1484.52 Q1316.91 1484.52 1313.83 1479.94 Q1310.78 1475.33 1310.78 1466.61 Q1310.78 1457.86 1313.83 1453.27 Q1316.91 1448.67 1322.72 1448.67 Z" fill="#000000" fill-rule="evenodd" fill-opacity="1" /><path clip-path="url(#clip230)" d="M1769.85 1479.92 L1777.49 1479.92 L1777.49 1453.55 L1769.18 1455.22 L1769.18 1450.96 L1777.44 1449.29 L1782.12 1449.29 L1782.12 1479.92 L1789.76 1479.92 L1789.76 1483.85 L1769.85 1483.85 L1769.85 1479.92 Z" fill="#000000" fill-rule="evenodd" fill-opacity="1" /><path clip-path="url(#clip230)" d="M1799.2 1477.97 L1804.09 1477.97 L1804.09 1483.85 L1799.2 1483.85 L1799.2 1477.97 Z" fill="#000000" fill-rule="evenodd" fill-opacity="1" /><path clip-path="url(#clip230)" d="M1814.32 1449.29 L1832.67 1449.29 L1832.67 1453.23 L1818.6 1453.23 L1818.6 1461.7 Q1819.62 1461.35 1820.64 1461.19 Q1821.66 1461 1822.67 1461 Q1828.46 1461 1831.84 1464.18 Q1835.22 1467.35 1835.22 1472.76 Q1835.22 1478.34 1831.75 1481.44 Q1828.28 1484.52 1821.96 1484.52 Q1819.78 1484.52 1817.51 1484.15 Q1815.27 1483.78 1812.86 1483.04 L1812.86 1478.34 Q1814.94 1479.48 1817.17 1480.03 Q1819.39 1480.59 1821.86 1480.59 Q1825.87 1480.59 1828.21 1478.48 Q1830.55 1476.38 1830.55 1472.76 Q1830.55 1469.15 1828.21 1467.05 Q1825.87 1464.94 1821.86 1464.94 Q1819.99 1464.94 1818.11 1465.36 Q1816.26 1465.77 1814.32 1466.65 L1814.32 1449.29 Z" fill="#000000" fill-rule="evenodd" fill-opacity="1" /><path clip-path="url(#clip230)" d="M2274.49 1479.92 L2290.81 1479.92 L2290.81 1483.85 L2268.87 1483.85 L2268.87 1479.92 Q2271.53 1477.16 2276.11 1472.53 Q2280.72 1467.88 2281.9 1466.54 Q2284.14 1464.01 2285.02 1462.28 Q2285.93 1460.52 2285.93 1458.83 Q2285.93 1456.07 2283.98 1454.34 Q2282.06 1452.6 2278.96 1452.6 Q2276.76 1452.6 2274.31 1453.37 Q2271.87 1454.13 2269.1 1455.68 L2269.1 1450.96 Q2271.92 1449.82 2274.37 1449.25 Q2276.83 1448.67 2278.87 1448.67 Q2284.24 1448.67 2287.43 1451.35 Q2290.62 1454.04 2290.62 1458.53 Q2290.62 1460.66 2289.81 1462.58 Q2289.03 1464.48 2286.92 1467.07 Q2286.34 1467.74 2283.24 1470.96 Q2280.14 1474.15 2274.49 1479.92 Z" fill="#000000" fill-rule="evenodd" fill-opacity="1" /><path clip-path="url(#clip230)" d="M2300.62 1477.97 L2305.51 1477.97 L2305.51 1483.85 L2300.62 1483.85 L2300.62 1477.97 Z" fill="#000000" fill-rule="evenodd" fill-opacity="1" /><path clip-path="url(#clip230)" d="M2325.69 1452.37 Q2322.08 1452.37 2320.25 1455.94 Q2318.45 1459.48 2318.45 1466.61 Q2318.45 1473.71 2320.25 1477.28 Q2322.08 1480.82 2325.69 1480.82 Q2329.33 1480.82 2331.13 1477.28 Q2332.96 1473.71 2332.96 1466.61 Q2332.96 1459.48 2331.13 1455.94 Q2329.33 1452.37 2325.69 1452.37 M2325.69 1448.67 Q2331.5 1448.67 2334.56 1453.27 Q2337.64 1457.86 2337.64 1466.61 Q2337.64 1475.33 2334.56 1479.94 Q2331.5 1484.52 2325.69 1484.52 Q2319.88 1484.52 2316.81 1479.94 Q2313.75 1475.33 2313.75 1466.61 Q2313.75 1457.86 2316.81 1453.27 Q2319.88 1448.67 2325.69 1448.67 Z" fill="#000000" fill-rule="evenodd" fill-opacity="1" /><path clip-path="url(#clip230)" d="M1081.98 1532.4 L1088.18 1532.4 L1099.32 1562.31 L1110.46 1532.4 L1116.67 1532.4 L1103.3 1568.04 L1095.35 1568.04 L1081.98 1532.4 Z" fill="#000000" fill-rule="evenodd" fill-opacity="1" /><path clip-path="url(#clip230)" d="M1155.25 1548.76 L1155.25 1551.62 L1128.32 1551.62 Q1128.7 1557.67 1131.95 1560.85 Q1135.23 1564 1141.05 1564 Q1144.43 1564 1147.58 1563.17 Q1150.76 1562.35 1153.88 1560.69 L1153.88 1566.23 Q1150.73 1567.57 1147.42 1568.27 Q1144.11 1568.97 1140.7 1568.97 Q1132.17 1568.97 1127.17 1564 Q1122.21 1559.04 1122.21 1550.57 Q1122.21 1541.82 1126.92 1536.69 Q1131.66 1531.54 1139.68 1531.54 Q1146.88 1531.54 1151.05 1536.18 Q1155.25 1540.8 1155.25 1548.76 M1149.39 1547.04 Q1149.33 1542.23 1146.69 1539.37 Q1144.08 1536.5 1139.75 1536.5 Q1134.84 1536.5 1131.88 1539.27 Q1128.96 1542.04 1128.51 1547.07 L1149.39 1547.04 Z" fill="#000000" fill-rule="evenodd" fill-opacity="1" /><path clip-path="url(#clip230)" d="M1164.86 1518.52 L1170.72 1518.52 L1170.72 1568.04 L1164.86 1568.04 L1164.86 1518.52 Z" fill="#000000" fill-rule="evenodd" fill-opacity="1" /><path clip-path="url(#clip230)" d="M1196.78 1536.5 Q1192.07 1536.5 1189.34 1540.19 Q1186.6 1543.85 1186.6 1550.25 Q1186.6 1556.65 1189.3 1560.34 Q1192.04 1564 1196.78 1564 Q1201.46 1564 1204.2 1560.31 Q1206.94 1556.62 1206.94 1550.25 Q1206.94 1543.92 1204.2 1540.23 Q1201.46 1536.5 1196.78 1536.5 M1196.78 1531.54 Q1204.42 1531.54 1208.78 1536.5 Q1213.14 1541.47 1213.14 1550.25 Q1213.14 1559 1208.78 1564 Q1204.42 1568.97 1196.78 1568.97 Q1189.11 1568.97 1184.75 1564 Q1180.42 1559 1180.42 1550.25 Q1180.42 1541.47 1184.75 1536.5 Q1189.11 1531.54 1196.78 1531.54 Z" fill="#000000" fill-rule="evenodd" fill-opacity="1" /><path clip-path="url(#clip230)" d="M1248.5 1533.76 L1248.5 1539.24 Q1246.02 1537.87 1243.51 1537.2 Q1241.02 1536.5 1238.48 1536.5 Q1232.78 1536.5 1229.63 1540.13 Q1226.48 1543.73 1226.48 1550.25 Q1226.48 1556.78 1229.63 1560.4 Q1232.78 1564 1238.48 1564 Q1241.02 1564 1243.51 1563.33 Q1246.02 1562.63 1248.5 1561.26 L1248.5 1566.68 Q1246.05 1567.82 1243.41 1568.39 Q1240.8 1568.97 1237.84 1568.97 Q1229.79 1568.97 1225.05 1563.91 Q1220.3 1558.85 1220.3 1550.25 Q1220.3 1541.53 1225.08 1536.53 Q1229.88 1531.54 1238.22 1531.54 Q1240.93 1531.54 1243.51 1532.11 Q1246.09 1532.65 1248.5 1533.76 Z" fill="#000000" fill-rule="evenodd" fill-opacity="1" /><path clip-path="url(#clip230)" d="M1258.69 1532.4 L1264.55 1532.4 L1264.55 1568.04 L1258.69 1568.04 L1258.69 1532.4 M1258.69 1518.52 L1264.55 1518.52 L1264.55 1525.93 L1258.69 1525.93 L1258.69 1518.52 Z" fill="#000000" fill-rule="evenodd" fill-opacity="1" /><path clip-path="url(#clip230)" d="M1282.59 1522.27 L1282.59 1532.4 L1294.66 1532.4 L1294.66 1536.95 L1282.59 1536.95 L1282.59 1556.3 Q1282.59 1560.66 1283.77 1561.9 Q1284.98 1563.14 1288.64 1563.14 L1294.66 1563.14 L1294.66 1568.04 L1288.64 1568.04 Q1281.86 1568.04 1279.28 1565.53 Q1276.7 1562.98 1276.7 1556.3 L1276.7 1536.95 L1272.41 1536.95 L1272.41 1532.4 L1276.7 1532.4 L1276.7 1522.27 L1282.59 1522.27 Z" fill="#000000" fill-rule="evenodd" fill-opacity="1" /><path clip-path="url(#clip230)" d="M1317.19 1571.35 Q1314.71 1577.72 1312.35 1579.66 Q1310 1581.6 1306.05 1581.6 L1301.37 1581.6 L1301.37 1576.7 L1304.81 1576.7 Q1307.23 1576.7 1308.57 1575.56 Q1309.9 1574.41 1311.53 1570.14 L1312.58 1567.47 L1298.16 1532.4 L1304.36 1532.4 L1315.5 1560.28 L1326.64 1532.4 L1332.85 1532.4 L1317.19 1571.35 Z" fill="#000000" fill-rule="evenodd" fill-opacity="1" /><path clip-path="url(#clip230)" d="M1391.29 1546.53 L1391.29 1568.04 L1385.43 1568.04 L1385.43 1546.72 Q1385.43 1541.66 1383.46 1539.14 Q1381.48 1536.63 1377.54 1536.63 Q1372.79 1536.63 1370.06 1539.65 Q1367.32 1542.68 1367.32 1547.9 L1367.32 1568.04 L1361.43 1568.04 L1361.43 1532.4 L1367.32 1532.4 L1367.32 1537.93 Q1369.42 1534.72 1372.25 1533.13 Q1375.12 1531.54 1378.84 1531.54 Q1384.99 1531.54 1388.14 1535.36 Q1391.29 1539.14 1391.29 1546.53 Z" fill="#000000" fill-rule="evenodd" fill-opacity="1" /><path clip-path="url(#clip230)" d="M1416.78 1536.5 Q1412.07 1536.5 1409.33 1540.19 Q1406.6 1543.85 1406.6 1550.25 Q1406.6 1556.65 1409.3 1560.34 Q1412.04 1564 1416.78 1564 Q1421.46 1564 1424.2 1560.31 Q1426.94 1556.62 1426.94 1550.25 Q1426.94 1543.92 1424.2 1540.23 Q1421.46 1536.5 1416.78 1536.5 M1416.78 1531.54 Q1424.42 1531.54 1428.78 1536.5 Q1433.14 1541.47 1433.14 1550.25 Q1433.14 1559 1428.78 1564 Q1424.42 1568.97 1416.78 1568.97 Q1409.11 1568.97 1404.75 1564 Q1400.42 1559 1400.42 1550.25 Q1400.42 1541.47 1404.75 1536.5 Q1409.11 1531.54 1416.78 1531.54 Z" fill="#000000" fill-rule="evenodd" fill-opacity="1" /><path clip-path="url(#clip230)" d="M1463.51 1537.87 Q1462.52 1537.3 1461.34 1537.04 Q1460.2 1536.76 1458.8 1536.76 Q1453.83 1536.76 1451.16 1540 Q1448.52 1543.22 1448.52 1549.27 L1448.52 1568.04 L1442.63 1568.04 L1442.63 1532.4 L1448.52 1532.4 L1448.52 1537.93 Q1450.36 1534.69 1453.32 1533.13 Q1456.28 1531.54 1460.51 1531.54 Q1461.12 1531.54 1461.85 1531.63 Q1462.58 1531.7 1463.47 1531.85 L1463.51 1537.87 Z" fill="#000000" fill-rule="evenodd" fill-opacity="1" /><path clip-path="url(#clip230)" d="M1496.26 1539.24 Q1498.45 1535.29 1501.51 1533.41 Q1504.57 1531.54 1508.7 1531.54 Q1514.27 1531.54 1517.3 1535.45 Q1520.32 1539.33 1520.32 1546.53 L1520.32 1568.04 L1514.43 1568.04 L1514.43 1546.72 Q1514.43 1541.59 1512.62 1539.11 Q1510.8 1536.63 1507.08 1536.63 Q1502.53 1536.63 1499.89 1539.65 Q1497.24 1542.68 1497.24 1547.9 L1497.24 1568.04 L1491.36 1568.04 L1491.36 1546.72 Q1491.36 1541.56 1489.54 1539.11 Q1487.73 1536.63 1483.94 1536.63 Q1479.45 1536.63 1476.81 1539.68 Q1474.17 1542.71 1474.17 1547.9 L1474.17 1568.04 L1468.28 1568.04 L1468.28 1532.4 L1474.17 1532.4 L1474.17 1537.93 Q1476.17 1534.66 1478.97 1533.1 Q1481.78 1531.54 1485.63 1531.54 Q1489.51 1531.54 1492.22 1533.51 Q1494.95 1535.48 1496.26 1539.24 Z" fill="#000000" fill-rule="evenodd" fill-opacity="1" /><polyline clip-path="url(#clip232)" style="stroke:#000000; stroke-linecap:butt; stroke-linejoin:round; stroke-width:2; stroke-opacity:0.1; fill:none" points="
  249.542,1384.24 2352.76,1384.24 
  "/>
<polyline clip-path="url(#clip232)" style="stroke:#000000; stroke-linecap:butt; stroke-linejoin:round; stroke-width:2; stroke-opacity:0.1; fill:none" points="
  249.542,972.55 2352.76,972.55 
  "/>
<polyline clip-path="url(#clip232)" style="stroke:#000000; stroke-linecap:butt; stroke-linejoin:round; stroke-width:2; stroke-opacity:0.1; fill:none" points="
  249.542,560.862 2352.76,560.862 
  "/>
<polyline clip-path="url(#clip232)" style="stroke:#000000; stroke-linecap:butt; stroke-linejoin:round; stroke-width:2; stroke-opacity:0.1; fill:none" points="
  249.542,149.174 2352.76,149.174 
  "/>
<polyline clip-path="url(#clip230)" style="stroke:#000000; stroke-linecap:butt; stroke-linejoin:round; stroke-width:4; stroke-opacity:1; fill:none" points="
  249.542,1423.18 249.542,47.2441 
  "/>
<polyline clip-path="url(#clip230)" style="stroke:#000000; stroke-linecap:butt; stroke-linejoin:round; stroke-width:4; stroke-opacity:1; fill:none" points="
  249.542,1384.24 274.781,1384.24 
  "/>
<polyline clip-path="url(#clip230)" style="stroke:#000000; stroke-linecap:butt; stroke-linejoin:round; stroke-width:4; stroke-opacity:1; fill:none" points="
  249.542,972.55 274.781,972.55 
  "/>
<polyline clip-path="url(#clip230)" style="stroke:#000000; stroke-linecap:butt; stroke-linejoin:round; stroke-width:4; stroke-opacity:1; fill:none" points="
  249.542,560.862 274.781,560.862 
  "/>
<polyline clip-path="url(#clip230)" style="stroke:#000000; stroke-linecap:butt; stroke-linejoin:round; stroke-width:4; stroke-opacity:1; fill:none" points="
  249.542,149.174 274.781,149.174 
  "/>
<path clip-path="url(#clip230)" d="M126.205 1370.04 Q122.593 1370.04 120.765 1373.6 Q118.959 1377.14 118.959 1384.27 Q118.959 1391.38 120.765 1394.94 Q122.593 1398.49 126.205 1398.49 Q129.839 1398.49 131.644 1394.94 Q133.473 1391.38 133.473 1384.27 Q133.473 1377.14 131.644 1373.6 Q129.839 1370.04 126.205 1370.04 M126.205 1366.33 Q132.015 1366.33 135.07 1370.94 Q138.149 1375.52 138.149 1384.27 Q138.149 1393 135.07 1397.61 Q132.015 1402.19 126.205 1402.19 Q120.394 1402.19 117.316 1397.61 Q114.26 1393 114.26 1384.27 Q114.26 1375.52 117.316 1370.94 Q120.394 1366.33 126.205 1366.33 Z" fill="#000000" fill-rule="evenodd" fill-opacity="1" /><path clip-path="url(#clip230)" d="M146.366 1395.64 L151.251 1395.64 L151.251 1401.52 L146.366 1401.52 L146.366 1395.64 Z" fill="#000000" fill-rule="evenodd" fill-opacity="1" /><path clip-path="url(#clip230)" d="M171.436 1370.04 Q167.825 1370.04 165.996 1373.6 Q164.19 1377.14 164.19 1384.27 Q164.19 1391.38 165.996 1394.94 Q167.825 1398.49 171.436 1398.49 Q175.07 1398.49 176.876 1394.94 Q178.704 1391.38 178.704 1384.27 Q178.704 1377.14 176.876 1373.6 Q175.07 1370.04 171.436 1370.04 M171.436 1366.33 Q177.246 1366.33 180.301 1370.94 Q183.38 1375.52 183.38 1384.27 Q183.38 1393 180.301 1397.61 Q177.246 1402.19 171.436 1402.19 Q165.626 1402.19 162.547 1397.61 Q159.491 1393 159.491 1384.27 Q159.491 1375.52 162.547 1370.94 Q165.626 1366.33 171.436 1366.33 Z" fill="#000000" fill-rule="evenodd" fill-opacity="1" /><path clip-path="url(#clip230)" d="M201.598 1370.04 Q197.987 1370.04 196.158 1373.6 Q194.352 1377.14 194.352 1384.27 Q194.352 1391.38 196.158 1394.94 Q197.987 1398.49 201.598 1398.49 Q205.232 1398.49 207.037 1394.94 Q208.866 1391.38 208.866 1384.27 Q208.866 1377.14 207.037 1373.6 Q205.232 1370.04 201.598 1370.04 M201.598 1366.33 Q207.408 1366.33 210.463 1370.94 Q213.542 1375.52 213.542 1384.27 Q213.542 1393 210.463 1397.61 Q207.408 1402.19 201.598 1402.19 Q195.787 1402.19 192.709 1397.61 Q189.653 1393 189.653 1384.27 Q189.653 1375.52 192.709 1370.94 Q195.787 1366.33 201.598 1366.33 Z" fill="#000000" fill-rule="evenodd" fill-opacity="1" /><path clip-path="url(#clip230)" d="M127.431 958.349 Q123.82 958.349 121.992 961.914 Q120.186 965.455 120.186 972.585 Q120.186 979.691 121.992 983.256 Q123.82 986.798 127.431 986.798 Q131.066 986.798 132.871 983.256 Q134.7 979.691 134.7 972.585 Q134.7 965.455 132.871 961.914 Q131.066 958.349 127.431 958.349 M127.431 954.645 Q133.242 954.645 136.297 959.252 Q139.376 963.835 139.376 972.585 Q139.376 981.312 136.297 985.918 Q133.242 990.501 127.431 990.501 Q121.621 990.501 118.543 985.918 Q115.487 981.312 115.487 972.585 Q115.487 963.835 118.543 959.252 Q121.621 954.645 127.431 954.645 Z" fill="#000000" fill-rule="evenodd" fill-opacity="1" /><path clip-path="url(#clip230)" d="M147.593 983.951 L152.478 983.951 L152.478 989.83 L147.593 989.83 L147.593 983.951 Z" fill="#000000" fill-rule="evenodd" fill-opacity="1" /><path clip-path="url(#clip230)" d="M172.663 958.349 Q169.052 958.349 167.223 961.914 Q165.417 965.455 165.417 972.585 Q165.417 979.691 167.223 983.256 Q169.052 986.798 172.663 986.798 Q176.297 986.798 178.102 983.256 Q179.931 979.691 179.931 972.585 Q179.931 965.455 178.102 961.914 Q176.297 958.349 172.663 958.349 M172.663 954.645 Q178.473 954.645 181.528 959.252 Q184.607 963.835 184.607 972.585 Q184.607 981.312 181.528 985.918 Q178.473 990.501 172.663 990.501 Q166.852 990.501 163.774 985.918 Q160.718 981.312 160.718 972.585 Q160.718 963.835 163.774 959.252 Q166.852 954.645 172.663 954.645 Z" fill="#000000" fill-rule="evenodd" fill-opacity="1" /><path clip-path="url(#clip230)" d="M193.635 985.895 L201.274 985.895 L201.274 959.529 L192.963 961.196 L192.963 956.937 L201.227 955.27 L205.903 955.27 L205.903 985.895 L213.542 985.895 L213.542 989.83 L193.635 989.83 L193.635 985.895 Z" fill="#000000" fill-rule="evenodd" fill-opacity="1" /><path clip-path="url(#clip230)" d="M127.802 546.661 Q124.191 546.661 122.362 550.226 Q120.556 553.767 120.556 560.897 Q120.556 568.003 122.362 571.568 Q124.191 575.11 127.802 575.11 Q131.436 575.11 133.242 571.568 Q135.07 568.003 135.07 560.897 Q135.07 553.767 133.242 550.226 Q131.436 546.661 127.802 546.661 M127.802 542.957 Q133.612 542.957 136.667 547.564 Q139.746 552.147 139.746 560.897 Q139.746 569.624 136.667 574.23 Q133.612 578.813 127.802 578.813 Q121.992 578.813 118.913 574.23 Q115.857 569.624 115.857 560.897 Q115.857 552.147 118.913 547.564 Q121.992 542.957 127.802 542.957 Z" fill="#000000" fill-rule="evenodd" fill-opacity="1" /><path clip-path="url(#clip230)" d="M147.964 572.262 L152.848 572.262 L152.848 578.142 L147.964 578.142 L147.964 572.262 Z" fill="#000000" fill-rule="evenodd" fill-opacity="1" /><path clip-path="url(#clip230)" d="M173.033 546.661 Q169.422 546.661 167.593 550.226 Q165.788 553.767 165.788 560.897 Q165.788 568.003 167.593 571.568 Q169.422 575.11 173.033 575.11 Q176.667 575.11 178.473 571.568 Q180.301 568.003 180.301 560.897 Q180.301 553.767 178.473 550.226 Q176.667 546.661 173.033 546.661 M173.033 542.957 Q178.843 542.957 181.899 547.564 Q184.977 552.147 184.977 560.897 Q184.977 569.624 181.899 574.23 Q178.843 578.813 173.033 578.813 Q167.223 578.813 164.144 574.23 Q161.089 569.624 161.089 560.897 Q161.089 552.147 164.144 547.564 Q167.223 542.957 173.033 542.957 Z" fill="#000000" fill-rule="evenodd" fill-opacity="1" /><path clip-path="url(#clip230)" d="M197.223 574.207 L213.542 574.207 L213.542 578.142 L191.598 578.142 L191.598 574.207 Q194.26 571.452 198.843 566.823 Q203.449 562.17 204.63 560.827 Q206.875 558.304 207.755 556.568 Q208.658 554.809 208.658 553.119 Q208.658 550.364 206.713 548.628 Q204.792 546.892 201.69 546.892 Q199.491 546.892 197.037 547.656 Q194.607 548.42 191.829 549.971 L191.829 545.249 Q194.653 544.114 197.107 543.536 Q199.561 542.957 201.598 542.957 Q206.968 542.957 210.162 545.642 Q213.357 548.327 213.357 552.818 Q213.357 554.948 212.547 556.869 Q211.76 558.767 209.653 561.36 Q209.074 562.031 205.973 565.249 Q202.871 568.443 197.223 574.207 Z" fill="#000000" fill-rule="evenodd" fill-opacity="1" /><path clip-path="url(#clip230)" d="M126.853 134.973 Q123.242 134.973 121.413 138.537 Q119.607 142.079 119.607 149.209 Q119.607 156.315 121.413 159.88 Q123.242 163.422 126.853 163.422 Q130.487 163.422 132.292 159.88 Q134.121 156.315 134.121 149.209 Q134.121 142.079 132.292 138.537 Q130.487 134.973 126.853 134.973 M126.853 131.269 Q132.663 131.269 135.718 135.875 Q138.797 140.459 138.797 149.209 Q138.797 157.935 135.718 162.542 Q132.663 167.125 126.853 167.125 Q121.043 167.125 117.964 162.542 Q114.908 157.935 114.908 149.209 Q114.908 140.459 117.964 135.875 Q121.043 131.269 126.853 131.269 Z" fill="#000000" fill-rule="evenodd" fill-opacity="1" /><path clip-path="url(#clip230)" d="M147.015 160.574 L151.899 160.574 L151.899 166.454 L147.015 166.454 L147.015 160.574 Z" fill="#000000" fill-rule="evenodd" fill-opacity="1" /><path clip-path="url(#clip230)" d="M172.084 134.973 Q168.473 134.973 166.644 138.537 Q164.839 142.079 164.839 149.209 Q164.839 156.315 166.644 159.88 Q168.473 163.422 172.084 163.422 Q175.718 163.422 177.524 159.88 Q179.352 156.315 179.352 149.209 Q179.352 142.079 177.524 138.537 Q175.718 134.973 172.084 134.973 M172.084 131.269 Q177.894 131.269 180.95 135.875 Q184.028 140.459 184.028 149.209 Q184.028 157.935 180.95 162.542 Q177.894 167.125 172.084 167.125 Q166.274 167.125 163.195 162.542 Q160.14 157.935 160.14 149.209 Q160.14 140.459 163.195 135.875 Q166.274 131.269 172.084 131.269 Z" fill="#000000" fill-rule="evenodd" fill-opacity="1" /><path clip-path="url(#clip230)" d="M206.412 147.82 Q209.769 148.537 211.644 150.806 Q213.542 153.074 213.542 156.408 Q213.542 161.523 210.024 164.324 Q206.505 167.125 200.024 167.125 Q197.848 167.125 195.533 166.685 Q193.241 166.269 190.788 165.412 L190.788 160.898 Q192.732 162.033 195.047 162.611 Q197.362 163.19 199.885 163.19 Q204.283 163.19 206.574 161.454 Q208.889 159.718 208.889 156.408 Q208.889 153.352 206.737 151.639 Q204.607 149.903 200.787 149.903 L196.76 149.903 L196.76 146.061 L200.973 146.061 Q204.422 146.061 206.25 144.695 Q208.079 143.306 208.079 140.713 Q208.079 138.051 206.181 136.639 Q204.306 135.204 200.787 135.204 Q198.866 135.204 196.667 135.621 Q194.468 136.037 191.829 136.917 L191.829 132.75 Q194.491 132.01 196.806 131.639 Q199.144 131.269 201.204 131.269 Q206.528 131.269 209.63 133.699 Q212.732 136.107 212.732 140.227 Q212.732 143.098 211.088 145.088 Q209.445 147.056 206.412 147.82 Z" fill="#000000" fill-rule="evenodd" fill-opacity="1" /><path clip-path="url(#clip230)" d="M14.479 874.271 L19.3487 874.271 L19.3487 879.873 Q19.3487 883.024 20.6219 884.265 Q21.895 885.474 25.2052 885.474 L28.3562 885.474 L28.3562 875.83 L32.9077 875.83 L32.9077 885.474 L64.0042 885.474 L64.0042 891.363 L32.9077 891.363 L32.9077 896.965 L28.3562 896.965 L28.3562 891.363 L25.8736 891.363 Q19.9216 891.363 17.2162 888.594 Q14.479 885.825 14.479 879.809 L14.479 874.271 Z" fill="#000000" fill-rule="evenodd" fill-opacity="1" /><path clip-path="url(#clip230)" d="M33.8307 848.713 Q33.2578 849.699 33.0032 850.877 Q32.7167 852.023 32.7167 853.423 Q32.7167 858.388 35.9632 861.062 Q39.1779 863.704 45.2253 863.704 L64.0042 863.704 L64.0042 869.592 L28.3562 869.592 L28.3562 863.704 L33.8944 863.704 Q30.6479 861.858 29.0883 858.898 Q27.4968 855.938 27.4968 851.704 Q27.4968 851.1 27.5923 850.368 Q27.656 849.636 27.8151 848.744 L33.8307 848.713 Z" fill="#000000" fill-rule="evenodd" fill-opacity="1" /><path clip-path="url(#clip230)" d="M44.7161 813.51 L47.5806 813.51 L47.5806 840.437 Q53.6281 840.055 56.8109 836.809 Q59.9619 833.53 59.9619 827.706 Q59.9619 824.332 59.1344 821.181 Q58.3069 817.998 56.6518 814.879 L62.1899 814.879 Q63.5267 818.03 64.227 821.34 Q64.9272 824.65 64.9272 828.056 Q64.9272 836.586 59.9619 841.583 Q54.9967 846.548 46.5303 846.548 Q37.7774 846.548 32.6531 841.838 Q27.4968 837.095 27.4968 829.074 Q27.4968 821.881 32.1438 817.712 Q36.7589 813.51 44.7161 813.51 M42.9973 819.367 Q38.1912 819.43 35.3266 822.072 Q32.4621 824.682 32.4621 829.011 Q32.4621 833.912 35.2312 836.872 Q38.0002 839.801 43.0292 840.246 L42.9973 819.367 Z" fill="#000000" fill-rule="evenodd" fill-opacity="1" /><path clip-path="url(#clip230)" d="M46.212 800.397 Q52.6732 800.397 56.3653 797.755 Q60.0256 795.081 60.0256 790.434 Q60.0256 785.788 56.3653 783.114 Q52.6732 780.44 46.212 780.44 Q39.7508 780.44 36.0905 783.114 Q32.3984 785.788 32.3984 790.434 Q32.3984 795.081 36.0905 797.755 Q39.7508 800.397 46.212 800.397 M58.657 780.44 Q61.8398 782.286 63.3994 785.119 Q64.9272 787.92 64.9272 791.867 Q64.9272 798.328 59.771 802.402 Q54.6147 806.444 46.212 806.444 Q37.8093 806.444 32.6531 802.402 Q27.4968 798.328 27.4968 791.867 Q27.4968 787.92 29.0564 785.119 Q30.5842 782.286 33.7671 780.44 L28.3562 780.44 L28.3562 774.584 L77.5631 774.584 L77.5631 780.44 L58.657 780.44 Z" fill="#000000" fill-rule="evenodd" fill-opacity="1" /><path clip-path="url(#clip230)" d="M49.9359 763.126 L28.3562 763.126 L28.3562 757.269 L49.7131 757.269 Q54.7739 757.269 57.3202 755.296 Q59.8346 753.322 59.8346 749.376 Q59.8346 744.633 56.8109 741.896 Q53.7872 739.127 48.5673 739.127 L28.3562 739.127 L28.3562 733.27 L64.0042 733.27 L64.0042 739.127 L58.5296 739.127 Q61.7762 741.259 63.3676 744.092 Q64.9272 746.893 64.9272 750.617 Q64.9272 756.76 61.1078 759.943 Q57.2883 763.126 49.9359 763.126 M27.4968 748.389 L27.4968 748.389 Z" fill="#000000" fill-rule="evenodd" fill-opacity="1" /><path clip-path="url(#clip230)" d="M44.7161 690.716 L47.5806 690.716 L47.5806 717.643 Q53.6281 717.261 56.8109 714.014 Q59.9619 710.736 59.9619 704.911 Q59.9619 701.537 59.1344 698.386 Q58.3069 695.204 56.6518 692.084 L62.1899 692.084 Q63.5267 695.235 64.227 698.545 Q64.9272 701.856 64.9272 705.261 Q64.9272 713.791 59.9619 718.788 Q54.9967 723.754 46.5303 723.754 Q37.7774 723.754 32.6531 719.043 Q27.4968 714.301 27.4968 706.28 Q27.4968 699.087 32.1438 694.917 Q36.7589 690.716 44.7161 690.716 M42.9973 696.572 Q38.1912 696.636 35.3266 699.278 Q32.4621 701.887 32.4621 706.216 Q32.4621 711.118 35.2312 714.078 Q38.0002 717.006 43.0292 717.452 L42.9973 696.572 Z" fill="#000000" fill-rule="evenodd" fill-opacity="1" /><path clip-path="url(#clip230)" d="M42.4881 651.471 L64.0042 651.471 L64.0042 657.328 L42.679 657.328 Q37.6183 657.328 35.1038 659.301 Q32.5894 661.274 32.5894 665.221 Q32.5894 669.963 35.6131 672.701 Q38.6368 675.438 43.8567 675.438 L64.0042 675.438 L64.0042 681.326 L28.3562 681.326 L28.3562 675.438 L33.8944 675.438 Q30.6797 673.337 29.0883 670.505 Q27.4968 667.64 27.4968 663.916 Q27.4968 657.773 31.3163 654.622 Q35.1038 651.471 42.4881 651.471 Z" fill="#000000" fill-rule="evenodd" fill-opacity="1" /><path clip-path="url(#clip230)" d="M29.7248 614.136 L35.1993 614.136 Q33.8307 616.619 33.1623 619.133 Q32.4621 621.616 32.4621 624.162 Q32.4621 629.86 36.0905 633.011 Q39.6872 636.162 46.212 636.162 Q52.7369 636.162 56.3653 633.011 Q59.9619 629.86 59.9619 624.162 Q59.9619 621.616 59.2935 619.133 Q58.5933 616.619 57.2247 614.136 L62.6355 614.136 Q63.7814 616.587 64.3543 619.229 Q64.9272 621.839 64.9272 624.799 Q64.9272 632.851 59.8664 637.594 Q54.8057 642.336 46.212 642.336 Q37.491 642.336 32.4939 637.562 Q27.4968 632.756 27.4968 624.417 Q27.4968 621.711 28.0697 619.133 Q28.6108 616.555 29.7248 614.136 Z" fill="#000000" fill-rule="evenodd" fill-opacity="1" /><path clip-path="url(#clip230)" d="M67.3143 589.119 Q73.68 591.602 75.6216 593.957 Q77.5631 596.312 77.5631 600.259 L77.5631 604.938 L72.6615 604.938 L72.6615 601.5 Q72.6615 599.081 71.5157 597.745 Q70.3699 596.408 66.1048 594.784 L63.4312 593.734 L28.3562 608.152 L28.3562 601.946 L56.238 590.806 L28.3562 579.666 L28.3562 573.459 L67.3143 589.119 Z" fill="#000000" fill-rule="evenodd" fill-opacity="1" /><polyline clip-path="url(#clip232)" style="stroke:#009af9; stroke-linecap:butt; stroke-linejoin:round; stroke-width:8; stroke-opacity:1; fill:none" points="
  309.067,1324.13 329.109,1217.92 349.151,1110.88 369.193,998.075 389.235,910.797 409.277,801.288 429.319,734.594 449.361,613.146 469.403,548.923 489.446,455.47 
  509.488,404.832 529.53,317.143 549.572,237.687 569.614,238.099 589.656,177.992 609.698,163.171 629.74,122.826 649.782,96.4779 669.824,96.8896 689.866,86.1857 
  709.908,87.8324 729.95,118.297 749.992,98.1246 770.034,152.879 790.076,161.525 810.118,192.813 830.161,247.979 850.203,261.976 870.245,345.549 890.287,368.604 
  910.329,450.941 930.371,460.822 950.413,507.754 970.455,559.215 990.497,628.791 1010.54,661.314 1030.58,699.601 1050.62,774.116 1070.67,814.462 1090.71,838.752 
  1110.75,880.744 1130.79,938.38 1150.83,971.727 1170.88,1013.72 1190.92,1012.07 1210.96,1065.18 1231,1108.41 1251.04,1110.88 1271.09,1167.69 1291.13,1169.75 
  1311.17,1201.04 1331.21,1222.86 1351.25,1227.39 1371.3,1253.73 1391.34,1273.91 1411.38,1280.49 1431.42,1292.43 1451.46,1304.37 1471.51,1315.49 1491.55,1328.25 
  1511.59,1327.43 1531.63,1346.77 1551.67,1345.95 1571.72,1358.3 1591.76,1358.71 1611.8,1358.71 1631.84,1361.6 1651.89,1369.01 1671.93,1367.36 1691.97,1367.77 
  1712.01,1374.77 1732.05,1377.65 1752.1,1373.12 1772.14,1378.06 1792.18,1380.12 1812.22,1382.59 1832.26,1381.36 1852.31,1382.59 1872.35,1382.18 1892.39,1381.77 
  1912.43,1382.18 1932.47,1381.77 1952.52,1383.83 1972.56,1383.41 1992.6,1383.41 2012.64,1382.59 2032.68,1383 2052.73,1383.41 2072.77,1384.24 2092.81,1383.83 
  2112.85,1384.24 2132.89,1384.24 2152.94,1383.83 2172.98,1384.24 2193.02,1383.83 2213.06,1383.83 2233.1,1384.24 2253.15,1384.24 2273.19,1384.24 2293.23,1384.24 
  
  "/>
<polyline clip-path="url(#clip232)" style="stroke:#e26f46; stroke-linecap:butt; stroke-linejoin:round; stroke-width:8; stroke-opacity:1; fill:none" points="
  309.067,545.218 329.109,524.222 349.151,505.696 369.193,530.397 389.235,492.934 409.277,518.87 429.319,489.228 449.361,507.754 469.403,485.935 489.446,541.924 
  509.488,527.515 529.53,533.691 549.572,537.808 569.614,501.167 589.656,522.163 609.698,529.985 629.74,532.456 649.782,507.343 669.824,509.813 689.866,522.987 
  709.908,518.046 729.95,520.105 749.992,506.108 770.034,493.345 790.076,520.928 810.118,520.517 830.161,514.341 850.203,524.222 870.245,500.756 890.287,506.108 
  910.329,546.041 930.371,532.867 950.413,508.989 970.455,510.636 990.497,487.993 1010.54,531.221 1030.58,487.17 1050.62,511.048 1070.67,513.518 1090.71,507.754 
  1110.75,513.93 1130.79,487.582 1150.83,526.28 1170.88,511.459 1190.92,506.519 1210.96,530.809 1231,525.457 1251.04,1043.77 1271.09,1384.24 1291.13,1384.24 
  1311.17,1384.24 1331.21,1384.24 1351.25,1384.24 1371.3,1384.24 1391.34,1384.24 1411.38,1384.24 1431.42,1384.24 1451.46,1384.24 1471.51,1384.24 1491.55,1384.24 
  1511.59,1384.24 1531.63,1384.24 1551.67,1384.24 1571.72,1384.24 1591.76,1384.24 1611.8,1384.24 1631.84,1384.24 1651.89,1384.24 1671.93,1384.24 1691.97,1384.24 
  1712.01,1384.24 1732.05,1384.24 1752.1,1384.24 1772.14,1384.24 1792.18,1384.24 1812.22,1384.24 1832.26,1384.24 1852.31,1384.24 1872.35,1384.24 1892.39,1384.24 
  1912.43,1384.24 1932.47,1384.24 1952.52,1384.24 1972.56,1384.24 1992.6,1384.24 2012.64,1384.24 2032.68,1384.24 2052.73,1384.24 2072.77,1384.24 2092.81,1384.24 
  2112.85,1384.24 2132.89,1384.24 2152.94,1384.24 2172.98,1384.24 2193.02,1384.24 2213.06,1384.24 2233.1,1384.24 2253.15,1384.24 2273.19,1384.24 2293.23,1384.24 
  
  "/>
<path clip-path="url(#clip230)" d="
M1886.53 274.549 L2282.65 274.549 L2282.65 93.1086 L1886.53 93.1086  Z
  " fill="#ffffff" fill-rule="evenodd" fill-opacity="1"/>
<polyline clip-path="url(#clip230)" style="stroke:#000000; stroke-linecap:butt; stroke-linejoin:round; stroke-width:4; stroke-opacity:1; fill:none" points="
  1886.53,274.549 2282.65,274.549 2282.65,93.1086 1886.53,93.1086 1886.53,274.549 
  "/>
<polyline clip-path="url(#clip230)" style="stroke:#009af9; stroke-linecap:butt; stroke-linejoin:round; stroke-width:4; stroke-opacity:1; fill:none" points="
  1909.9,153.589 2050.11,153.589 
  "/>
<path clip-path="url(#clip230)" d="M2073.48 136.309 L2079.78 136.309 L2095.1 165.221 L2095.1 136.309 L2099.64 136.309 L2099.64 170.869 L2093.34 170.869 L2078.02 141.957 L2078.02 170.869 L2073.48 170.869 L2073.48 136.309 Z" fill="#000000" fill-rule="evenodd" fill-opacity="1" /><path clip-path="url(#clip230)" d="M2118.8 147.929 Q2115.38 147.929 2113.39 150.614 Q2111.4 153.276 2111.4 157.929 Q2111.4 162.582 2113.37 165.267 Q2115.36 167.929 2118.8 167.929 Q2122.21 167.929 2124.2 165.244 Q2126.19 162.558 2126.19 157.929 Q2126.19 153.322 2124.2 150.637 Q2122.21 147.929 2118.8 147.929 M2118.8 144.318 Q2124.36 144.318 2127.53 147.929 Q2130.7 151.54 2130.7 157.929 Q2130.7 164.295 2127.53 167.929 Q2124.36 171.54 2118.8 171.54 Q2113.23 171.54 2110.05 167.929 Q2106.91 164.295 2106.91 157.929 Q2106.91 151.54 2110.05 147.929 Q2113.23 144.318 2118.8 144.318 Z" fill="#000000" fill-rule="evenodd" fill-opacity="1" /><path clip-path="url(#clip230)" d="M2152.79 148.924 Q2152.07 148.508 2151.21 148.322 Q2150.38 148.114 2149.36 148.114 Q2145.75 148.114 2143.8 150.475 Q2141.88 152.813 2141.88 157.211 L2141.88 170.869 L2137.6 170.869 L2137.6 144.943 L2141.88 144.943 L2141.88 148.971 Q2143.23 146.609 2145.38 145.475 Q2147.53 144.318 2150.61 144.318 Q2151.05 144.318 2151.58 144.387 Q2152.11 144.434 2152.76 144.549 L2152.79 148.924 Z" fill="#000000" fill-rule="evenodd" fill-opacity="1" /><path clip-path="url(#clip230)" d="M2176.61 149.92 Q2178.2 147.049 2180.42 145.684 Q2182.65 144.318 2185.66 144.318 Q2189.71 144.318 2191.91 147.165 Q2194.11 149.989 2194.11 155.221 L2194.11 170.869 L2189.82 170.869 L2189.82 155.359 Q2189.82 151.633 2188.5 149.827 Q2187.18 148.022 2184.48 148.022 Q2181.17 148.022 2179.24 150.221 Q2177.32 152.42 2177.32 156.216 L2177.32 170.869 L2173.04 170.869 L2173.04 155.359 Q2173.04 151.609 2171.72 149.827 Q2170.4 148.022 2167.65 148.022 Q2164.38 148.022 2162.46 150.244 Q2160.54 152.443 2160.54 156.216 L2160.54 170.869 L2156.26 170.869 L2156.26 144.943 L2160.54 144.943 L2160.54 148.971 Q2162 146.586 2164.04 145.452 Q2166.07 144.318 2168.87 144.318 Q2171.7 144.318 2173.67 145.753 Q2175.66 147.188 2176.61 149.92 Z" fill="#000000" fill-rule="evenodd" fill-opacity="1" /><path clip-path="url(#clip230)" d="M2214.38 157.836 Q2209.22 157.836 2207.23 159.017 Q2205.24 160.197 2205.24 163.045 Q2205.24 165.313 2206.72 166.656 Q2208.23 167.975 2210.8 167.975 Q2214.34 167.975 2216.47 165.475 Q2218.62 162.952 2218.62 158.785 L2218.62 157.836 L2214.38 157.836 M2222.88 156.077 L2222.88 170.869 L2218.62 170.869 L2218.62 166.933 Q2217.16 169.295 2214.98 170.429 Q2212.81 171.54 2209.66 171.54 Q2205.68 171.54 2203.32 169.318 Q2200.98 167.072 2200.98 163.322 Q2200.98 158.947 2203.9 156.725 Q2206.84 154.503 2212.65 154.503 L2218.62 154.503 L2218.62 154.086 Q2218.62 151.147 2216.67 149.549 Q2214.75 147.929 2211.26 147.929 Q2209.04 147.929 2206.93 148.461 Q2204.82 148.994 2202.88 150.059 L2202.88 146.123 Q2205.22 145.221 2207.42 144.781 Q2209.61 144.318 2211.7 144.318 Q2217.32 144.318 2220.1 147.234 Q2222.88 150.151 2222.88 156.077 Z" fill="#000000" fill-rule="evenodd" fill-opacity="1" /><path clip-path="url(#clip230)" d="M2231.65 134.85 L2235.91 134.85 L2235.91 170.869 L2231.65 170.869 L2231.65 134.85 Z" fill="#000000" fill-rule="evenodd" fill-opacity="1" /><polyline clip-path="url(#clip230)" style="stroke:#e26f46; stroke-linecap:butt; stroke-linejoin:round; stroke-width:4; stroke-opacity:1; fill:none" points="
  1909.9,214.069 2050.11,214.069 
  "/>
<path clip-path="url(#clip230)" d="M2073.48 196.789 L2093.34 196.789 L2093.34 200.724 L2078.16 200.724 L2078.16 210.909 L2091.86 210.909 L2091.86 214.844 L2078.16 214.844 L2078.16 231.349 L2073.48 231.349 L2073.48 196.789 Z" fill="#000000" fill-rule="evenodd" fill-opacity="1" /><path clip-path="url(#clip230)" d="M2100.56 195.33 L2104.82 195.33 L2104.82 231.349 L2100.56 231.349 L2100.56 195.33 Z" fill="#000000" fill-rule="evenodd" fill-opacity="1" /><path clip-path="url(#clip230)" d="M2125.52 218.316 Q2120.36 218.316 2118.37 219.497 Q2116.37 220.677 2116.37 223.525 Q2116.37 225.793 2117.86 227.136 Q2119.36 228.455 2121.93 228.455 Q2125.47 228.455 2127.6 225.955 Q2129.75 223.432 2129.75 219.265 L2129.75 218.316 L2125.52 218.316 M2134.01 216.557 L2134.01 231.349 L2129.75 231.349 L2129.75 227.413 Q2128.3 229.775 2126.12 230.909 Q2123.94 232.02 2120.8 232.02 Q2116.81 232.02 2114.45 229.798 Q2112.12 227.552 2112.12 223.802 Q2112.12 219.427 2115.03 217.205 Q2117.97 214.983 2123.78 214.983 L2129.75 214.983 L2129.75 214.566 Q2129.75 211.627 2127.81 210.029 Q2125.89 208.409 2122.39 208.409 Q2120.17 208.409 2118.06 208.941 Q2115.96 209.474 2114.01 210.539 L2114.01 206.603 Q2116.35 205.701 2118.55 205.261 Q2120.75 204.798 2122.83 204.798 Q2128.46 204.798 2131.24 207.714 Q2134.01 210.631 2134.01 216.557 Z" fill="#000000" fill-rule="evenodd" fill-opacity="1" /><path clip-path="url(#clip230)" d="M2147 198.062 L2147 205.423 L2155.77 205.423 L2155.77 208.733 L2147 208.733 L2147 222.807 Q2147 225.978 2147.86 226.881 Q2148.74 227.784 2151.4 227.784 L2155.77 227.784 L2155.77 231.349 L2151.4 231.349 Q2146.47 231.349 2144.59 229.52 Q2142.72 227.668 2142.72 222.807 L2142.72 208.733 L2139.59 208.733 L2139.59 205.423 L2142.72 205.423 L2142.72 198.062 L2147 198.062 Z" fill="#000000" fill-rule="evenodd" fill-opacity="1" /></svg>
