<?xml version="1.0" encoding="utf-8"?>
<svg xmlns="http://www.w3.org/2000/svg" xmlns:xlink="http://www.w3.org/1999/xlink" width="600" height="400" viewBox="0 0 2400 1600">
<defs>
  <clipPath id="clip260">
    <rect x="0" y="0" width="2400" height="1600"/>
  </clipPath>
</defs>
<path clip-path="url(#clip260)" d="
M0 1600 L2400 1600 L2400 0 L0 0  Z
  " fill="#ffffff" fill-rule="evenodd" fill-opacity="1"/>
<defs>
  <clipPath id="clip261">
    <rect x="480" y="0" width="1681" height="1600"/>
  </clipPath>
</defs>
<path clip-path="url(#clip260)" d="
M249.542 1423.18 L2352.76 1423.18 L2352.76 47.2441 L249.542 47.2441  Z
  " fill="#ffffff" fill-rule="evenodd" fill-opacity="1"/>
<defs>
  <clipPath id="clip262">
    <rect x="249" y="47" width="2104" height="1377"/>
  </clipPath>
</defs>
<polyline clip-path="url(#clip262)" style="stroke:#000000; stroke-linecap:butt; stroke-linejoin:round; stroke-width:2; stroke-opacity:0.1; fill:none" points="
  299.046,1423.18 299.046,47.2441 
  "/>
<polyline clip-path="url(#clip262)" style="stroke:#000000; stroke-linecap:butt; stroke-linejoin:round; stroke-width:2; stroke-opacity:0.1; fill:none" points="
  800.097,1423.18 800.097,47.2441 
  "/>
<polyline clip-path="url(#clip262)" style="stroke:#000000; stroke-linecap:butt; stroke-linejoin:round; stroke-width:2; stroke-opacity:0.1; fill:none" points="
  1301.15,1423.18 1301.15,47.2441 
  "/>
<polyline clip-path="url(#clip262)" style="stroke:#000000; stroke-linecap:butt; stroke-linejoin:round; stroke-width:2; stroke-opacity:0.1; fill:none" points="
  1802.2,1423.18 1802.2,47.2441 
  "/>
<polyline clip-path="url(#clip262)" style="stroke:#000000; stroke-linecap:butt; stroke-linejoin:round; stroke-width:2; stroke-opacity:0.1; fill:none" points="
  2303.25,1423.18 2303.25,47.2441 
  "/>
<polyline clip-path="url(#clip260)" style="stroke:#000000; stroke-linecap:butt; stroke-linejoin:round; stroke-width:4; stroke-opacity:1; fill:none" points="
  249.542,1423.18 2352.76,1423.18 
  "/>
<polyline clip-path="url(#clip260)" style="stroke:#000000; stroke-linecap:butt; stroke-linejoin:round; stroke-width:4; stroke-opacity:1; fill:none" points="
  299.046,1423.18 299.046,1406.67 
  "/>
<polyline clip-path="url(#clip260)" style="stroke:#000000; stroke-linecap:butt; stroke-linejoin:round; stroke-width:4; stroke-opacity:1; fill:none" points="
  800.097,1423.18 800.097,1406.67 
  "/>
<polyline clip-path="url(#clip260)" style="stroke:#000000; stroke-linecap:butt; stroke-linejoin:round; stroke-width:4; stroke-opacity:1; fill:none" points="
  1301.15,1423.18 1301.15,1406.67 
  "/>
<polyline clip-path="url(#clip260)" style="stroke:#000000; stroke-linecap:butt; stroke-linejoin:round; stroke-width:4; stroke-opacity:1; fill:none" points="
  1802.2,1423.18 1802.2,1406.67 
  "/>
<polyline clip-path="url(#clip260)" style="stroke:#000000; stroke-linecap:butt; stroke-linejoin:round; stroke-width:4; stroke-opacity:1; fill:none" points="
  2303.25,1423.18 2303.25,1406.67 
  "/>
<path clip-path="url(#clip260)" d="M276.43 1452.37 Q272.819 1452.37 270.991 1455.94 Q269.185 1459.48 269.185 1466.61 Q269.185 1473.71 270.991 1477.28 Q272.819 1480.82 276.43 1480.82 Q280.065 1480.82 281.87 1477.28 Q283.699 1473.71 283.699 1466.61 Q283.699 1459.48 281.87 1455.94 Q280.065 1452.37 276.43 1452.37 M276.43 1448.67 Q282.24 1448.67 285.296 1453.27 Q288.375 1457.86 288.375 1466.61 Q288.375 1475.33 285.296 1479.94 Q282.24 1484.52 276.43 1484.52 Q270.62 1484.52 267.541 1479.94 Q264.486 1475.33 264.486 1466.61 Q264.486 1457.86 267.541 1453.27 Q270.62 1448.67 276.43 1448.67 Z" fill="#000000" fill-rule="evenodd" fill-opacity="1" /><path clip-path="url(#clip260)" d="M296.592 1477.97 L301.476 1477.97 L301.476 1483.85 L296.592 1483.85 L296.592 1477.97 Z" fill="#000000" fill-rule="evenodd" fill-opacity="1" /><path clip-path="url(#clip260)" d="M321.662 1452.37 Q318.05 1452.37 316.222 1455.94 Q314.416 1459.48 314.416 1466.61 Q314.416 1473.71 316.222 1477.28 Q318.05 1480.82 321.662 1480.82 Q325.296 1480.82 327.101 1477.28 Q328.93 1473.71 328.93 1466.61 Q328.93 1459.48 327.101 1455.94 Q325.296 1452.37 321.662 1452.37 M321.662 1448.67 Q327.472 1448.67 330.527 1453.27 Q333.606 1457.86 333.606 1466.61 Q333.606 1475.33 330.527 1479.94 Q327.472 1484.52 321.662 1484.52 Q315.851 1484.52 312.773 1479.94 Q309.717 1475.33 309.717 1466.61 Q309.717 1457.86 312.773 1453.27 Q315.851 1448.67 321.662 1448.67 Z" fill="#000000" fill-rule="evenodd" fill-opacity="1" /><path clip-path="url(#clip260)" d="M777.98 1452.37 Q774.368 1452.37 772.54 1455.94 Q770.734 1459.48 770.734 1466.61 Q770.734 1473.71 772.54 1477.28 Q774.368 1480.82 777.98 1480.82 Q781.614 1480.82 783.419 1477.28 Q785.248 1473.71 785.248 1466.61 Q785.248 1459.48 783.419 1455.94 Q781.614 1452.37 777.98 1452.37 M777.98 1448.67 Q783.79 1448.67 786.845 1453.27 Q789.924 1457.86 789.924 1466.61 Q789.924 1475.33 786.845 1479.94 Q783.79 1484.52 777.98 1484.52 Q772.169 1484.52 769.091 1479.94 Q766.035 1475.33 766.035 1466.61 Q766.035 1457.86 769.091 1453.27 Q772.169 1448.67 777.98 1448.67 Z" fill="#000000" fill-rule="evenodd" fill-opacity="1" /><path clip-path="url(#clip260)" d="M798.141 1477.97 L803.026 1477.97 L803.026 1483.85 L798.141 1483.85 L798.141 1477.97 Z" fill="#000000" fill-rule="evenodd" fill-opacity="1" /><path clip-path="url(#clip260)" d="M813.257 1449.29 L831.613 1449.29 L831.613 1453.23 L817.539 1453.23 L817.539 1461.7 Q818.558 1461.35 819.577 1461.19 Q820.595 1461 821.614 1461 Q827.401 1461 830.78 1464.18 Q834.16 1467.35 834.16 1472.76 Q834.16 1478.34 830.688 1481.44 Q827.215 1484.52 820.896 1484.52 Q818.72 1484.52 816.452 1484.15 Q814.206 1483.78 811.799 1483.04 L811.799 1478.34 Q813.882 1479.48 816.104 1480.03 Q818.327 1480.59 820.803 1480.59 Q824.808 1480.59 827.146 1478.48 Q829.484 1476.38 829.484 1472.76 Q829.484 1469.15 827.146 1467.05 Q824.808 1464.94 820.803 1464.94 Q818.928 1464.94 817.053 1465.36 Q815.202 1465.77 813.257 1466.65 L813.257 1449.29 Z" fill="#000000" fill-rule="evenodd" fill-opacity="1" /><path clip-path="url(#clip260)" d="M1268.3 1479.92 L1275.94 1479.92 L1275.94 1453.55 L1267.63 1455.22 L1267.63 1450.96 L1275.89 1449.29 L1280.57 1449.29 L1280.57 1479.92 L1288.21 1479.92 L1288.21 1483.85 L1268.3 1483.85 L1268.3 1479.92 Z" fill="#000000" fill-rule="evenodd" fill-opacity="1" /><path clip-path="url(#clip260)" d="M1297.65 1477.97 L1302.54 1477.97 L1302.54 1483.85 L1297.65 1483.85 L1297.65 1477.97 Z" fill="#000000" fill-rule="evenodd" fill-opacity="1" /><path clip-path="url(#clip260)" d="M1322.72 1452.37 Q1319.11 1452.37 1317.28 1455.94 Q1315.48 1459.48 1315.48 1466.61 Q1315.48 1473.71 1317.28 1477.28 Q1319.11 1480.82 1322.72 1480.82 Q1326.36 1480.82 1328.16 1477.28 Q1329.99 1473.71 1329.99 1466.61 Q1329.99 1459.48 1328.16 1455.94 Q1326.36 1452.37 1322.72 1452.37 M1322.72 1448.67 Q1328.53 1448.67 1331.59 1453.27 Q1334.67 1457.86 1334.67 1466.61 Q1334.67 1475.33 1331.59 1479.94 Q1328.53 1484.52 1322.72 1484.52 Q1316.91 1484.52 1313.83 1479.94 Q1310.78 1475.33 1310.78 1466.61 Q1310.78 1457.86 1313.83 1453.27 Q1316.91 1448.67 1322.72 1448.67 Z" fill="#000000" fill-rule="evenodd" fill-opacity="1" /><path clip-path="url(#clip260)" d="M1769.85 1479.92 L1777.49 1479.92 L1777.49 1453.55 L1769.18 1455.22 L1769.18 1450.96 L1777.44 1449.29 L1782.12 1449.29 L1782.12 1479.92 L1789.76 1479.92 L1789.76 1483.85 L1769.85 1483.85 L1769.85 1479.92 Z" fill="#000000" fill-rule="evenodd" fill-opacity="1" /><path clip-path="url(#clip260)" d="M1799.2 1477.97 L1804.09 1477.97 L1804.09 1483.85 L1799.2 1483.85 L1799.2 1477.97 Z" fill="#000000" fill-rule="evenodd" fill-opacity="1" /><path clip-path="url(#clip260)" d="M1814.32 1449.29 L1832.67 1449.29 L1832.67 1453.23 L1818.6 1453.23 L1818.6 1461.7 Q1819.62 1461.35 1820.64 1461.19 Q1821.66 1461 1822.67 1461 Q1828.46 1461 1831.84 1464.18 Q1835.22 1467.35 1835.22 1472.76 Q1835.22 1478.34 1831.75 1481.44 Q1828.28 1484.52 1821.96 1484.52 Q1819.78 1484.52 1817.51 1484.15 Q1815.27 1483.78 1812.86 1483.04 L1812.86 1478.34 Q1814.94 1479.48 1817.17 1480.03 Q1819.39 1480.59 1821.86 1480.59 Q1825.87 1480.59 1828.21 1478.48 Q1830.55 1476.38 1830.55 1472.76 Q1830.55 1469.15 1828.21 1467.05 Q1825.87 1464.94 1821.86 1464.94 Q1819.99 1464.94 1818.11 1465.36 Q1816.26 1465.77 1814.32 1466.65 L1814.32 1449.29 Z" fill="#000000" fill-rule="evenodd" fill-opacity="1" /><path clip-path="url(#clip260)" d="M2274.49 1479.92 L2290.81 1479.92 L2290.81 1483.85 L2268.87 1483.85 L2268.87 1479.92 Q2271.53 1477.16 2276.11 1472.53 Q2280.72 1467.88 2281.9 1466.54 Q2284.14 1464.01 2285.02 1462.28 Q2285.93 1460.52 2285.93 1458.83 Q2285.93 1456.07 2283.98 1454.34 Q2282.06 1452.6 2278.96 1452.6 Q2276.76 1452.6 2274.31 1453.37 Q2271.87 1454.13 2269.1 1455.68 L2269.1 1450.96 Q2271.92 1449.82 2274.37 1449.25 Q2276.83 1448.67 2278.87 1448.67 Q2284.24 1448.67 2287.43 1451.35 Q2290.62 1454.04 2290.62 1458.53 Q2290.62 1460.66 2289.81 1462.58 Q2289.03 1464.48 2286.92 1467.07 Q2286.34 1467.74 2283.24 1470.96 Q2280.14 1474.15 2274.49 1479.92 Z" fill="#000000" fill-rule="evenodd" fill-opacity="1" /><path clip-path="url(#clip260)" d="M2300.62 1477.97 L2305.51 1477.97 L2305.51 1483.85 L2300.62 1483.85 L2300.62 1477.97 Z" fill="#000000" fill-rule="evenodd" fill-opacity="1" /><path clip-path="url(#clip260)" d="M2325.69 1452.37 Q2322.08 1452.37 2320.25 1455.94 Q2318.45 1459.48 2318.45 1466.61 Q2318.45 1473.71 2320.25 1477.28 Q2322.08 1480.82 2325.69 1480.82 Q2329.33 1480.82 2331.13 1477.28 Q2332.96 1473.71 2332.96 1466.61 Q2332.96 1459.48 2331.13 1455.94 Q2329.33 1452.37 2325.69 1452.37 M2325.69 1448.67 Q2331.5 1448.67 2334.56 1453.27 Q2337.64 1457.86 2337.64 1466.61 Q2337.64 1475.33 2334.56 1479.94 Q2331.5 1484.52 2325.69 1484.52 Q2319.88 1484.52 2316.81 1479.94 Q2313.75 1475.33 2313.75 1466.61 Q2313.75 1457.86 2316.81 1453.27 Q2319.88 1448.67 2325.69 1448.67 Z" fill="#000000" fill-rule="evenodd" fill-opacity="1" /><path clip-path="url(#clip260)" d="M1081.98 1532.4 L1088.18 1532.4 L1099.32 1562.31 L1110.46 1532.4 L1116.67 1532.4 L1103.3 1568.04 L1095.35 1568.04 L1081.98 1532.4 Z" fill="#000000" fill-rule="evenodd" fill-opacity="1" /><path clip-path="url(#clip260)" d="M1155.25 1548.76 L1155.25 1551.62 L1128.32 1551.62 Q1128.7 1557.67 1131.95 1560.85 Q1135.23 1564 1141.05 1564 Q1144.43 1564 1147.58 1563.17 Q1150.76 1562.35 1153.88 1560.69 L1153.88 1566.23 Q1150.73 1567.57 1147.42 1568.27 Q1144.11 1568.97 1140.7 1568.97 Q1132.17 1568.97 1127.17 1564 Q1122.21 1559.04 1122.21 1550.57 Q1122.21 1541.82 1126.92 1536.69 Q1131.66 1531.54 1139.68 1531.54 Q1146.88 1531.54 1151.05 1536.18 Q1155.25 1540.8 1155.25 1548.76 M1149.39 1547.04 Q1149.33 1542.23 1146.69 1539.37 Q1144.08 1536.5 1139.75 1536.5 Q1134.84 1536.5 1131.88 1539.27 Q1128.96 1542.04 1128.51 1547.07 L1149.39 1547.04 Z" fill="#000000" fill-rule="evenodd" fill-opacity="1" /><path clip-path="url(#clip260)" d="M1164.86 1518.52 L1170.72 1518.52 L1170.72 1568.04 L1164.86 1568.04 L1164.86 1518.52 Z" fill="#000000" fill-rule="evenodd" fill-opacity="1" /><path clip-path="url(#clip260)" d="M1196.78 1536.5 Q1192.07 1536.5 1189.34 1540.19 Q1186.6 1543.85 1186.6 1550.25 Q1186.6 1556.65 1189.3 1560.34 Q1192.04 1564 1196.78 1564 Q1201.46 1564 1204.2 1560.31 Q1206.94 1556.62 1206.94 1550.25 Q1206.94 1543.92 1204.2 1540.23 Q1201.46 1536.5 1196.78 1536.5 M1196.78 1531.54 Q1204.42 1531.54 1208.78 1536.5 Q1213.14 1541.47 1213.14 1550.25 Q1213.14 1559 1208.78 1564 Q1204.42 1568.97 1196.78 1568.97 Q1189.11 1568.97 1184.75 1564 Q1180.42 1559 1180.42 1550.25 Q1180.42 1541.47 1184.75 1536.5 Q1189.11 1531.54 1196.78 1531.54 Z" fill="#000000" fill-rule="evenodd" fill-opacity="1" /><path clip-path="url(#clip260)" d="M1248.5 1533.76 L1248.5 1539.24 Q1246.02 1537.87 1243.51 1537.2 Q1241.02 1536.5 1238.48 1536.5 Q1232.78 1536.5 1229.63 1540.13 Q1226.48 1543.73 1226.48 1550.25 Q1226.48 1556.78 1229.63 1560.4 Q1232.78 1564 1238.48 1564 Q1241.02 1564 1243.51 1563.33 Q1246.02 1562.63 1248.5 1561.26 L1248.5 1566.68 Q1246.05 1567.82 1243.41 1568.39 Q1240.8 1568.97 1237.84 1568.97 Q1229.79 1568.97 1225.05 1563.91 Q1220.3 1558.85 1220.3 1550.25 Q1220.3 1541.53 1225.08 1536.53 Q1229.88 1531.54 1238.22 1531.54 Q1240.93 1531.54 1243.51 1532.11 Q1246.09 1532.65 1248.5 1533.76 Z" fill="#000000" fill-rule="evenodd" fill-opacity="1" /><path clip-path="url(#clip260)" d="M1258.69 1532.4 L1264.55 1532.4 L1264.55 1568.04 L1258.69 1568.04 L1258.69 1532.4 M1258.69 1518.52 L1264.55 1518.52 L1264.55 1525.93 L1258.69 1525.93 L1258.69 1518.52 Z" fill="#000000" fill-rule="evenodd" fill-opacity="1" /><path clip-path="url(#clip260)" d="M1282.59 1522.27 L1282.59 1532.4 L1294.66 1532.4 L1294.66 1536.95 L1282.59 1536.95 L1282.59 1556.3 Q1282.59 1560.66 1283.77 1561.9 Q1284.98 1563.14 1288.64 1563.14 L1294.66 1563.14 L1294.66 1568.04 L1288.64 1568.04 Q1281.86 1568.04 1279.28 1565.53 Q1276.7 1562.98 1276.7 1556.3 L1276.7 1536.95 L1272.41 1536.95 L1272.41 1532.4 L1276.7 1532.4 L1276.7 1522.27 L1282.59 1522.27 Z" fill="#000000" fill-rule="evenodd" fill-opacity="1" /><path clip-path="url(#clip260)" d="M1317.19 1571.35 Q1314.71 1577.72 1312.35 1579.66 Q1310 1581.6 1306.05 1581.6 L1301.37 1581.6 L1301.37 1576.7 L1304.81 1576.7 Q1307.23 1576.7 1308.57 1575.56 Q1309.9 1574.41 1311.53 1570.14 L1312.58 1567.47 L1298.16 1532.4 L1304.36 1532.4 L1315.5 1560.28 L1326.64 1532.4 L1332.85 1532.4 L1317.19 1571.35 Z" fill="#000000" fill-rule="evenodd" fill-opacity="1" /><path clip-path="url(#clip260)" d="M1391.29 1546.53 L1391.29 1568.04 L1385.43 1568.04 L1385.43 1546.72 Q1385.43 1541.66 1383.46 1539.14 Q1381.48 1536.63 1377.54 1536.63 Q1372.79 1536.63 1370.06 1539.65 Q1367.32 1542.68 1367.32 1547.9 L1367.32 1568.04 L1361.43 1568.04 L1361.43 1532.4 L1367.32 1532.4 L1367.32 1537.93 Q1369.42 1534.72 1372.25 1533.13 Q1375.12 1531.54 1378.84 1531.54 Q1384.99 1531.54 1388.14 1535.36 Q1391.29 1539.14 1391.29 1546.53 Z" fill="#000000" fill-rule="evenodd" fill-opacity="1" /><path clip-path="url(#clip260)" d="M1416.78 1536.5 Q1412.07 1536.5 1409.33 1540.19 Q1406.6 1543.85 1406.6 1550.25 Q1406.6 1556.65 1409.3 1560.34 Q1412.04 1564 1416.78 1564 Q1421.46 1564 1424.2 1560.31 Q1426.94 1556.62 1426.94 1550.25 Q1426.94 1543.92 1424.2 1540.23 Q1421.46 1536.5 1416.78 1536.5 M1416.78 1531.54 Q1424.42 1531.54 1428.78 1536.5 Q1433.14 1541.47 1433.14 1550.25 Q1433.14 1559 1428.78 1564 Q1424.42 1568.97 1416.78 1568.97 Q1409.11 1568.97 1404.75 1564 Q1400.42 1559 1400.42 1550.25 Q1400.42 1541.47 1404.75 1536.5 Q1409.11 1531.54 1416.78 1531.54 Z" fill="#000000" fill-rule="evenodd" fill-opacity="1" /><path clip-path="url(#clip260)" d="M1463.51 1537.87 Q1462.52 1537.3 1461.34 1537.04 Q1460.2 1536.76 1458.8 1536.76 Q1453.83 1536.76 1451.16 1540 Q1448.52 1543.22 1448.52 1549.27 L1448.52 1568.04 L1442.63 1568.04 L1442.63 1532.4 L1448.52 1532.4 L1448.52 1537.93 Q1450.36 1534.69 1453.32 1533.13 Q1456.28 1531.54 1460.51 1531.54 Q1461.12 1531.54 1461.85 1531.63 Q1462.58 1531.7 1463.47 1531.85 L1463.51 1537.87 Z" fill="#000000" fill-rule="evenodd" fill-opacity="1" /><path clip-path="url(#clip260)" d="M1496.26 1539.24 Q1498.45 1535.29 1501.51 1533.41 Q1504.57 1531.54 1508.7 1531.54 Q1514.27 1531.54 1517.3 1535.45 Q1520.32 1539.33 1520.32 1546.53 L1520.32 1568.04 L1514.43 1568.04 L1514.43 1546.72 Q1514.43 1541.59 1512.62 1539.11 Q1510.8 1536.63 1507.08 1536.63 Q1502.53 1536.63 1499.89 1539.65 Q1497.24 1542.68 1497.24 1547.9 L1497.24 1568.04 L1491.36 1568.04 L1491.36 1546.72 Q1491.36 1541.56 1489.54 1539.11 Q1487.73 1536.63 1483.94 1536.63 Q1479.45 1536.63 1476.81 1539.68 Q1474.17 1542.71 1474.17 1547.9 L1474.17 1568.04 L1468.28 1568.04 L1468.28 1532.4 L1474.17 1532.4 L1474.17 1537.93 Q1476.17 1534.66 1478.97 1533.1 Q1481.78 1531.54 1485.63 1531.54 Q1489.51 1531.54 1492.22 1533.51 Q1494.95 1535.48 1496.26 1539.24 Z" fill="#000000" fill-rule="evenodd" fill-opacity="1" /><polyline clip-path="url(#clip262)" style="stroke:#000000; stroke-linecap:butt; stroke-linejoin:round; stroke-width:2; stroke-opacity:0.1; fill:none" points="
  249.542,1384.3 2352.76,1384.3 
  "/>
<polyline clip-path="url(#clip262)" style="stroke:#000000; stroke-linecap:butt; stroke-linejoin:round; stroke-width:2; stroke-opacity:0.1; fill:none" points="
  249.542,966.551 2352.76,966.551 
  "/>
<polyline clip-path="url(#clip262)" style="stroke:#000000; stroke-linecap:butt; stroke-linejoin:round; stroke-width:2; stroke-opacity:0.1; fill:none" points="
  249.542,548.8 2352.76,548.8 
  "/>
<polyline clip-path="url(#clip262)" style="stroke:#000000; stroke-linecap:butt; stroke-linejoin:round; stroke-width:2; stroke-opacity:0.1; fill:none" points="
  249.542,131.048 2352.76,131.048 
  "/>
<polyline clip-path="url(#clip260)" style="stroke:#000000; stroke-linecap:butt; stroke-linejoin:round; stroke-width:4; stroke-opacity:1; fill:none" points="
  249.542,1423.18 249.542,47.2441 
  "/>
<polyline clip-path="url(#clip260)" style="stroke:#000000; stroke-linecap:butt; stroke-linejoin:round; stroke-width:4; stroke-opacity:1; fill:none" points="
  249.542,1384.3 274.781,1384.3 
  "/>
<polyline clip-path="url(#clip260)" style="stroke:#000000; stroke-linecap:butt; stroke-linejoin:round; stroke-width:4; stroke-opacity:1; fill:none" points="
  249.542,966.551 274.781,966.551 
  "/>
<polyline clip-path="url(#clip260)" style="stroke:#000000; stroke-linecap:butt; stroke-linejoin:round; stroke-width:4; stroke-opacity:1; fill:none" points="
  249.542,548.8 274.781,548.8 
  "/>
<polyline clip-path="url(#clip260)" style="stroke:#000000; stroke-linecap:butt; stroke-linejoin:round; stroke-width:4; stroke-opacity:1; fill:none" points="
  249.542,131.048 274.781,131.048 
  "/>
<path clip-path="url(#clip260)" d="M126.205 1370.1 Q122.593 1370.1 120.765 1373.67 Q118.959 1377.21 118.959 1384.34 Q118.959 1391.44 120.765 1395.01 Q122.593 1398.55 126.205 1398.55 Q129.839 1398.55 131.644 1395.01 Q133.473 1391.44 133.473 1384.34 Q133.473 1377.21 131.644 1373.67 Q129.839 1370.1 126.205 1370.1 M126.205 1366.4 Q132.015 1366.4 135.07 1371 Q138.149 1375.59 138.149 1384.34 Q138.149 1393.06 135.07 1397.67 Q132.015 1402.25 126.205 1402.25 Q120.394 1402.25 117.316 1397.67 Q114.26 1393.06 114.26 1384.34 Q114.26 1375.59 117.316 1371 Q120.394 1366.4 126.205 1366.4 Z" fill="#000000" fill-rule="evenodd" fill-opacity="1" /><path clip-path="url(#clip260)" d="M146.366 1395.7 L151.251 1395.7 L151.251 1401.58 L146.366 1401.58 L146.366 1395.7 Z" fill="#000000" fill-rule="evenodd" fill-opacity="1" /><path clip-path="url(#clip260)" d="M171.436 1370.1 Q167.825 1370.1 165.996 1373.67 Q164.19 1377.21 164.19 1384.34 Q164.19 1391.44 165.996 1395.01 Q167.825 1398.55 171.436 1398.55 Q175.07 1398.55 176.876 1395.01 Q178.704 1391.44 178.704 1384.34 Q178.704 1377.21 176.876 1373.67 Q175.07 1370.1 171.436 1370.1 M171.436 1366.4 Q177.246 1366.4 180.301 1371 Q183.38 1375.59 183.38 1384.34 Q183.38 1393.06 180.301 1397.67 Q177.246 1402.25 171.436 1402.25 Q165.626 1402.25 162.547 1397.67 Q159.491 1393.06 159.491 1384.34 Q159.491 1375.59 162.547 1371 Q165.626 1366.4 171.436 1366.4 Z" fill="#000000" fill-rule="evenodd" fill-opacity="1" /><path clip-path="url(#clip260)" d="M201.598 1370.1 Q197.987 1370.1 196.158 1373.67 Q194.352 1377.21 194.352 1384.34 Q194.352 1391.44 196.158 1395.01 Q197.987 1398.55 201.598 1398.55 Q205.232 1398.55 207.037 1395.01 Q208.866 1391.44 208.866 1384.34 Q208.866 1377.21 207.037 1373.67 Q205.232 1370.1 201.598 1370.1 M201.598 1366.4 Q207.408 1366.4 210.463 1371 Q213.542 1375.59 213.542 1384.34 Q213.542 1393.06 210.463 1397.67 Q207.408 1402.25 201.598 1402.25 Q195.787 1402.25 192.709 1397.67 Q189.653 1393.06 189.653 1384.34 Q189.653 1375.59 192.709 1371 Q195.787 1366.4 201.598 1366.4 Z" fill="#000000" fill-rule="evenodd" fill-opacity="1" /><path clip-path="url(#clip260)" d="M127.431 952.35 Q123.82 952.35 121.992 955.915 Q120.186 959.457 120.186 966.586 Q120.186 973.693 121.992 977.257 Q123.82 980.799 127.431 980.799 Q131.066 980.799 132.871 977.257 Q134.7 973.693 134.7 966.586 Q134.7 959.457 132.871 955.915 Q131.066 952.35 127.431 952.35 M127.431 948.646 Q133.242 948.646 136.297 953.253 Q139.376 957.836 139.376 966.586 Q139.376 975.313 136.297 979.919 Q133.242 984.503 127.431 984.503 Q121.621 984.503 118.543 979.919 Q115.487 975.313 115.487 966.586 Q115.487 957.836 118.543 953.253 Q121.621 948.646 127.431 948.646 Z" fill="#000000" fill-rule="evenodd" fill-opacity="1" /><path clip-path="url(#clip260)" d="M147.593 977.952 L152.478 977.952 L152.478 983.831 L147.593 983.831 L147.593 977.952 Z" fill="#000000" fill-rule="evenodd" fill-opacity="1" /><path clip-path="url(#clip260)" d="M172.663 952.35 Q169.052 952.35 167.223 955.915 Q165.417 959.457 165.417 966.586 Q165.417 973.693 167.223 977.257 Q169.052 980.799 172.663 980.799 Q176.297 980.799 178.102 977.257 Q179.931 973.693 179.931 966.586 Q179.931 959.457 178.102 955.915 Q176.297 952.35 172.663 952.35 M172.663 948.646 Q178.473 948.646 181.528 953.253 Q184.607 957.836 184.607 966.586 Q184.607 975.313 181.528 979.919 Q178.473 984.503 172.663 984.503 Q166.852 984.503 163.774 979.919 Q160.718 975.313 160.718 966.586 Q160.718 957.836 163.774 953.253 Q166.852 948.646 172.663 948.646 Z" fill="#000000" fill-rule="evenodd" fill-opacity="1" /><path clip-path="url(#clip260)" d="M193.635 979.896 L201.274 979.896 L201.274 953.531 L192.963 955.197 L192.963 950.938 L201.227 949.271 L205.903 949.271 L205.903 979.896 L213.542 979.896 L213.542 983.831 L193.635 983.831 L193.635 979.896 Z" fill="#000000" fill-rule="evenodd" fill-opacity="1" /><path clip-path="url(#clip260)" d="M127.802 534.598 Q124.191 534.598 122.362 538.163 Q120.556 541.705 120.556 548.834 Q120.556 555.941 122.362 559.506 Q124.191 563.047 127.802 563.047 Q131.436 563.047 133.242 559.506 Q135.07 555.941 135.07 548.834 Q135.07 541.705 133.242 538.163 Q131.436 534.598 127.802 534.598 M127.802 530.895 Q133.612 530.895 136.667 535.501 Q139.746 540.084 139.746 548.834 Q139.746 557.561 136.667 562.168 Q133.612 566.751 127.802 566.751 Q121.992 566.751 118.913 562.168 Q115.857 557.561 115.857 548.834 Q115.857 540.084 118.913 535.501 Q121.992 530.895 127.802 530.895 Z" fill="#000000" fill-rule="evenodd" fill-opacity="1" /><path clip-path="url(#clip260)" d="M147.964 560.2 L152.848 560.2 L152.848 566.08 L147.964 566.08 L147.964 560.2 Z" fill="#000000" fill-rule="evenodd" fill-opacity="1" /><path clip-path="url(#clip260)" d="M173.033 534.598 Q169.422 534.598 167.593 538.163 Q165.788 541.705 165.788 548.834 Q165.788 555.941 167.593 559.506 Q169.422 563.047 173.033 563.047 Q176.667 563.047 178.473 559.506 Q180.301 555.941 180.301 548.834 Q180.301 541.705 178.473 538.163 Q176.667 534.598 173.033 534.598 M173.033 530.895 Q178.843 530.895 181.899 535.501 Q184.977 540.084 184.977 548.834 Q184.977 557.561 181.899 562.168 Q178.843 566.751 173.033 566.751 Q167.223 566.751 164.144 562.168 Q161.089 557.561 161.089 548.834 Q161.089 540.084 164.144 535.501 Q167.223 530.895 173.033 530.895 Z" fill="#000000" fill-rule="evenodd" fill-opacity="1" /><path clip-path="url(#clip260)" d="M197.223 562.144 L213.542 562.144 L213.542 566.08 L191.598 566.08 L191.598 562.144 Q194.26 559.39 198.843 554.76 Q203.449 550.107 204.63 548.765 Q206.875 546.242 207.755 544.506 Q208.658 542.746 208.658 541.057 Q208.658 538.302 206.713 536.566 Q204.792 534.83 201.69 534.83 Q199.491 534.83 197.037 535.594 Q194.607 536.358 191.829 537.908 L191.829 533.186 Q194.653 532.052 197.107 531.473 Q199.561 530.895 201.598 530.895 Q206.968 530.895 210.162 533.58 Q213.357 536.265 213.357 540.756 Q213.357 542.885 212.547 544.807 Q211.76 546.705 209.653 549.297 Q209.074 549.969 205.973 553.186 Q202.871 556.381 197.223 562.144 Z" fill="#000000" fill-rule="evenodd" fill-opacity="1" /><path clip-path="url(#clip260)" d="M126.853 116.846 Q123.242 116.846 121.413 120.411 Q119.607 123.953 119.607 131.082 Q119.607 138.189 121.413 141.754 Q123.242 145.295 126.853 145.295 Q130.487 145.295 132.292 141.754 Q134.121 138.189 134.121 131.082 Q134.121 123.953 132.292 120.411 Q130.487 116.846 126.853 116.846 M126.853 113.143 Q132.663 113.143 135.718 117.749 Q138.797 122.333 138.797 131.082 Q138.797 139.809 135.718 144.416 Q132.663 148.999 126.853 148.999 Q121.043 148.999 117.964 144.416 Q114.908 139.809 114.908 131.082 Q114.908 122.333 117.964 117.749 Q121.043 113.143 126.853 113.143 Z" fill="#000000" fill-rule="evenodd" fill-opacity="1" /><path clip-path="url(#clip260)" d="M147.015 142.448 L151.899 142.448 L151.899 148.328 L147.015 148.328 L147.015 142.448 Z" fill="#000000" fill-rule="evenodd" fill-opacity="1" /><path clip-path="url(#clip260)" d="M172.084 116.846 Q168.473 116.846 166.644 120.411 Q164.839 123.953 164.839 131.082 Q164.839 138.189 166.644 141.754 Q168.473 145.295 172.084 145.295 Q175.718 145.295 177.524 141.754 Q179.352 138.189 179.352 131.082 Q179.352 123.953 177.524 120.411 Q175.718 116.846 172.084 116.846 M172.084 113.143 Q177.894 113.143 180.95 117.749 Q184.028 122.333 184.028 131.082 Q184.028 139.809 180.95 144.416 Q177.894 148.999 172.084 148.999 Q166.274 148.999 163.195 144.416 Q160.14 139.809 160.14 131.082 Q160.14 122.333 163.195 117.749 Q166.274 113.143 172.084 113.143 Z" fill="#000000" fill-rule="evenodd" fill-opacity="1" /><path clip-path="url(#clip260)" d="M206.412 129.694 Q209.769 130.411 211.644 132.68 Q213.542 134.948 213.542 138.281 Q213.542 143.397 210.024 146.198 Q206.505 148.999 200.024 148.999 Q197.848 148.999 195.533 148.559 Q193.241 148.143 190.788 147.286 L190.788 142.772 Q192.732 143.906 195.047 144.485 Q197.362 145.064 199.885 145.064 Q204.283 145.064 206.574 143.328 Q208.889 141.592 208.889 138.281 Q208.889 135.226 206.737 133.513 Q204.607 131.777 200.787 131.777 L196.76 131.777 L196.76 127.934 L200.973 127.934 Q204.422 127.934 206.25 126.569 Q208.079 125.18 208.079 122.587 Q208.079 119.925 206.181 118.513 Q204.306 117.078 200.787 117.078 Q198.866 117.078 196.667 117.495 Q194.468 117.911 191.829 118.791 L191.829 114.624 Q194.491 113.883 196.806 113.513 Q199.144 113.143 201.204 113.143 Q206.528 113.143 209.63 115.573 Q212.732 117.981 212.732 122.101 Q212.732 124.971 211.088 126.962 Q209.445 128.93 206.412 129.694 Z" fill="#000000" fill-rule="evenodd" fill-opacity="1" /><path clip-path="url(#clip260)" d="M14.479 874.271 L19.3487 874.271 L19.3487 879.873 Q19.3487 883.024 20.6219 884.265 Q21.895 885.474 25.2052 885.474 L28.3562 885.474 L28.3562 875.83 L32.9077 875.83 L32.9077 885.474 L64.0042 885.474 L64.0042 891.363 L32.9077 891.363 L32.9077 896.965 L28.3562 896.965 L28.3562 891.363 L25.8736 891.363 Q19.9216 891.363 17.2162 888.594 Q14.479 885.825 14.479 879.809 L14.479 874.271 Z" fill="#000000" fill-rule="evenodd" fill-opacity="1" /><path clip-path="url(#clip260)" d="M33.8307 848.713 Q33.2578 849.699 33.0032 850.877 Q32.7167 852.023 32.7167 853.423 Q32.7167 858.388 35.9632 861.062 Q39.1779 863.704 45.2253 863.704 L64.0042 863.704 L64.0042 869.592 L28.3562 869.592 L28.3562 863.704 L33.8944 863.704 Q30.6479 861.858 29.0883 858.898 Q27.4968 855.938 27.4968 851.704 Q27.4968 851.1 27.5923 850.368 Q27.656 849.636 27.8151 848.744 L33.8307 848.713 Z" fill="#000000" fill-rule="evenodd" fill-opacity="1" /><path clip-path="url(#clip260)" d="M44.7161 813.51 L47.5806 813.51 L47.5806 840.437 Q53.6281 840.055 56.8109 836.809 Q59.9619 833.53 59.9619 827.706 Q59.9619 824.332 59.1344 821.181 Q58.3069 817.998 56.6518 814.879 L62.1899 814.879 Q63.5267 818.03 64.227 821.34 Q64.9272 824.65 64.9272 828.056 Q64.9272 836.586 59.9619 841.583 Q54.9967 846.548 46.5303 846.548 Q37.7774 846.548 32.6531 841.838 Q27.4968 837.095 27.4968 829.074 Q27.4968 821.881 32.1438 817.712 Q36.7589 813.51 44.7161 813.51 M42.9973 819.367 Q38.1912 819.43 35.3266 822.072 Q32.4621 824.682 32.4621 829.011 Q32.4621 833.912 35.2312 836.872 Q38.0002 839.801 43.0292 840.246 L42.9973 819.367 Z" fill="#000000" fill-rule="evenodd" fill-opacity="1" /><path clip-path="url(#clip260)" d="M46.212 800.397 Q52.6732 800.397 56.3653 797.755 Q60.0256 795.081 60.0256 790.434 Q60.0256 785.788 56.3653 783.114 Q52.6732 780.44 46.212 780.44 Q39.7508 780.44 36.0905 783.114 Q32.3984 785.788 32.3984 790.434 Q32.3984 795.081 36.0905 797.755 Q39.7508 800.397 46.212 800.397 M58.657 780.44 Q61.8398 782.286 63.3994 785.119 Q64.9272 787.92 64.9272 791.867 Q64.9272 798.328 59.771 802.402 Q54.6147 806.444 46.212 806.444 Q37.8093 806.444 32.6531 802.402 Q27.4968 798.328 27.4968 791.867 Q27.4968 787.92 29.0564 785.119 Q30.5842 782.286 33.7671 780.44 L28.3562 780.44 L28.3562 774.584 L77.5631 774.584 L77.5631 780.44 L58.657 780.44 Z" fill="#000000" fill-rule="evenodd" fill-opacity="1" /><path clip-path="url(#clip260)" d="M49.9359 763.126 L28.3562 763.126 L28.3562 757.269 L49.7131 757.269 Q54.7739 757.269 57.3202 755.296 Q59.8346 753.322 59.8346 749.376 Q59.8346 744.633 56.8109 741.896 Q53.7872 739.127 48.5673 739.127 L28.3562 739.127 L28.3562 733.27 L64.0042 733.27 L64.0042 739.127 L58.5296 739.127 Q61.7762 741.259 63.3676 744.092 Q64.9272 746.893 64.9272 750.617 Q64.9272 756.76 61.1078 759.943 Q57.2883 763.126 49.9359 763.126 M27.4968 748.389 L27.4968 748.389 Z" fill="#000000" fill-rule="evenodd" fill-opacity="1" /><path clip-path="url(#clip260)" d="M44.7161 690.716 L47.5806 690.716 L47.5806 717.643 Q53.6281 717.261 56.8109 714.014 Q59.9619 710.736 59.9619 704.911 Q59.9619 701.537 59.1344 698.386 Q58.3069 695.204 56.6518 692.084 L62.1899 692.084 Q63.5267 695.235 64.227 698.545 Q64.9272 701.856 64.9272 705.261 Q64.9272 713.791 59.9619 718.788 Q54.9967 723.754 46.5303 723.754 Q37.7774 723.754 32.6531 719.043 Q27.4968 714.301 27.4968 706.28 Q27.4968 699.087 32.1438 694.917 Q36.7589 690.716 44.7161 690.716 M42.9973 696.572 Q38.1912 696.636 35.3266 699.278 Q32.4621 701.887 32.4621 706.216 Q32.4621 711.118 35.2312 714.078 Q38.0002 717.006 43.0292 717.452 L42.9973 696.572 Z" fill="#000000" fill-rule="evenodd" fill-opacity="1" /><path clip-path="url(#clip260)" d="M42.4881 651.471 L64.0042 651.471 L64.0042 657.328 L42.679 657.328 Q37.6183 657.328 35.1038 659.301 Q32.5894 661.274 32.5894 665.221 Q32.5894 669.963 35.6131 672.701 Q38.6368 675.438 43.8567 675.438 L64.0042 675.438 L64.0042 681.326 L28.3562 681.326 L28.3562 675.438 L33.8944 675.438 Q30.6797 673.337 29.0883 670.505 Q27.4968 667.64 27.4968 663.916 Q27.4968 657.773 31.3163 654.622 Q35.1038 651.471 42.4881 651.471 Z" fill="#000000" fill-rule="evenodd" fill-opacity="1" /><path clip-path="url(#clip260)" d="M29.7248 614.136 L35.1993 614.136 Q33.8307 616.619 33.1623 619.133 Q32.4621 621.616 32.4621 624.162 Q32.4621 629.86 36.0905 633.011 Q39.6872 636.162 46.212 636.162 Q52.7369 636.162 56.3653 633.011 Q59.9619 629.86 59.9619 624.162 Q59.9619 621.616 59.2935 619.133 Q58.5933 616.619 57.2247 614.136 L62.6355 614.136 Q63.7814 616.587 64.3543 619.229 Q64.9272 621.839 64.9272 624.799 Q64.9272 632.851 59.8664 637.594 Q54.8057 642.336 46.212 642.336 Q37.491 642.336 32.4939 637.562 Q27.4968 632.756 27.4968 624.417 Q27.4968 621.711 28.0697 619.133 Q28.6108 616.555 29.7248 614.136 Z" fill="#000000" fill-rule="evenodd" fill-opacity="1" /><path clip-path="url(#clip260)" d="M67.3143 589.119 Q73.68 591.602 75.6216 593.957 Q77.5631 596.312 77.5631 600.259 L77.5631 604.938 L72.6615 604.938 L72.6615 601.5 Q72.6615 599.081 71.5157 597.745 Q70.3699 596.408 66.1048 594.784 L63.4312 593.734 L28.3562 608.152 L28.3562 601.946 L56.238 590.806 L28.3562 579.666 L28.3562 573.459 L67.3143 589.119 Z" fill="#000000" fill-rule="evenodd" fill-opacity="1" /><polyline clip-path="url(#clip262)" style="stroke:#009af9; stroke-linecap:butt; stroke-linejoin:round; stroke-width:8; stroke-opacity:1; fill:none" points="
  309.067,1378.08 329.109,1370.14 349.151,1352.77 369.193,1325.57 389.235,1290.99 409.277,1247.88 429.319,1194.5 449.361,1140.32 469.403,1073.32 489.446,1008.28 
  509.488,938.022 529.53,864.212 549.572,785.85 569.614,713.753 589.656,642.617 609.698,576.118 629.74,492.952 649.782,425.324 669.824,363.462 689.866,321.732 
  709.908,273.069 729.95,217.138 749.992,183.261 770.034,138.483 790.076,125.576 810.118,95.7095 830.161,86.1857 850.203,97.1714 870.245,92.6602 890.287,115.049 
  910.329,131.967 930.371,179.753 950.413,211.415 970.455,232.76 990.497,278.875 1010.54,321.941 1030.58,363.921 1050.62,417.346 1070.67,465.759 1090.71,508.574 
  1110.75,557.53 1130.79,598.799 1150.83,650.22 1170.88,708.114 1190.92,744.747 1210.96,794.497 1231,843.703 1251.04,891.489 1271.09,930.67 1291.13,971.982 
  1311.17,1002.93 1331.21,1040.69 1351.25,1072.73 1371.3,1103.02 1391.34,1139.78 1411.38,1160.74 1431.42,1189.53 1451.46,1206.61 1471.51,1228.5 1491.55,1250.3 
  1511.59,1265.97 1531.63,1278.46 1551.67,1294.66 1571.72,1306.78 1591.76,1318.01 1611.8,1326.12 1631.84,1334.8 1651.89,1341.28 1671.93,1346.25 1691.97,1350.55 
  1712.01,1357.61 1732.05,1359.07 1752.1,1364.42 1772.14,1368.18 1792.18,1371.6 1812.22,1373.19 1832.26,1376.62 1852.31,1377.24 1872.35,1377.2 1892.39,1379.29 
  1912.43,1380.46 1932.47,1380.5 1952.52,1381.76 1972.56,1381.96 1992.6,1382.3 2012.64,1382.67 2032.68,1382.63 2052.73,1383.05 2072.77,1383.22 2092.81,1383.18 
  2112.85,1383.13 2132.89,1383.47 2152.94,1383.93 2172.98,1383.89 2193.02,1384.05 2213.06,1383.76 2233.1,1383.93 2253.15,1383.72 2273.19,1384.01 2293.23,1384.09 
  
  "/>
<polyline clip-path="url(#clip262)" style="stroke:#e26f46; stroke-linecap:butt; stroke-linejoin:round; stroke-width:8; stroke-opacity:1; fill:none" points="
  309.067,1383.12 329.109,1373.67 349.151,1354.93 369.193,1327.19 389.235,1290.92 409.277,1246.69 429.319,1195.22 449.361,1137.32 469.403,1073.9 489.446,1005.97 
  509.488,934.55 529.53,860.736 549.572,785.625 569.614,710.311 589.656,635.87 609.698,563.334 629.74,493.68 649.782,427.811 669.824,366.545 689.866,310.604 
  709.908,260.605 729.95,217.054 749.992,180.34 770.034,150.739 790.076,128.411 810.118,113.404 830.161,105.659 850.203,105.02 870.245,111.237 890.287,123.981 
  910.329,142.851 930.371,167.387 950.413,197.081 970.455,231.389 990.497,269.742 1010.54,311.556 1030.58,356.245 1050.62,403.228 1070.67,451.939 1090.71,501.835 
  1110.75,552.402 1130.79,603.159 1150.83,653.664 1170.88,703.518 1190.92,752.366 1210.96,799.895 1231,845.841 1251.04,889.983 1271.09,932.142 1291.13,972.182 
  1311.17,1010 1331.21,1045.55 1351.25,1078.78 1371.3,1109.7 1391.34,1138.34 1411.38,1164.73 1431.42,1188.96 1451.46,1211.09 1471.51,1231.23 1491.55,1249.47 
  1511.59,1265.93 1531.63,1280.72 1551.67,1293.95 1571.72,1305.75 1591.76,1316.23 1611.8,1325.5 1631.84,1333.67 1651.89,1340.84 1671.93,1347.11 1691.97,1352.58 
  1712.01,1357.33 1732.05,1361.44 1752.1,1364.99 1772.14,1368.03 1792.18,1370.64 1812.22,1372.86 1832.26,1374.76 1852.31,1376.36 1872.35,1377.71 1892.39,1378.85 
  1912.43,1379.81 1932.47,1380.61 1952.52,1381.28 1972.56,1381.83 1992.6,1382.29 2012.64,1382.67 2032.68,1382.98 2052.73,1383.23 2072.77,1383.44 2092.81,1383.61 
  2112.85,1383.75 2132.89,1383.86 2152.94,1383.95 2172.98,1384.03 2193.02,1384.08 2213.06,1384.13 2233.1,1384.17 2253.15,1384.2 2273.19,1384.22 2293.23,1384.24 
  
  "/>
<path clip-path="url(#clip260)" d="
M1803.59 274.549 L2282.65 274.549 L2282.65 93.1086 L1803.59 93.1086  Z
  " fill="#ffffff" fill-rule="evenodd" fill-opacity="1"/>
<polyline clip-path="url(#clip260)" style="stroke:#000000; stroke-linecap:butt; stroke-linejoin:round; stroke-width:4; stroke-opacity:1; fill:none" points="
  1803.59,274.549 2282.65,274.549 2282.65,93.1086 1803.59,93.1086 1803.59,274.549 
  "/>
<polyline clip-path="url(#clip260)" style="stroke:#009af9; stroke-linecap:butt; stroke-linejoin:round; stroke-width:4; stroke-opacity:1; fill:none" points="
  1826.96,153.589 1967.17,153.589 
  "/>
<path clip-path="url(#clip260)" d="M2012.79 137.443 L2012.79 142.003 Q2010.12 140.73 2007.76 140.105 Q2005.4 139.48 2003.2 139.48 Q1999.38 139.48 1997.3 140.961 Q1995.24 142.443 1995.24 145.174 Q1995.24 147.466 1996.61 148.647 Q1998 149.804 2001.84 150.522 L2004.66 151.1 Q2009.89 152.096 2012.37 154.619 Q2014.87 157.119 2014.87 161.332 Q2014.87 166.355 2011.49 168.947 Q2008.13 171.54 2001.63 171.54 Q1999.18 171.54 1996.4 170.984 Q1993.64 170.429 1990.68 169.341 L1990.68 164.526 Q1993.53 166.123 1996.26 166.933 Q1998.99 167.744 2001.63 167.744 Q2005.63 167.744 2007.81 166.17 Q2009.99 164.596 2009.99 161.679 Q2009.99 159.133 2008.41 157.697 Q2006.86 156.262 2003.3 155.545 L2000.45 154.989 Q1995.22 153.947 1992.88 151.725 Q1990.54 149.503 1990.54 145.545 Q1990.54 140.961 1993.76 138.322 Q1997 135.684 2002.67 135.684 Q2005.1 135.684 2007.62 136.123 Q2010.15 136.563 2012.79 137.443 Z" fill="#000000" fill-rule="evenodd" fill-opacity="1" /><path clip-path="url(#clip260)" d="M2021.98 144.943 L2026.24 144.943 L2026.24 170.869 L2021.98 170.869 L2021.98 144.943 M2021.98 134.85 L2026.24 134.85 L2026.24 140.244 L2021.98 140.244 L2021.98 134.85 Z" fill="#000000" fill-rule="evenodd" fill-opacity="1" /><path clip-path="url(#clip260)" d="M2055.33 149.92 Q2056.93 147.049 2059.15 145.684 Q2061.37 144.318 2064.38 144.318 Q2068.43 144.318 2070.63 147.165 Q2072.83 149.989 2072.83 155.221 L2072.83 170.869 L2068.55 170.869 L2068.55 155.359 Q2068.55 151.633 2067.23 149.827 Q2065.91 148.022 2063.2 148.022 Q2059.89 148.022 2057.97 150.221 Q2056.05 152.42 2056.05 156.216 L2056.05 170.869 L2051.77 170.869 L2051.77 155.359 Q2051.77 151.609 2050.45 149.827 Q2049.13 148.022 2046.37 148.022 Q2043.11 148.022 2041.19 150.244 Q2039.27 152.443 2039.27 156.216 L2039.27 170.869 L2034.99 170.869 L2034.99 144.943 L2039.27 144.943 L2039.27 148.971 Q2040.73 146.586 2042.76 145.452 Q2044.8 144.318 2047.6 144.318 Q2050.43 144.318 2052.39 145.753 Q2054.38 147.188 2055.33 149.92 Z" fill="#000000" fill-rule="evenodd" fill-opacity="1" /><path clip-path="url(#clip260)" d="M2080.89 160.637 L2080.89 144.943 L2085.15 144.943 L2085.15 160.475 Q2085.15 164.156 2086.58 166.008 Q2088.02 167.836 2090.89 167.836 Q2094.34 167.836 2096.33 165.637 Q2098.34 163.438 2098.34 159.642 L2098.34 144.943 L2102.6 144.943 L2102.6 170.869 L2098.34 170.869 L2098.34 166.887 Q2096.79 169.248 2094.73 170.406 Q2092.69 171.54 2089.99 171.54 Q2085.52 171.54 2083.2 168.762 Q2080.89 165.984 2080.89 160.637 M2091.61 144.318 L2091.61 144.318 Z" fill="#000000" fill-rule="evenodd" fill-opacity="1" /><path clip-path="url(#clip260)" d="M2111.37 134.85 L2115.63 134.85 L2115.63 170.869 L2111.37 170.869 L2111.37 134.85 Z" fill="#000000" fill-rule="evenodd" fill-opacity="1" /><path clip-path="url(#clip260)" d="M2136.33 157.836 Q2131.17 157.836 2129.18 159.017 Q2127.18 160.197 2127.18 163.045 Q2127.18 165.313 2128.67 166.656 Q2130.17 167.975 2132.74 167.975 Q2136.28 167.975 2138.41 165.475 Q2140.56 162.952 2140.56 158.785 L2140.56 157.836 L2136.33 157.836 M2144.82 156.077 L2144.82 170.869 L2140.56 170.869 L2140.56 166.933 Q2139.11 169.295 2136.93 170.429 Q2134.75 171.54 2131.61 171.54 Q2127.62 171.54 2125.26 169.318 Q2122.93 167.072 2122.93 163.322 Q2122.93 158.947 2125.84 156.725 Q2128.78 154.503 2134.59 154.503 L2140.56 154.503 L2140.56 154.086 Q2140.56 151.147 2138.62 149.549 Q2136.7 147.929 2133.2 147.929 Q2130.98 147.929 2128.87 148.461 Q2126.77 148.994 2124.82 150.059 L2124.82 146.123 Q2127.16 145.221 2129.36 144.781 Q2131.56 144.318 2133.64 144.318 Q2139.27 144.318 2142.05 147.234 Q2144.82 150.151 2144.82 156.077 Z" fill="#000000" fill-rule="evenodd" fill-opacity="1" /><path clip-path="url(#clip260)" d="M2157.81 137.582 L2157.81 144.943 L2166.58 144.943 L2166.58 148.253 L2157.81 148.253 L2157.81 162.327 Q2157.81 165.498 2158.67 166.401 Q2159.55 167.304 2162.21 167.304 L2166.58 167.304 L2166.58 170.869 L2162.21 170.869 Q2157.28 170.869 2155.4 169.04 Q2153.53 167.188 2153.53 162.327 L2153.53 148.253 L2150.4 148.253 L2150.4 144.943 L2153.53 144.943 L2153.53 137.582 L2157.81 137.582 Z" fill="#000000" fill-rule="evenodd" fill-opacity="1" /><path clip-path="url(#clip260)" d="M2172.18 144.943 L2176.44 144.943 L2176.44 170.869 L2172.18 170.869 L2172.18 144.943 M2172.18 134.85 L2176.44 134.85 L2176.44 140.244 L2172.18 140.244 L2172.18 134.85 Z" fill="#000000" fill-rule="evenodd" fill-opacity="1" /><path clip-path="url(#clip260)" d="M2195.4 147.929 Q2191.98 147.929 2189.99 150.614 Q2187.99 153.276 2187.99 157.929 Q2187.99 162.582 2189.96 165.267 Q2191.95 167.929 2195.4 167.929 Q2198.8 167.929 2200.8 165.244 Q2202.79 162.558 2202.79 157.929 Q2202.79 153.322 2200.8 150.637 Q2198.8 147.929 2195.4 147.929 M2195.4 144.318 Q2200.96 144.318 2204.13 147.929 Q2207.3 151.54 2207.3 157.929 Q2207.3 164.295 2204.13 167.929 Q2200.96 171.54 2195.4 171.54 Q2189.82 171.54 2186.65 167.929 Q2183.5 164.295 2183.5 157.929 Q2183.5 151.54 2186.65 147.929 Q2189.82 144.318 2195.4 144.318 Z" fill="#000000" fill-rule="evenodd" fill-opacity="1" /><path clip-path="url(#clip260)" d="M2235.91 155.221 L2235.91 170.869 L2231.65 170.869 L2231.65 155.359 Q2231.65 151.679 2230.22 149.85 Q2228.78 148.022 2225.91 148.022 Q2222.46 148.022 2220.47 150.221 Q2218.48 152.42 2218.48 156.216 L2218.48 170.869 L2214.2 170.869 L2214.2 144.943 L2218.48 144.943 L2218.48 148.971 Q2220.01 146.633 2222.07 145.475 Q2224.15 144.318 2226.86 144.318 Q2231.33 144.318 2233.62 147.096 Q2235.91 149.85 2235.91 155.221 Z" fill="#000000" fill-rule="evenodd" fill-opacity="1" /><polyline clip-path="url(#clip260)" style="stroke:#e26f46; stroke-linecap:butt; stroke-linejoin:round; stroke-width:4; stroke-opacity:1; fill:none" points="
  1826.96,214.069 1967.17,214.069 
  "/>
<path clip-path="url(#clip260)" d="M1990.54 196.789 L2010.4 196.789 L2010.4 200.724 L1995.22 200.724 L1995.22 210.909 L2008.92 210.909 L2008.92 214.844 L1995.22 214.844 L1995.22 231.349 L1990.54 231.349 L1990.54 196.789 Z" fill="#000000" fill-rule="evenodd" fill-opacity="1" /><path clip-path="url(#clip260)" d="M2014.18 205.423 L2018.44 205.423 L2018.44 231.349 L2014.18 231.349 L2014.18 205.423 M2014.18 195.33 L2018.44 195.33 L2018.44 200.724 L2014.18 200.724 L2014.18 195.33 Z" fill="#000000" fill-rule="evenodd" fill-opacity="1" /><path clip-path="url(#clip260)" d="M2031.56 198.062 L2031.56 205.423 L2040.33 205.423 L2040.33 208.733 L2031.56 208.733 L2031.56 222.807 Q2031.56 225.978 2032.42 226.881 Q2033.3 227.784 2035.96 227.784 L2040.33 227.784 L2040.33 231.349 L2035.96 231.349 Q2031.03 231.349 2029.15 229.52 Q2027.28 227.668 2027.28 222.807 L2027.28 208.733 L2024.15 208.733 L2024.15 205.423 L2027.28 205.423 L2027.28 198.062 L2031.56 198.062 Z" fill="#000000" fill-rule="evenodd" fill-opacity="1" /></svg>
