<?xml version="1.0" encoding="UTF-8" standalone="no"?>
<!-- Created with Inkscape (http://www.inkscape.org/) -->

<svg
   xmlns:dc="http://purl.org/dc/elements/1.1/"
   xmlns:cc="http://creativecommons.org/ns#"
   xmlns:rdf="http://www.w3.org/1999/02/22-rdf-syntax-ns#"
   xmlns:svg="http://www.w3.org/2000/svg"
   xmlns="http://www.w3.org/2000/svg"
   xmlns:sodipodi="http://sodipodi.sourceforge.net/DTD/sodipodi-0.dtd"
   xmlns:inkscape="http://www.inkscape.org/namespaces/inkscape"
   version="1.1"
   id="svg2"
   xml:space="preserve"
   width="254.25085"
   height="217.10001"
   viewBox="0 0 254.25085 217.10001"
   sodipodi:docname="area.svg"
   inkscape:version="0.92.5 (2060ec1f9f, 2020-04-08)"><metadata
     id="metadata8"><rdf:RDF><cc:Work
         rdf:about=""><dc:format>image/svg+xml</dc:format><dc:type
           rdf:resource="http://purl.org/dc/dcmitype/StillImage" /><dc:title></dc:title></cc:Work></rdf:RDF></metadata><defs
     id="defs6" /><sodipodi:namedview
     pagecolor="#ffffff"
     bordercolor="#666666"
     borderopacity="1"
     objecttolerance="10"
     gridtolerance="10"
     guidetolerance="10"
     inkscape:pageopacity="0"
     inkscape:pageshadow="2"
     inkscape:window-width="1344"
     inkscape:window-height="918"
     id="namedview4"
     showgrid="false"
     inkscape:zoom="1.0870566"
     inkscape:cx="127.12543"
     inkscape:cy="108.55"
     inkscape:window-x="40"
     inkscape:window-y="0"
     inkscape:window-maximized="0"
     inkscape:current-layer="g10" /><g
     id="g10"
     inkscape:groupmode="layer"
     inkscape:label="area"
     transform="matrix(1.3333333,0,0,-1.3333333,0,217.1)"><g
       transform="matrix(1,0,0,-1,0,162.825)"
       id="g14"><path
         inkscape:connector-curvature="0"
         id="path16"
         style="fill:#d7d7d7;fill-opacity:1;fill-rule:nonzero;stroke:#000000;stroke-width:1.27999997;stroke-linecap:butt;stroke-linejoin:miter;stroke-miterlimit:4;stroke-dasharray:none;stroke-opacity:1"
         d="m 162.199,81.422 c 0,44.609 -36.164,80.773 -80.777,80.773 -44.61,0 -80.774,-36.164 -80.774,-80.773 0,-44.613 36.164,-80.777 80.774,-80.777 44.613,0 80.777,36.164 80.777,80.777 z" /></g><g
       transform="matrix(1,0,0,-1,0,162.825)"
       id="g18"><path
         inkscape:connector-curvature="0"
         id="path20"
         style="fill:#ffffff;fill-opacity:1;fill-rule:nonzero;stroke:#000000;stroke-width:1.27999997;stroke-linecap:butt;stroke-linejoin:miter;stroke-miterlimit:4;stroke-dasharray:none;stroke-opacity:1"
         d="m 138.359,81.422 c 0,31.445 -25.492,56.933 -56.937,56.933 -31.445,0 -56.934,-25.488 -56.934,-56.933 0,-31.445 25.489,-56.938 56.934,-56.938 31.445,0 56.937,25.493 56.937,56.938 z" /></g><path
       inkscape:connector-curvature="0"
       id="path22"
       style="fill:#000000;fill-opacity:1;fill-rule:nonzero;stroke:none"
       d="m 83.254,81.403 c 0,-1.012 -0.82,-1.828 -1.832,-1.828 -1.012,0 -1.828,0.816 -1.828,1.828 0,1.012 0.816,1.832 1.828,1.832 1.012,0 1.832,-0.82 1.832,-1.832 z" /><g
       transform="matrix(1,0,0,-1,0,162.825)"
       id="g24"><path
         inkscape:connector-curvature="0"
         id="path26"
         style="fill:none;stroke:#000000;stroke-width:0.80000001;stroke-linecap:butt;stroke-linejoin:miter;stroke-miterlimit:4;stroke-dasharray:none;stroke-opacity:1"
         d="M 81.477,81.391 135.094,65.605" /></g><path
       inkscape:connector-curvature="0"
       id="path28"
       style="fill:#000000;fill-opacity:1;fill-rule:evenodd;stroke:none"
       d="m 130.531,97.895 5.578,-0.371 -4.488,-3.328 c 0.484,1.328 0.039,2.82 -1.09,3.699 z" /><g
       transform="matrix(1,0,0,-1,0,162.825)"
       id="g30"><path
         inkscape:connector-curvature="0"
         id="path32"
         style="fill:none;stroke:#000000;stroke-width:0.80000001;stroke-linecap:butt;stroke-linejoin:miter;stroke-miterlimit:4;stroke-dasharray:none;stroke-opacity:1"
         d="m 81.477,81.391 76.668,19.793" /></g><path
       inkscape:connector-curvature="0"
       id="path34"
       style="fill:#000000;fill-opacity:1;fill-rule:evenodd;stroke:none"
       d="m 154.578,64.559 4.594,-3.175 -5.559,-0.559 c 1.098,0.895 1.481,2.402 0.965,3.734 z" /><path
       inkscape:connector-curvature="0"
       id="path36"
       style="fill:#000000;fill-opacity:1;fill-rule:nonzero;stroke:none"
       d="m 106.574,93.794 v -0.047 l -0.027,-0.02 V 93.61 l -0.031,-0.047 v -0.051 l -0.028,-0.046 v -0.114 l -0.031,-0.019 v -0.137 l -0.027,-0.012 v -0.027 c 0,-0.262 0.207,-0.398 0.441,-0.398 0.18,0 0.445,0.117 0.535,0.414 0.028,0.058 0.532,2.07 0.59,2.332 0.121,0.484 0.387,1.519 0.477,1.918 0.058,0.195 0.472,0.886 0.828,1.211 0.121,0.101 0.535,0.484 1.187,0.484 0.383,0 0.59,-0.172 0.621,-0.172 -0.445,-0.074 -0.769,-0.43 -0.769,-0.812 0,-0.235 0.148,-0.516 0.562,-0.516 0.383,0 0.801,0.336 0.801,0.867 0,0.52 -0.476,0.961 -1.215,0.961 -0.98,0 -1.601,-0.723 -1.898,-1.137 -0.117,0.661 -0.652,1.137 -1.332,1.137 -0.684,0 -0.977,-0.574 -1.098,-0.84 -0.265,-0.504 -0.472,-1.39 -0.472,-1.433 0,-0.149 0.148,-0.149 0.175,-0.149 0.18,0 0.18,0.02 0.27,0.34 0.234,1.047 0.531,1.754 1.066,1.754 0.266,0 0.473,-0.113 0.473,-0.676 0,-0.308 -0.059,-0.476 -0.238,-1.238 z" /><path
       inkscape:connector-curvature="0"
       id="path38"
       style="fill:#000000;fill-opacity:1;fill-rule:nonzero;stroke:none"
       d="m 82.129,58.501 v -0.02 L 82.098,58.458 V 58.364 L 82.07,58.317 v -0.094 l -0.031,-0.046 v -0.094 l -0.027,-0.02 V 57.95 L 81.98,57.934 v -0.066 c 0,-0.262 0.208,-0.398 0.415,-0.398 0.207,0 0.445,0.117 0.562,0.414 0.031,0.058 0.535,2.066 0.594,2.332 0.117,0.484 0.387,1.519 0.472,1.918 0.059,0.191 0.477,0.886 0.832,1.211 0.118,0.101 0.532,0.484 1.184,0.484 0.356,0 0.594,-0.176 0.621,-0.176 -0.441,-0.074 -0.769,-0.43 -0.769,-0.808 0,-0.235 0.148,-0.52 0.562,-0.52 0.387,0 0.801,0.34 0.801,0.871 0,0.516 -0.473,0.957 -1.215,0.957 -0.977,0 -1.629,-0.723 -1.894,-1.133 -0.122,0.66 -0.653,1.133 -1.336,1.133 -0.68,0 -0.977,-0.574 -1.094,-0.836 -0.27,-0.504 -0.477,-1.39 -0.477,-1.433 0,-0.149 0.149,-0.149 0.18,-0.149 0.148,0 0.176,0.016 0.266,0.34 0.238,1.047 0.535,1.754 1.066,1.754 0.238,0 0.477,-0.117 0.477,-0.676 0,-0.308 -0.063,-0.476 -0.239,-1.242 z" /><path
       inkscape:connector-curvature="0"
       id="path40"
       style="fill:#000000;fill-opacity:1;fill-rule:nonzero;stroke:none"
       d="m 97.207,61.024 h 4.117 c 0.211,0 0.477,0 0.477,0.297 0,0.293 -0.266,0.293 -0.477,0.293 h -4.117 v 4.137 c 0,0.207 0,0.488 -0.297,0.488 -0.293,0 -0.293,-0.281 -0.293,-0.488 v -4.137 h -4.148 c -0.207,0 -0.477,0 -0.477,-0.293 0,-0.297 0.27,-0.297 0.477,-0.297 h 4.148 v -4.129 c 0,-0.211 0,-0.492 0.293,-0.492 0.297,0 0.297,0.281 0.297,0.492 z" /><path
       inkscape:connector-curvature="0"
       id="path42"
       style="fill:#000000;fill-opacity:1;fill-rule:nonzero;stroke:none"
       d="m 112.438,67.934 v 0.02 l -0.032,0.016 v 0.046 l -0.031,0.012 v 0.039 l -0.027,0.012 v 0.035 l -0.032,0.008 v 0.015 l -0.027,0.008 v 0.016 l -0.031,0.004 v 0.008 l -0.031,0.004 v 0.003 l -0.028,0.004 v 0.004 l -0.031,0.004 -0.027,0.004 -0.032,0.004 h -0.058 c -0.239,0 -0.266,-0.074 -0.387,-0.266 l -0.086,-1.211 3.969,-7.972 h -7.942 l 3.973,7.972 0.086,1.211 -4.976,-10.007 c -0.09,-0.133 -0.09,-0.161 -0.09,-0.176 0,-0.121 0.09,-0.121 0.328,-0.121 h 10.25 c 0.238,0 0.324,0 0.324,0.121 0,0.015 0,0.043 -0.059,0.176 z" /><path
       inkscape:connector-curvature="0"
       id="path44"
       style="fill:#000000;fill-opacity:1;fill-rule:nonzero;stroke:none"
       d="m 119.516,58.501 v -0.063 l -0.028,-0.023 v -0.098 l -0.031,-0.047 v -0.093 l -0.031,-0.047 v -0.086 l -0.028,-0.024 v -0.144 l -0.031,-0.008 c 0,-0.262 0.238,-0.398 0.445,-0.398 0.18,0 0.446,0.117 0.536,0.414 0.027,0.058 0.531,2.066 0.59,2.332 0.121,0.484 0.386,1.519 0.476,1.918 0.059,0.191 0.473,0.886 0.828,1.211 0.117,0.101 0.563,0.484 1.184,0.484 0.386,0 0.594,-0.176 0.625,-0.176 -0.446,-0.074 -0.774,-0.43 -0.774,-0.808 0,-0.235 0.18,-0.52 0.563,-0.52 0.387,0 0.801,0.34 0.801,0.871 0,0.516 -0.473,0.957 -1.215,0.957 -0.946,0 -1.598,-0.723 -1.895,-1.133 -0.117,0.66 -0.652,1.133 -1.332,1.133 -0.683,0 -0.949,-0.574 -1.097,-0.836 -0.266,-0.504 -0.446,-1.39 -0.446,-1.433 0,-0.149 0.121,-0.149 0.18,-0.149 0.148,0 0.148,0.016 0.234,0.34 0.27,1.047 0.567,1.754 1.067,1.754 0.269,0 0.476,-0.117 0.476,-0.676 0,-0.308 -0.058,-0.476 -0.238,-1.242 z" /><path
       inkscape:connector-curvature="0"
       id="path46"
       style="fill:#000000;fill-opacity:1;fill-rule:nonzero;stroke:none"
       d="m 165.191,126.43 -0.058,-0.093 -0.059,-0.086 -0.058,-0.082 -0.059,-0.078 -0.059,-0.075 -0.031,-0.066 -0.058,-0.066 -0.059,-0.063 -0.059,-0.059 -0.062,-0.054 -0.059,-0.051 -0.058,-0.047 -0.032,-0.043 -0.058,-0.043 -0.059,-0.039 -0.058,-0.035 -0.117,-0.063 -0.063,-0.023 -0.059,-0.027 -0.058,-0.024 -0.059,-0.019 -0.058,-0.016 -0.032,-0.019 -0.058,-0.016 -0.117,-0.023 -0.059,-0.008 -0.121,-0.016 -0.117,-0.008 c -0.207,-0.015 -0.328,-0.015 -0.328,-0.297 0,-0.089 0.089,-0.164 0.211,-0.164 0.382,0 0.828,0.047 1.242,0.047 0.504,0 1.008,-0.047 1.48,-0.047 0.09,0 0.297,0 0.297,0.282 0,0.164 -0.148,0.179 -0.238,0.179 -0.356,0.028 -0.711,0.149 -0.711,0.512 0,0.18 0.09,0.344 0.211,0.547 l 1.125,1.894 h 3.703 l -0.031,0.454 h -3.375 l 2.902,4.875 0.473,-4.875 0.031,-0.454 c 0.027,-0.312 0.234,-2.32 0.234,-2.468 0,-0.446 -0.769,-0.485 -1.066,-0.485 -0.207,0 -0.356,0 -0.356,-0.297 0,-0.164 0.18,-0.164 0.207,-0.164 0.625,0 1.247,0.047 1.868,0.047 0.355,0 1.273,-0.047 1.66,-0.047 0.09,0 0.265,0 0.265,0.297 0,0.164 -0.148,0.164 -0.355,0.164 -0.918,0 -0.918,0.102 -0.945,0.532 L 171,134.942 c -0.031,0.293 -0.031,0.356 -0.297,0.356 -0.238,0 -0.297,-0.102 -0.383,-0.25 z" /><path
       inkscape:connector-curvature="0"
       id="path48"
       style="fill:#000000;fill-opacity:1;fill-rule:nonzero;stroke:none"
       d="m 178.496,121.188 v 0.028 l -0.031,0.004 v 0.05 l -0.027,0.008 v 0.031 l -0.032,0.008 v 0.024 l -0.031,0.007 v 0.028 l -0.027,0.008 v 0.027 l -0.032,0.008 v 0.019 l -0.027,0.008 v 0.02 l -0.031,0.011 v 0.024 l -0.028,0.011 c -1.839,1.86 -2.312,4.649 -2.312,6.903 0,2.574 0.562,5.14 2.371,6.984 0.207,0.18 0.207,0.207 0.207,0.254 0,0.102 -0.058,0.145 -0.148,0.145 -0.149,0 -1.481,-1 -2.34,-2.875 -0.77,-1.625 -0.949,-3.266 -0.949,-4.508 0,-1.153 0.179,-2.93 0.976,-4.602 0.891,-1.816 2.164,-2.773 2.313,-2.773 0.09,0 0.148,0.043 0.148,0.148 z" /><path
       inkscape:connector-curvature="0"
       id="path50"
       style="fill:#000000;fill-opacity:1;fill-rule:nonzero;stroke:none"
       d="m 180.629,125.598 v -0.043 l -0.031,-0.019 v -0.074 l -0.028,-0.047 v -0.094 l -0.031,-0.047 v -0.094 l -0.027,-0.019 v -0.141 l -0.032,-0.015 v -0.039 c 0,-0.266 0.208,-0.399 0.446,-0.399 0.176,0 0.441,0.117 0.531,0.414 0.031,0.059 0.535,2.067 0.594,2.332 0.117,0.485 0.383,1.52 0.472,1.918 0.059,0.192 0.477,0.887 0.832,1.207 0.118,0.106 0.532,0.489 1.184,0.489 0.387,0 0.594,-0.176 0.621,-0.176 -0.445,-0.074 -0.769,-0.43 -0.769,-0.809 0,-0.238 0.148,-0.519 0.562,-0.519 0.387,0 0.801,0.339 0.801,0.871 0,0.515 -0.473,0.957 -1.215,0.957 -0.977,0 -1.629,-0.723 -1.894,-1.133 -0.122,0.66 -0.653,1.133 -1.336,1.133 -0.68,0 -0.977,-0.574 -1.094,-0.836 -0.27,-0.504 -0.477,-1.391 -0.477,-1.434 0,-0.148 0.149,-0.148 0.18,-0.148 0.148,0 0.176,0.015 0.266,0.34 0.238,1.047 0.535,1.754 1.066,1.754 0.266,0 0.473,-0.118 0.473,-0.676 0,-0.309 -0.059,-0.477 -0.235,-1.242 z" /><path
       inkscape:connector-curvature="0"
       id="path52"
       style="fill:#000000;fill-opacity:1;fill-rule:nonzero;stroke:none"
       d="m 190.672,128.415 v 0.226 l -0.031,0.118 v 0.367 l -0.028,0.261 v 0.274 l -0.058,0.281 -0.032,0.289 -0.058,0.297 -0.031,0.305 -0.09,0.304 -0.059,0.313 -0.117,0.312 -0.09,0.317 -0.117,0.316 -0.117,0.313 -0.09,0.16 -0.059,0.156 c -0.89,1.817 -2.164,2.774 -2.312,2.774 -0.09,0 -0.149,-0.059 -0.149,-0.145 0,-0.047 0,-0.074 0.266,-0.344 1.453,-1.457 2.312,-3.8 2.312,-6.894 0,-2.52 -0.562,-5.117 -2.371,-6.977 -0.207,-0.176 -0.207,-0.207 -0.207,-0.25 0,-0.09 0.059,-0.148 0.149,-0.148 0.148,0 1.48,1.004 2.34,2.879 0.769,1.621 0.949,3.258 0.949,4.496 z" /><g
       transform="matrix(1,0,0,-1,0,162.825)"
       id="g54"><path
         inkscape:connector-curvature="0"
         id="path56"
         style="fill:none;stroke:#000000;stroke-width:0.80000001;stroke-linecap:butt;stroke-linejoin:miter;stroke-miterlimit:4;stroke-dasharray:0.8, 0.8;stroke-dashoffset:0;stroke-opacity:1"
         d="m 134.91,43.449 26.102,-9.906" /></g><path
       inkscape:connector-curvature="0"
       id="path58"
       style="fill:#000000;fill-opacity:1;fill-rule:evenodd;stroke:none"
       d="m 156.41,129.606 5.59,0.059 -4.219,-3.664 c 0.379,1.359 -0.179,2.816 -1.371,3.605 z" /></g></svg>