<?xml version="1.0" encoding="utf-8"?>
<svg xmlns="http://www.w3.org/2000/svg" xmlns:xlink="http://www.w3.org/1999/xlink" width="600" height="400" viewBox="0 0 2400 1600">
<defs>
  <clipPath id="clip210">
    <rect x="0" y="0" width="2400" height="1600"/>
  </clipPath>
</defs>
<path clip-path="url(#clip210)" d="
M0 1600 L2400 1600 L2400 0 L0 0  Z
  " fill="#ffffff" fill-rule="evenodd" fill-opacity="1"/>
<defs>
  <clipPath id="clip211">
    <rect x="480" y="0" width="1681" height="1600"/>
  </clipPath>
</defs>
<path clip-path="url(#clip210)" d="
M249.542 1423.18 L2352.76 1423.18 L2352.76 47.2441 L249.542 47.2441  Z
  " fill="#ffffff" fill-rule="evenodd" fill-opacity="1"/>
<defs>
  <clipPath id="clip212">
    <rect x="249" y="47" width="2104" height="1377"/>
  </clipPath>
</defs>
<polyline clip-path="url(#clip212)" style="stroke:#000000; stroke-linecap:butt; stroke-linejoin:round; stroke-width:2; stroke-opacity:0.1; fill:none" points="
  299.046,1423.18 299.046,47.2441 
  "/>
<polyline clip-path="url(#clip212)" style="stroke:#000000; stroke-linecap:butt; stroke-linejoin:round; stroke-width:2; stroke-opacity:0.1; fill:none" points="
  800.097,1423.18 800.097,47.2441 
  "/>
<polyline clip-path="url(#clip212)" style="stroke:#000000; stroke-linecap:butt; stroke-linejoin:round; stroke-width:2; stroke-opacity:0.1; fill:none" points="
  1301.15,1423.18 1301.15,47.2441 
  "/>
<polyline clip-path="url(#clip212)" style="stroke:#000000; stroke-linecap:butt; stroke-linejoin:round; stroke-width:2; stroke-opacity:0.1; fill:none" points="
  1802.2,1423.18 1802.2,47.2441 
  "/>
<polyline clip-path="url(#clip212)" style="stroke:#000000; stroke-linecap:butt; stroke-linejoin:round; stroke-width:2; stroke-opacity:0.1; fill:none" points="
  2303.25,1423.18 2303.25,47.2441 
  "/>
<polyline clip-path="url(#clip210)" style="stroke:#000000; stroke-linecap:butt; stroke-linejoin:round; stroke-width:4; stroke-opacity:1; fill:none" points="
  249.542,1423.18 2352.76,1423.18 
  "/>
<polyline clip-path="url(#clip210)" style="stroke:#000000; stroke-linecap:butt; stroke-linejoin:round; stroke-width:4; stroke-opacity:1; fill:none" points="
  299.046,1423.18 299.046,1406.67 
  "/>
<polyline clip-path="url(#clip210)" style="stroke:#000000; stroke-linecap:butt; stroke-linejoin:round; stroke-width:4; stroke-opacity:1; fill:none" points="
  800.097,1423.18 800.097,1406.67 
  "/>
<polyline clip-path="url(#clip210)" style="stroke:#000000; stroke-linecap:butt; stroke-linejoin:round; stroke-width:4; stroke-opacity:1; fill:none" points="
  1301.15,1423.18 1301.15,1406.67 
  "/>
<polyline clip-path="url(#clip210)" style="stroke:#000000; stroke-linecap:butt; stroke-linejoin:round; stroke-width:4; stroke-opacity:1; fill:none" points="
  1802.2,1423.18 1802.2,1406.67 
  "/>
<polyline clip-path="url(#clip210)" style="stroke:#000000; stroke-linecap:butt; stroke-linejoin:round; stroke-width:4; stroke-opacity:1; fill:none" points="
  2303.25,1423.18 2303.25,1406.67 
  "/>
<path clip-path="url(#clip210)" d="M276.43 1452.37 Q272.819 1452.37 270.991 1455.94 Q269.185 1459.48 269.185 1466.61 Q269.185 1473.71 270.991 1477.28 Q272.819 1480.82 276.43 1480.82 Q280.065 1480.82 281.87 1477.28 Q283.699 1473.71 283.699 1466.61 Q283.699 1459.48 281.87 1455.94 Q280.065 1452.37 276.43 1452.37 M276.43 1448.67 Q282.24 1448.67 285.296 1453.27 Q288.375 1457.86 288.375 1466.61 Q288.375 1475.33 285.296 1479.94 Q282.24 1484.52 276.43 1484.52 Q270.62 1484.52 267.541 1479.94 Q264.486 1475.33 264.486 1466.61 Q264.486 1457.86 267.541 1453.27 Q270.62 1448.67 276.43 1448.67 Z" fill="#000000" fill-rule="evenodd" fill-opacity="1" /><path clip-path="url(#clip210)" d="M296.592 1477.97 L301.476 1477.97 L301.476 1483.85 L296.592 1483.85 L296.592 1477.97 Z" fill="#000000" fill-rule="evenodd" fill-opacity="1" /><path clip-path="url(#clip210)" d="M321.662 1452.37 Q318.05 1452.37 316.222 1455.94 Q314.416 1459.48 314.416 1466.61 Q314.416 1473.71 316.222 1477.28 Q318.05 1480.82 321.662 1480.82 Q325.296 1480.82 327.101 1477.28 Q328.93 1473.71 328.93 1466.61 Q328.93 1459.48 327.101 1455.94 Q325.296 1452.37 321.662 1452.37 M321.662 1448.67 Q327.472 1448.67 330.527 1453.27 Q333.606 1457.86 333.606 1466.61 Q333.606 1475.33 330.527 1479.94 Q327.472 1484.52 321.662 1484.52 Q315.851 1484.52 312.773 1479.94 Q309.717 1475.33 309.717 1466.61 Q309.717 1457.86 312.773 1453.27 Q315.851 1448.67 321.662 1448.67 Z" fill="#000000" fill-rule="evenodd" fill-opacity="1" /><path clip-path="url(#clip210)" d="M777.98 1452.37 Q774.368 1452.37 772.54 1455.94 Q770.734 1459.48 770.734 1466.61 Q770.734 1473.71 772.54 1477.28 Q774.368 1480.82 777.98 1480.82 Q781.614 1480.82 783.419 1477.28 Q785.248 1473.71 785.248 1466.61 Q785.248 1459.48 783.419 1455.94 Q781.614 1452.37 777.98 1452.37 M777.98 1448.67 Q783.79 1448.67 786.845 1453.27 Q789.924 1457.86 789.924 1466.61 Q789.924 1475.33 786.845 1479.94 Q783.79 1484.52 777.98 1484.52 Q772.169 1484.52 769.091 1479.94 Q766.035 1475.33 766.035 1466.61 Q766.035 1457.86 769.091 1453.27 Q772.169 1448.67 777.98 1448.67 Z" fill="#000000" fill-rule="evenodd" fill-opacity="1" /><path clip-path="url(#clip210)" d="M798.141 1477.97 L803.026 1477.97 L803.026 1483.85 L798.141 1483.85 L798.141 1477.97 Z" fill="#000000" fill-rule="evenodd" fill-opacity="1" /><path clip-path="url(#clip210)" d="M813.257 1449.29 L831.613 1449.29 L831.613 1453.23 L817.539 1453.23 L817.539 1461.7 Q818.558 1461.35 819.577 1461.19 Q820.595 1461 821.614 1461 Q827.401 1461 830.78 1464.18 Q834.16 1467.35 834.16 1472.76 Q834.16 1478.34 830.688 1481.44 Q827.215 1484.52 820.896 1484.52 Q818.72 1484.52 816.452 1484.15 Q814.206 1483.78 811.799 1483.04 L811.799 1478.34 Q813.882 1479.48 816.104 1480.03 Q818.327 1480.59 820.803 1480.59 Q824.808 1480.59 827.146 1478.48 Q829.484 1476.38 829.484 1472.76 Q829.484 1469.15 827.146 1467.05 Q824.808 1464.94 820.803 1464.94 Q818.928 1464.94 817.053 1465.36 Q815.202 1465.77 813.257 1466.65 L813.257 1449.29 Z" fill="#000000" fill-rule="evenodd" fill-opacity="1" /><path clip-path="url(#clip210)" d="M1268.3 1479.92 L1275.94 1479.92 L1275.94 1453.55 L1267.63 1455.22 L1267.63 1450.96 L1275.89 1449.29 L1280.57 1449.29 L1280.57 1479.92 L1288.21 1479.92 L1288.21 1483.85 L1268.3 1483.85 L1268.3 1479.92 Z" fill="#000000" fill-rule="evenodd" fill-opacity="1" /><path clip-path="url(#clip210)" d="M1297.65 1477.97 L1302.54 1477.97 L1302.54 1483.85 L1297.65 1483.85 L1297.65 1477.97 Z" fill="#000000" fill-rule="evenodd" fill-opacity="1" /><path clip-path="url(#clip210)" d="M1322.72 1452.37 Q1319.11 1452.37 1317.28 1455.94 Q1315.48 1459.48 1315.48 1466.61 Q1315.48 1473.71 1317.28 1477.28 Q1319.11 1480.82 1322.72 1480.82 Q1326.36 1480.82 1328.16 1477.28 Q1329.99 1473.71 1329.99 1466.61 Q1329.99 1459.48 1328.16 1455.94 Q1326.36 1452.37 1322.72 1452.37 M1322.72 1448.67 Q1328.53 1448.67 1331.59 1453.27 Q1334.67 1457.86 1334.67 1466.61 Q1334.67 1475.33 1331.59 1479.94 Q1328.53 1484.52 1322.72 1484.52 Q1316.91 1484.52 1313.83 1479.94 Q1310.78 1475.33 1310.78 1466.61 Q1310.78 1457.86 1313.83 1453.27 Q1316.91 1448.67 1322.72 1448.67 Z" fill="#000000" fill-rule="evenodd" fill-opacity="1" /><path clip-path="url(#clip210)" d="M1769.85 1479.92 L1777.49 1479.92 L1777.49 1453.55 L1769.18 1455.22 L1769.18 1450.96 L1777.44 1449.29 L1782.12 1449.29 L1782.12 1479.92 L1789.76 1479.92 L1789.76 1483.85 L1769.85 1483.85 L1769.85 1479.92 Z" fill="#000000" fill-rule="evenodd" fill-opacity="1" /><path clip-path="url(#clip210)" d="M1799.2 1477.97 L1804.09 1477.97 L1804.09 1483.85 L1799.2 1483.85 L1799.2 1477.97 Z" fill="#000000" fill-rule="evenodd" fill-opacity="1" /><path clip-path="url(#clip210)" d="M1814.32 1449.29 L1832.67 1449.29 L1832.67 1453.23 L1818.6 1453.23 L1818.6 1461.7 Q1819.62 1461.35 1820.64 1461.19 Q1821.66 1461 1822.67 1461 Q1828.46 1461 1831.84 1464.18 Q1835.22 1467.35 1835.22 1472.76 Q1835.22 1478.34 1831.75 1481.44 Q1828.28 1484.52 1821.96 1484.52 Q1819.78 1484.52 1817.51 1484.15 Q1815.27 1483.78 1812.86 1483.04 L1812.86 1478.34 Q1814.94 1479.48 1817.17 1480.03 Q1819.39 1480.59 1821.86 1480.59 Q1825.87 1480.59 1828.21 1478.48 Q1830.55 1476.38 1830.55 1472.76 Q1830.55 1469.15 1828.21 1467.05 Q1825.87 1464.94 1821.86 1464.94 Q1819.99 1464.94 1818.11 1465.36 Q1816.26 1465.77 1814.32 1466.65 L1814.32 1449.29 Z" fill="#000000" fill-rule="evenodd" fill-opacity="1" /><path clip-path="url(#clip210)" d="M2274.49 1479.92 L2290.81 1479.92 L2290.81 1483.85 L2268.87 1483.85 L2268.87 1479.92 Q2271.53 1477.16 2276.11 1472.53 Q2280.72 1467.88 2281.9 1466.54 Q2284.14 1464.01 2285.02 1462.28 Q2285.93 1460.52 2285.93 1458.83 Q2285.93 1456.07 2283.98 1454.34 Q2282.06 1452.6 2278.96 1452.6 Q2276.76 1452.6 2274.31 1453.37 Q2271.87 1454.13 2269.1 1455.68 L2269.1 1450.96 Q2271.92 1449.82 2274.37 1449.25 Q2276.83 1448.67 2278.87 1448.67 Q2284.24 1448.67 2287.43 1451.35 Q2290.62 1454.04 2290.62 1458.53 Q2290.62 1460.66 2289.81 1462.58 Q2289.03 1464.48 2286.92 1467.07 Q2286.34 1467.74 2283.24 1470.96 Q2280.14 1474.15 2274.49 1479.92 Z" fill="#000000" fill-rule="evenodd" fill-opacity="1" /><path clip-path="url(#clip210)" d="M2300.62 1477.97 L2305.51 1477.97 L2305.51 1483.85 L2300.62 1483.85 L2300.62 1477.97 Z" fill="#000000" fill-rule="evenodd" fill-opacity="1" /><path clip-path="url(#clip210)" d="M2325.69 1452.37 Q2322.08 1452.37 2320.25 1455.94 Q2318.45 1459.48 2318.45 1466.61 Q2318.45 1473.71 2320.25 1477.28 Q2322.08 1480.82 2325.69 1480.82 Q2329.33 1480.82 2331.13 1477.28 Q2332.96 1473.71 2332.96 1466.61 Q2332.96 1459.48 2331.13 1455.94 Q2329.33 1452.37 2325.69 1452.37 M2325.69 1448.67 Q2331.5 1448.67 2334.56 1453.27 Q2337.64 1457.86 2337.64 1466.61 Q2337.64 1475.33 2334.56 1479.94 Q2331.5 1484.52 2325.69 1484.52 Q2319.88 1484.52 2316.81 1479.94 Q2313.75 1475.33 2313.75 1466.61 Q2313.75 1457.86 2316.81 1453.27 Q2319.88 1448.67 2325.69 1448.67 Z" fill="#000000" fill-rule="evenodd" fill-opacity="1" /><path clip-path="url(#clip210)" d="M1081.98 1532.4 L1088.18 1532.4 L1099.32 1562.31 L1110.46 1532.4 L1116.67 1532.4 L1103.3 1568.04 L1095.35 1568.04 L1081.98 1532.4 Z" fill="#000000" fill-rule="evenodd" fill-opacity="1" /><path clip-path="url(#clip210)" d="M1155.25 1548.76 L1155.25 1551.62 L1128.32 1551.62 Q1128.7 1557.67 1131.95 1560.85 Q1135.23 1564 1141.05 1564 Q1144.43 1564 1147.58 1563.17 Q1150.76 1562.35 1153.88 1560.69 L1153.88 1566.23 Q1150.73 1567.57 1147.42 1568.27 Q1144.11 1568.97 1140.7 1568.97 Q1132.17 1568.97 1127.17 1564 Q1122.21 1559.04 1122.21 1550.57 Q1122.21 1541.82 1126.92 1536.69 Q1131.66 1531.54 1139.68 1531.54 Q1146.88 1531.54 1151.05 1536.18 Q1155.25 1540.8 1155.25 1548.76 M1149.39 1547.04 Q1149.33 1542.23 1146.69 1539.37 Q1144.08 1536.5 1139.75 1536.5 Q1134.84 1536.5 1131.88 1539.27 Q1128.96 1542.04 1128.51 1547.07 L1149.39 1547.04 Z" fill="#000000" fill-rule="evenodd" fill-opacity="1" /><path clip-path="url(#clip210)" d="M1164.86 1518.52 L1170.72 1518.52 L1170.72 1568.04 L1164.86 1568.04 L1164.86 1518.52 Z" fill="#000000" fill-rule="evenodd" fill-opacity="1" /><path clip-path="url(#clip210)" d="M1196.78 1536.5 Q1192.07 1536.5 1189.34 1540.19 Q1186.6 1543.85 1186.6 1550.25 Q1186.6 1556.65 1189.3 1560.34 Q1192.04 1564 1196.78 1564 Q1201.46 1564 1204.2 1560.31 Q1206.94 1556.62 1206.94 1550.25 Q1206.94 1543.92 1204.2 1540.23 Q1201.46 1536.5 1196.78 1536.5 M1196.78 1531.54 Q1204.42 1531.54 1208.78 1536.5 Q1213.14 1541.47 1213.14 1550.25 Q1213.14 1559 1208.78 1564 Q1204.42 1568.97 1196.78 1568.97 Q1189.11 1568.97 1184.75 1564 Q1180.42 1559 1180.42 1550.25 Q1180.42 1541.47 1184.75 1536.5 Q1189.11 1531.54 1196.78 1531.54 Z" fill="#000000" fill-rule="evenodd" fill-opacity="1" /><path clip-path="url(#clip210)" d="M1248.5 1533.76 L1248.5 1539.24 Q1246.02 1537.87 1243.51 1537.2 Q1241.02 1536.5 1238.48 1536.5 Q1232.78 1536.5 1229.63 1540.13 Q1226.48 1543.73 1226.48 1550.25 Q1226.48 1556.78 1229.63 1560.4 Q1232.78 1564 1238.48 1564 Q1241.02 1564 1243.51 1563.33 Q1246.02 1562.63 1248.5 1561.26 L1248.5 1566.68 Q1246.05 1567.82 1243.41 1568.39 Q1240.8 1568.97 1237.84 1568.97 Q1229.79 1568.97 1225.05 1563.91 Q1220.3 1558.85 1220.3 1550.25 Q1220.3 1541.53 1225.08 1536.53 Q1229.88 1531.54 1238.22 1531.54 Q1240.93 1531.54 1243.51 1532.11 Q1246.09 1532.65 1248.5 1533.76 Z" fill="#000000" fill-rule="evenodd" fill-opacity="1" /><path clip-path="url(#clip210)" d="M1258.69 1532.4 L1264.55 1532.4 L1264.55 1568.04 L1258.69 1568.04 L1258.69 1532.4 M1258.69 1518.52 L1264.55 1518.52 L1264.55 1525.93 L1258.69 1525.93 L1258.69 1518.52 Z" fill="#000000" fill-rule="evenodd" fill-opacity="1" /><path clip-path="url(#clip210)" d="M1282.59 1522.27 L1282.59 1532.4 L1294.66 1532.4 L1294.66 1536.95 L1282.59 1536.95 L1282.59 1556.3 Q1282.59 1560.66 1283.77 1561.9 Q1284.98 1563.14 1288.64 1563.14 L1294.66 1563.14 L1294.66 1568.04 L1288.64 1568.04 Q1281.86 1568.04 1279.28 1565.53 Q1276.7 1562.98 1276.7 1556.3 L1276.7 1536.95 L1272.41 1536.95 L1272.41 1532.4 L1276.7 1532.4 L1276.7 1522.27 L1282.59 1522.27 Z" fill="#000000" fill-rule="evenodd" fill-opacity="1" /><path clip-path="url(#clip210)" d="M1317.19 1571.35 Q1314.71 1577.72 1312.35 1579.66 Q1310 1581.6 1306.05 1581.6 L1301.37 1581.6 L1301.37 1576.7 L1304.81 1576.7 Q1307.23 1576.7 1308.57 1575.56 Q1309.9 1574.41 1311.53 1570.14 L1312.58 1567.47 L1298.16 1532.4 L1304.36 1532.4 L1315.5 1560.28 L1326.64 1532.4 L1332.85 1532.4 L1317.19 1571.35 Z" fill="#000000" fill-rule="evenodd" fill-opacity="1" /><path clip-path="url(#clip210)" d="M1391.29 1546.53 L1391.29 1568.04 L1385.43 1568.04 L1385.43 1546.72 Q1385.43 1541.66 1383.46 1539.14 Q1381.48 1536.63 1377.54 1536.63 Q1372.79 1536.63 1370.06 1539.65 Q1367.32 1542.68 1367.32 1547.9 L1367.32 1568.04 L1361.43 1568.04 L1361.43 1532.4 L1367.32 1532.4 L1367.32 1537.93 Q1369.42 1534.72 1372.25 1533.13 Q1375.12 1531.54 1378.84 1531.54 Q1384.99 1531.54 1388.14 1535.36 Q1391.29 1539.14 1391.29 1546.53 Z" fill="#000000" fill-rule="evenodd" fill-opacity="1" /><path clip-path="url(#clip210)" d="M1416.78 1536.5 Q1412.07 1536.5 1409.33 1540.19 Q1406.6 1543.85 1406.6 1550.25 Q1406.6 1556.65 1409.3 1560.34 Q1412.04 1564 1416.78 1564 Q1421.46 1564 1424.2 1560.31 Q1426.94 1556.62 1426.94 1550.25 Q1426.94 1543.92 1424.2 1540.23 Q1421.46 1536.5 1416.78 1536.5 M1416.78 1531.54 Q1424.42 1531.54 1428.78 1536.5 Q1433.14 1541.47 1433.14 1550.25 Q1433.14 1559 1428.78 1564 Q1424.42 1568.97 1416.78 1568.97 Q1409.11 1568.97 1404.75 1564 Q1400.42 1559 1400.42 1550.25 Q1400.42 1541.47 1404.75 1536.5 Q1409.11 1531.54 1416.78 1531.54 Z" fill="#000000" fill-rule="evenodd" fill-opacity="1" /><path clip-path="url(#clip210)" d="M1463.51 1537.87 Q1462.52 1537.3 1461.34 1537.04 Q1460.2 1536.76 1458.8 1536.76 Q1453.83 1536.76 1451.16 1540 Q1448.52 1543.22 1448.52 1549.27 L1448.52 1568.04 L1442.63 1568.04 L1442.63 1532.4 L1448.52 1532.4 L1448.52 1537.93 Q1450.36 1534.69 1453.32 1533.13 Q1456.28 1531.54 1460.51 1531.54 Q1461.12 1531.54 1461.85 1531.63 Q1462.58 1531.7 1463.47 1531.85 L1463.51 1537.87 Z" fill="#000000" fill-rule="evenodd" fill-opacity="1" /><path clip-path="url(#clip210)" d="M1496.26 1539.24 Q1498.45 1535.29 1501.51 1533.41 Q1504.57 1531.54 1508.7 1531.54 Q1514.27 1531.54 1517.3 1535.45 Q1520.32 1539.33 1520.32 1546.53 L1520.32 1568.04 L1514.43 1568.04 L1514.43 1546.72 Q1514.43 1541.59 1512.62 1539.11 Q1510.8 1536.63 1507.08 1536.63 Q1502.53 1536.63 1499.89 1539.65 Q1497.24 1542.68 1497.24 1547.9 L1497.24 1568.04 L1491.36 1568.04 L1491.36 1546.72 Q1491.36 1541.56 1489.54 1539.11 Q1487.73 1536.63 1483.94 1536.63 Q1479.45 1536.63 1476.81 1539.68 Q1474.17 1542.71 1474.17 1547.9 L1474.17 1568.04 L1468.28 1568.04 L1468.28 1532.4 L1474.17 1532.4 L1474.17 1537.93 Q1476.17 1534.66 1478.97 1533.1 Q1481.78 1531.54 1485.63 1531.54 Q1489.51 1531.54 1492.22 1533.51 Q1494.95 1535.48 1496.26 1539.24 Z" fill="#000000" fill-rule="evenodd" fill-opacity="1" /><polyline clip-path="url(#clip212)" style="stroke:#000000; stroke-linecap:butt; stroke-linejoin:round; stroke-width:2; stroke-opacity:0.1; fill:none" points="
  249.542,1384.24 2352.76,1384.24 
  "/>
<polyline clip-path="url(#clip212)" style="stroke:#000000; stroke-linecap:butt; stroke-linejoin:round; stroke-width:2; stroke-opacity:0.1; fill:none" points="
  249.542,956.286 2352.76,956.286 
  "/>
<polyline clip-path="url(#clip212)" style="stroke:#000000; stroke-linecap:butt; stroke-linejoin:round; stroke-width:2; stroke-opacity:0.1; fill:none" points="
  249.542,528.335 2352.76,528.335 
  "/>
<polyline clip-path="url(#clip212)" style="stroke:#000000; stroke-linecap:butt; stroke-linejoin:round; stroke-width:2; stroke-opacity:0.1; fill:none" points="
  249.542,100.383 2352.76,100.383 
  "/>
<polyline clip-path="url(#clip210)" style="stroke:#000000; stroke-linecap:butt; stroke-linejoin:round; stroke-width:4; stroke-opacity:1; fill:none" points="
  249.542,1423.18 249.542,47.2441 
  "/>
<polyline clip-path="url(#clip210)" style="stroke:#000000; stroke-linecap:butt; stroke-linejoin:round; stroke-width:4; stroke-opacity:1; fill:none" points="
  249.542,1384.24 274.781,1384.24 
  "/>
<polyline clip-path="url(#clip210)" style="stroke:#000000; stroke-linecap:butt; stroke-linejoin:round; stroke-width:4; stroke-opacity:1; fill:none" points="
  249.542,956.286 274.781,956.286 
  "/>
<polyline clip-path="url(#clip210)" style="stroke:#000000; stroke-linecap:butt; stroke-linejoin:round; stroke-width:4; stroke-opacity:1; fill:none" points="
  249.542,528.335 274.781,528.335 
  "/>
<polyline clip-path="url(#clip210)" style="stroke:#000000; stroke-linecap:butt; stroke-linejoin:round; stroke-width:4; stroke-opacity:1; fill:none" points="
  249.542,100.383 274.781,100.383 
  "/>
<path clip-path="url(#clip210)" d="M126.205 1370.04 Q122.593 1370.04 120.765 1373.6 Q118.959 1377.14 118.959 1384.27 Q118.959 1391.38 120.765 1394.94 Q122.593 1398.49 126.205 1398.49 Q129.839 1398.49 131.644 1394.94 Q133.473 1391.38 133.473 1384.27 Q133.473 1377.14 131.644 1373.6 Q129.839 1370.04 126.205 1370.04 M126.205 1366.33 Q132.015 1366.33 135.07 1370.94 Q138.149 1375.52 138.149 1384.27 Q138.149 1393 135.07 1397.61 Q132.015 1402.19 126.205 1402.19 Q120.394 1402.19 117.316 1397.61 Q114.26 1393 114.26 1384.27 Q114.26 1375.52 117.316 1370.94 Q120.394 1366.33 126.205 1366.33 Z" fill="#000000" fill-rule="evenodd" fill-opacity="1" /><path clip-path="url(#clip210)" d="M146.366 1395.64 L151.251 1395.64 L151.251 1401.52 L146.366 1401.52 L146.366 1395.64 Z" fill="#000000" fill-rule="evenodd" fill-opacity="1" /><path clip-path="url(#clip210)" d="M171.436 1370.04 Q167.825 1370.04 165.996 1373.6 Q164.19 1377.14 164.19 1384.27 Q164.19 1391.38 165.996 1394.94 Q167.825 1398.49 171.436 1398.49 Q175.07 1398.49 176.876 1394.94 Q178.704 1391.38 178.704 1384.27 Q178.704 1377.14 176.876 1373.6 Q175.07 1370.04 171.436 1370.04 M171.436 1366.33 Q177.246 1366.33 180.301 1370.94 Q183.38 1375.52 183.38 1384.27 Q183.38 1393 180.301 1397.61 Q177.246 1402.19 171.436 1402.19 Q165.626 1402.19 162.547 1397.61 Q159.491 1393 159.491 1384.27 Q159.491 1375.52 162.547 1370.94 Q165.626 1366.33 171.436 1366.33 Z" fill="#000000" fill-rule="evenodd" fill-opacity="1" /><path clip-path="url(#clip210)" d="M201.598 1370.04 Q197.987 1370.04 196.158 1373.6 Q194.352 1377.14 194.352 1384.27 Q194.352 1391.38 196.158 1394.94 Q197.987 1398.49 201.598 1398.49 Q205.232 1398.49 207.037 1394.94 Q208.866 1391.38 208.866 1384.27 Q208.866 1377.14 207.037 1373.6 Q205.232 1370.04 201.598 1370.04 M201.598 1366.33 Q207.408 1366.33 210.463 1370.94 Q213.542 1375.52 213.542 1384.27 Q213.542 1393 210.463 1397.61 Q207.408 1402.19 201.598 1402.19 Q195.787 1402.19 192.709 1397.61 Q189.653 1393 189.653 1384.27 Q189.653 1375.52 192.709 1370.94 Q195.787 1366.33 201.598 1366.33 Z" fill="#000000" fill-rule="evenodd" fill-opacity="1" /><path clip-path="url(#clip210)" d="M127.431 942.085 Q123.82 942.085 121.992 945.65 Q120.186 949.192 120.186 956.321 Q120.186 963.428 121.992 966.992 Q123.82 970.534 127.431 970.534 Q131.066 970.534 132.871 966.992 Q134.7 963.428 134.7 956.321 Q134.7 949.192 132.871 945.65 Q131.066 942.085 127.431 942.085 M127.431 938.381 Q133.242 938.381 136.297 942.988 Q139.376 947.571 139.376 956.321 Q139.376 965.048 136.297 969.654 Q133.242 974.238 127.431 974.238 Q121.621 974.238 118.543 969.654 Q115.487 965.048 115.487 956.321 Q115.487 947.571 118.543 942.988 Q121.621 938.381 127.431 938.381 Z" fill="#000000" fill-rule="evenodd" fill-opacity="1" /><path clip-path="url(#clip210)" d="M147.593 967.687 L152.478 967.687 L152.478 973.566 L147.593 973.566 L147.593 967.687 Z" fill="#000000" fill-rule="evenodd" fill-opacity="1" /><path clip-path="url(#clip210)" d="M172.663 942.085 Q169.052 942.085 167.223 945.65 Q165.417 949.192 165.417 956.321 Q165.417 963.428 167.223 966.992 Q169.052 970.534 172.663 970.534 Q176.297 970.534 178.102 966.992 Q179.931 963.428 179.931 956.321 Q179.931 949.192 178.102 945.65 Q176.297 942.085 172.663 942.085 M172.663 938.381 Q178.473 938.381 181.528 942.988 Q184.607 947.571 184.607 956.321 Q184.607 965.048 181.528 969.654 Q178.473 974.238 172.663 974.238 Q166.852 974.238 163.774 969.654 Q160.718 965.048 160.718 956.321 Q160.718 947.571 163.774 942.988 Q166.852 938.381 172.663 938.381 Z" fill="#000000" fill-rule="evenodd" fill-opacity="1" /><path clip-path="url(#clip210)" d="M193.635 969.631 L201.274 969.631 L201.274 943.266 L192.963 944.932 L192.963 940.673 L201.227 939.006 L205.903 939.006 L205.903 969.631 L213.542 969.631 L213.542 973.566 L193.635 973.566 L193.635 969.631 Z" fill="#000000" fill-rule="evenodd" fill-opacity="1" /><path clip-path="url(#clip210)" d="M127.802 514.133 Q124.191 514.133 122.362 517.698 Q120.556 521.24 120.556 528.369 Q120.556 535.476 122.362 539.041 Q124.191 542.582 127.802 542.582 Q131.436 542.582 133.242 539.041 Q135.07 535.476 135.07 528.369 Q135.07 521.24 133.242 517.698 Q131.436 514.133 127.802 514.133 M127.802 510.43 Q133.612 510.43 136.667 515.036 Q139.746 519.619 139.746 528.369 Q139.746 537.096 136.667 541.703 Q133.612 546.286 127.802 546.286 Q121.992 546.286 118.913 541.703 Q115.857 537.096 115.857 528.369 Q115.857 519.619 118.913 515.036 Q121.992 510.43 127.802 510.43 Z" fill="#000000" fill-rule="evenodd" fill-opacity="1" /><path clip-path="url(#clip210)" d="M147.964 539.735 L152.848 539.735 L152.848 545.615 L147.964 545.615 L147.964 539.735 Z" fill="#000000" fill-rule="evenodd" fill-opacity="1" /><path clip-path="url(#clip210)" d="M173.033 514.133 Q169.422 514.133 167.593 517.698 Q165.788 521.24 165.788 528.369 Q165.788 535.476 167.593 539.041 Q169.422 542.582 173.033 542.582 Q176.667 542.582 178.473 539.041 Q180.301 535.476 180.301 528.369 Q180.301 521.24 178.473 517.698 Q176.667 514.133 173.033 514.133 M173.033 510.43 Q178.843 510.43 181.899 515.036 Q184.977 519.619 184.977 528.369 Q184.977 537.096 181.899 541.703 Q178.843 546.286 173.033 546.286 Q167.223 546.286 164.144 541.703 Q161.089 537.096 161.089 528.369 Q161.089 519.619 164.144 515.036 Q167.223 510.43 173.033 510.43 Z" fill="#000000" fill-rule="evenodd" fill-opacity="1" /><path clip-path="url(#clip210)" d="M197.223 541.68 L213.542 541.68 L213.542 545.615 L191.598 545.615 L191.598 541.68 Q194.26 538.925 198.843 534.295 Q203.449 529.643 204.63 528.3 Q206.875 525.777 207.755 524.041 Q208.658 522.282 208.658 520.592 Q208.658 517.837 206.713 516.101 Q204.792 514.365 201.69 514.365 Q199.491 514.365 197.037 515.129 Q194.607 515.893 191.829 517.444 L191.829 512.721 Q194.653 511.587 197.107 511.008 Q199.561 510.43 201.598 510.43 Q206.968 510.43 210.162 513.115 Q213.357 515.8 213.357 520.291 Q213.357 522.42 212.547 524.342 Q211.76 526.24 209.653 528.832 Q209.074 529.504 205.973 532.721 Q202.871 535.916 197.223 541.68 Z" fill="#000000" fill-rule="evenodd" fill-opacity="1" /><path clip-path="url(#clip210)" d="M126.853 86.1816 Q123.242 86.1816 121.413 89.7464 Q119.607 93.2881 119.607 100.418 Q119.607 107.524 121.413 111.089 Q123.242 114.631 126.853 114.631 Q130.487 114.631 132.292 111.089 Q134.121 107.524 134.121 100.418 Q134.121 93.2881 132.292 89.7464 Q130.487 86.1816 126.853 86.1816 M126.853 82.4779 Q132.663 82.4779 135.718 87.0844 Q138.797 91.6677 138.797 100.418 Q138.797 109.144 135.718 113.751 Q132.663 118.334 126.853 118.334 Q121.043 118.334 117.964 113.751 Q114.908 109.144 114.908 100.418 Q114.908 91.6677 117.964 87.0844 Q121.043 82.4779 126.853 82.4779 Z" fill="#000000" fill-rule="evenodd" fill-opacity="1" /><path clip-path="url(#clip210)" d="M147.015 111.783 L151.899 111.783 L151.899 117.663 L147.015 117.663 L147.015 111.783 Z" fill="#000000" fill-rule="evenodd" fill-opacity="1" /><path clip-path="url(#clip210)" d="M172.084 86.1816 Q168.473 86.1816 166.644 89.7464 Q164.839 93.2881 164.839 100.418 Q164.839 107.524 166.644 111.089 Q168.473 114.631 172.084 114.631 Q175.718 114.631 177.524 111.089 Q179.352 107.524 179.352 100.418 Q179.352 93.2881 177.524 89.7464 Q175.718 86.1816 172.084 86.1816 M172.084 82.4779 Q177.894 82.4779 180.95 87.0844 Q184.028 91.6677 184.028 100.418 Q184.028 109.144 180.95 113.751 Q177.894 118.334 172.084 118.334 Q166.274 118.334 163.195 113.751 Q160.14 109.144 160.14 100.418 Q160.14 91.6677 163.195 87.0844 Q166.274 82.4779 172.084 82.4779 Z" fill="#000000" fill-rule="evenodd" fill-opacity="1" /><path clip-path="url(#clip210)" d="M206.412 99.0288 Q209.769 99.7464 211.644 102.015 Q213.542 104.283 213.542 107.617 Q213.542 112.732 210.024 115.533 Q206.505 118.334 200.024 118.334 Q197.848 118.334 195.533 117.894 Q193.241 117.478 190.788 116.621 L190.788 112.107 Q192.732 113.242 195.047 113.82 Q197.362 114.399 199.885 114.399 Q204.283 114.399 206.574 112.663 Q208.889 110.927 208.889 107.617 Q208.889 104.561 206.737 102.848 Q204.607 101.112 200.787 101.112 L196.76 101.112 L196.76 97.2695 L200.973 97.2695 Q204.422 97.2695 206.25 95.9038 Q208.079 94.5149 208.079 91.9223 Q208.079 89.2603 206.181 87.8483 Q204.306 86.4131 200.787 86.4131 Q198.866 86.4131 196.667 86.8298 Q194.468 87.2464 191.829 88.1261 L191.829 83.9594 Q194.491 83.2187 196.806 82.8483 Q199.144 82.4779 201.204 82.4779 Q206.528 82.4779 209.63 84.9085 Q212.732 87.3159 212.732 91.4362 Q212.732 94.3066 211.088 96.2973 Q209.445 98.2649 206.412 99.0288 Z" fill="#000000" fill-rule="evenodd" fill-opacity="1" /><path clip-path="url(#clip210)" d="M14.479 874.271 L19.3487 874.271 L19.3487 879.873 Q19.3487 883.024 20.6219 884.265 Q21.895 885.474 25.2052 885.474 L28.3562 885.474 L28.3562 875.83 L32.9077 875.83 L32.9077 885.474 L64.0042 885.474 L64.0042 891.363 L32.9077 891.363 L32.9077 896.965 L28.3562 896.965 L28.3562 891.363 L25.8736 891.363 Q19.9216 891.363 17.2162 888.594 Q14.479 885.825 14.479 879.809 L14.479 874.271 Z" fill="#000000" fill-rule="evenodd" fill-opacity="1" /><path clip-path="url(#clip210)" d="M33.8307 848.713 Q33.2578 849.699 33.0032 850.877 Q32.7167 852.023 32.7167 853.423 Q32.7167 858.388 35.9632 861.062 Q39.1779 863.704 45.2253 863.704 L64.0042 863.704 L64.0042 869.592 L28.3562 869.592 L28.3562 863.704 L33.8944 863.704 Q30.6479 861.858 29.0883 858.898 Q27.4968 855.938 27.4968 851.704 Q27.4968 851.1 27.5923 850.368 Q27.656 849.636 27.8151 848.744 L33.8307 848.713 Z" fill="#000000" fill-rule="evenodd" fill-opacity="1" /><path clip-path="url(#clip210)" d="M44.7161 813.51 L47.5806 813.51 L47.5806 840.437 Q53.6281 840.055 56.8109 836.809 Q59.9619 833.53 59.9619 827.706 Q59.9619 824.332 59.1344 821.181 Q58.3069 817.998 56.6518 814.879 L62.1899 814.879 Q63.5267 818.03 64.227 821.34 Q64.9272 824.65 64.9272 828.056 Q64.9272 836.586 59.9619 841.583 Q54.9967 846.548 46.5303 846.548 Q37.7774 846.548 32.6531 841.838 Q27.4968 837.095 27.4968 829.074 Q27.4968 821.881 32.1438 817.712 Q36.7589 813.51 44.7161 813.51 M42.9973 819.367 Q38.1912 819.43 35.3266 822.072 Q32.4621 824.682 32.4621 829.011 Q32.4621 833.912 35.2312 836.872 Q38.0002 839.801 43.0292 840.246 L42.9973 819.367 Z" fill="#000000" fill-rule="evenodd" fill-opacity="1" /><path clip-path="url(#clip210)" d="M46.212 800.397 Q52.6732 800.397 56.3653 797.755 Q60.0256 795.081 60.0256 790.434 Q60.0256 785.788 56.3653 783.114 Q52.6732 780.44 46.212 780.44 Q39.7508 780.44 36.0905 783.114 Q32.3984 785.788 32.3984 790.434 Q32.3984 795.081 36.0905 797.755 Q39.7508 800.397 46.212 800.397 M58.657 780.44 Q61.8398 782.286 63.3994 785.119 Q64.9272 787.92 64.9272 791.867 Q64.9272 798.328 59.771 802.402 Q54.6147 806.444 46.212 806.444 Q37.8093 806.444 32.6531 802.402 Q27.4968 798.328 27.4968 791.867 Q27.4968 787.92 29.0564 785.119 Q30.5842 782.286 33.7671 780.44 L28.3562 780.44 L28.3562 774.584 L77.5631 774.584 L77.5631 780.44 L58.657 780.44 Z" fill="#000000" fill-rule="evenodd" fill-opacity="1" /><path clip-path="url(#clip210)" d="M49.9359 763.126 L28.3562 763.126 L28.3562 757.269 L49.7131 757.269 Q54.7739 757.269 57.3202 755.296 Q59.8346 753.322 59.8346 749.376 Q59.8346 744.633 56.8109 741.896 Q53.7872 739.127 48.5673 739.127 L28.3562 739.127 L28.3562 733.27 L64.0042 733.27 L64.0042 739.127 L58.5296 739.127 Q61.7762 741.259 63.3676 744.092 Q64.9272 746.893 64.9272 750.617 Q64.9272 756.76 61.1078 759.943 Q57.2883 763.126 49.9359 763.126 M27.4968 748.389 L27.4968 748.389 Z" fill="#000000" fill-rule="evenodd" fill-opacity="1" /><path clip-path="url(#clip210)" d="M44.7161 690.716 L47.5806 690.716 L47.5806 717.643 Q53.6281 717.261 56.8109 714.014 Q59.9619 710.736 59.9619 704.911 Q59.9619 701.537 59.1344 698.386 Q58.3069 695.204 56.6518 692.084 L62.1899 692.084 Q63.5267 695.235 64.227 698.545 Q64.9272 701.856 64.9272 705.261 Q64.9272 713.791 59.9619 718.788 Q54.9967 723.754 46.5303 723.754 Q37.7774 723.754 32.6531 719.043 Q27.4968 714.301 27.4968 706.28 Q27.4968 699.087 32.1438 694.917 Q36.7589 690.716 44.7161 690.716 M42.9973 696.572 Q38.1912 696.636 35.3266 699.278 Q32.4621 701.887 32.4621 706.216 Q32.4621 711.118 35.2312 714.078 Q38.0002 717.006 43.0292 717.452 L42.9973 696.572 Z" fill="#000000" fill-rule="evenodd" fill-opacity="1" /><path clip-path="url(#clip210)" d="M42.4881 651.471 L64.0042 651.471 L64.0042 657.328 L42.679 657.328 Q37.6183 657.328 35.1038 659.301 Q32.5894 661.274 32.5894 665.221 Q32.5894 669.963 35.6131 672.701 Q38.6368 675.438 43.8567 675.438 L64.0042 675.438 L64.0042 681.326 L28.3562 681.326 L28.3562 675.438 L33.8944 675.438 Q30.6797 673.337 29.0883 670.505 Q27.4968 667.64 27.4968 663.916 Q27.4968 657.773 31.3163 654.622 Q35.1038 651.471 42.4881 651.471 Z" fill="#000000" fill-rule="evenodd" fill-opacity="1" /><path clip-path="url(#clip210)" d="M29.7248 614.136 L35.1993 614.136 Q33.8307 616.619 33.1623 619.133 Q32.4621 621.616 32.4621 624.162 Q32.4621 629.86 36.0905 633.011 Q39.6872 636.162 46.212 636.162 Q52.7369 636.162 56.3653 633.011 Q59.9619 629.86 59.9619 624.162 Q59.9619 621.616 59.2935 619.133 Q58.5933 616.619 57.2247 614.136 L62.6355 614.136 Q63.7814 616.587 64.3543 619.229 Q64.9272 621.839 64.9272 624.799 Q64.9272 632.851 59.8664 637.594 Q54.8057 642.336 46.212 642.336 Q37.491 642.336 32.4939 637.562 Q27.4968 632.756 27.4968 624.417 Q27.4968 621.711 28.0697 619.133 Q28.6108 616.555 29.7248 614.136 Z" fill="#000000" fill-rule="evenodd" fill-opacity="1" /><path clip-path="url(#clip210)" d="M67.3143 589.119 Q73.68 591.602 75.6216 593.957 Q77.5631 596.312 77.5631 600.259 L77.5631 604.938 L72.6615 604.938 L72.6615 601.5 Q72.6615 599.081 71.5157 597.745 Q70.3699 596.408 66.1048 594.784 L63.4312 593.734 L28.3562 608.152 L28.3562 601.946 L56.238 590.806 L28.3562 579.666 L28.3562 573.459 L67.3143 589.119 Z" fill="#000000" fill-rule="evenodd" fill-opacity="1" /><polyline clip-path="url(#clip212)" style="stroke:#009af9; stroke-linecap:butt; stroke-linejoin:round; stroke-width:8; stroke-opacity:1; fill:none" points="
  309.067,1378.25 329.109,1370.42 349.151,1348.59 369.193,1319.62 389.235,1279.44 409.277,1231.86 429.319,1180.85 449.361,1120.56 469.403,1056.5 489.446,993.942 
  509.488,917.903 529.53,845.586 549.572,760.176 569.614,678.531 589.656,605.529 609.698,525.938 629.74,466.716 649.782,390.12 669.824,330.341 689.866,280.618 
  709.908,235.945 729.95,198.289 749.992,167.779 770.034,140.35 790.076,125.544 810.118,126.742 830.161,102.779 850.203,106.802 870.245,125.672 890.287,112.407 
  910.329,137.397 930.371,165.553 950.413,185.408 970.455,224.519 990.497,251.777 1010.54,302.912 1030.58,336.631 1050.62,387.339 1070.67,437.404 1090.71,484.303 
  1110.75,536.337 1130.79,577.929 1150.83,635.312 1170.88,679.344 1190.92,737.497 1210.96,791.028 1231,833.091 1251.04,865.313 1271.09,916.149 1291.13,957.699 
  1311.17,991.675 1331.21,1025.05 1351.25,1061.42 1371.3,1094.97 1391.34,1129.72 1411.38,1146.02 1431.42,1172.47 1451.46,1195.44 1471.51,1214.91 1491.55,1238.49 
  1511.59,1248.42 1531.63,1270.33 1551.67,1278.72 1571.72,1292.67 1591.76,1301.99 1611.8,1317.53 1631.84,1325.19 1651.89,1335.37 1671.93,1337.77 1691.97,1344.19 
  1712.01,1350.99 1732.05,1355.05 1752.1,1359.21 1772.14,1363.14 1792.18,1369.05 1812.22,1373.2 1832.26,1372.47 1852.31,1375.64 1872.35,1377.43 1892.39,1378.38 
  1912.43,1380.43 1932.47,1380.6 1952.52,1381.11 1972.56,1382.06 1992.6,1382.83 2012.64,1382.74 2032.68,1383.64 2052.73,1383.17 2072.77,1383.68 2092.81,1383.51 
  2112.85,1383.77 2132.89,1383.81 2152.94,1384.11 2172.98,1384.15 2193.02,1384.2 2213.06,1384.24 2233.1,1384.24 2253.15,1384.24 2273.19,1384.24 2293.23,1384.24 
  
  "/>
<polyline clip-path="url(#clip212)" style="stroke:#e26f46; stroke-linecap:butt; stroke-linejoin:round; stroke-width:8; stroke-opacity:1; fill:none" points="
  309.067,1383.04 329.109,1373.49 349.151,1354.54 369.193,1326.5 389.235,1289.83 409.277,1245.11 429.319,1193.06 449.361,1134.51 469.403,1070.36 489.446,1001.63 
  509.488,929.363 529.53,854.65 549.572,778.602 569.614,702.324 589.656,626.901 609.698,553.377 629.74,482.739 649.782,415.9 669.824,353.69 689.866,296.839 
  709.908,245.974 729.95,201.609 749.992,164.142 770.034,133.856 790.076,110.917 810.118,95.3781 830.161,87.1859 850.203,86.1857 870.245,92.1311 890.287,104.693 
  910.329,123.472 930.371,148.005 950.413,177.784 970.455,212.26 990.497,250.86 1010.54,292.997 1030.58,338.079 1050.62,385.518 1070.67,434.744 1090.71,485.205 
  1110.75,536.381 1130.79,587.784 1150.83,638.965 1170.88,689.518 1190.92,739.081 1210.96,787.335 1231,834.01 1251.04,878.878 1271.09,921.756 1291.13,962.503 
  1311.17,1001.02 1331.21,1037.23 1351.25,1071.11 1371.3,1102.65 1391.34,1131.88 1411.38,1158.83 1431.42,1183.59 1451.46,1206.22 1471.51,1226.82 1491.55,1245.5 
  1511.59,1262.36 1531.63,1277.52 1551.67,1291.1 1571.72,1303.21 1591.76,1313.98 1611.8,1323.5 1631.84,1331.91 1651.89,1339.29 1671.93,1345.75 1691.97,1351.39 
  1712.01,1356.29 1732.05,1360.53 1752.1,1364.19 1772.14,1367.34 1792.18,1370.04 1812.22,1372.34 1832.26,1374.3 1852.31,1375.96 1872.35,1377.37 1892.39,1378.55 
  1912.43,1379.55 1932.47,1380.38 1952.52,1381.07 1972.56,1381.65 1992.6,1382.13 2012.64,1382.52 2032.68,1382.85 2052.73,1383.12 2072.77,1383.33 2092.81,1383.51 
  2112.85,1383.66 2132.89,1383.77 2152.94,1383.87 2172.98,1383.94 2193.02,1384.01 2213.06,1384.05 2233.1,1384.09 2253.15,1384.13 2273.19,1384.15 2293.23,1384.17 
  
  "/>
<path clip-path="url(#clip210)" d="
M1803.59 274.549 L2282.65 274.549 L2282.65 93.1086 L1803.59 93.1086  Z
  " fill="#ffffff" fill-rule="evenodd" fill-opacity="1"/>
<polyline clip-path="url(#clip210)" style="stroke:#000000; stroke-linecap:butt; stroke-linejoin:round; stroke-width:4; stroke-opacity:1; fill:none" points="
  1803.59,274.549 2282.65,274.549 2282.65,93.1086 1803.59,93.1086 1803.59,274.549 
  "/>
<polyline clip-path="url(#clip210)" style="stroke:#009af9; stroke-linecap:butt; stroke-linejoin:round; stroke-width:4; stroke-opacity:1; fill:none" points="
  1826.96,153.589 1967.17,153.589 
  "/>
<path clip-path="url(#clip210)" d="M2012.79 137.443 L2012.79 142.003 Q2010.12 140.73 2007.76 140.105 Q2005.4 139.48 2003.2 139.48 Q1999.38 139.48 1997.3 140.961 Q1995.24 142.443 1995.24 145.174 Q1995.24 147.466 1996.61 148.647 Q1998 149.804 2001.84 150.522 L2004.66 151.1 Q2009.89 152.096 2012.37 154.619 Q2014.87 157.119 2014.87 161.332 Q2014.87 166.355 2011.49 168.947 Q2008.13 171.54 2001.63 171.54 Q1999.18 171.54 1996.4 170.984 Q1993.64 170.429 1990.68 169.341 L1990.68 164.526 Q1993.53 166.123 1996.26 166.933 Q1998.99 167.744 2001.63 167.744 Q2005.63 167.744 2007.81 166.17 Q2009.99 164.596 2009.99 161.679 Q2009.99 159.133 2008.41 157.697 Q2006.86 156.262 2003.3 155.545 L2000.45 154.989 Q1995.22 153.947 1992.88 151.725 Q1990.54 149.503 1990.54 145.545 Q1990.54 140.961 1993.76 138.322 Q1997 135.684 2002.67 135.684 Q2005.1 135.684 2007.62 136.123 Q2010.15 136.563 2012.79 137.443 Z" fill="#000000" fill-rule="evenodd" fill-opacity="1" /><path clip-path="url(#clip210)" d="M2021.98 144.943 L2026.24 144.943 L2026.24 170.869 L2021.98 170.869 L2021.98 144.943 M2021.98 134.85 L2026.24 134.85 L2026.24 140.244 L2021.98 140.244 L2021.98 134.85 Z" fill="#000000" fill-rule="evenodd" fill-opacity="1" /><path clip-path="url(#clip210)" d="M2055.33 149.92 Q2056.93 147.049 2059.15 145.684 Q2061.37 144.318 2064.38 144.318 Q2068.43 144.318 2070.63 147.165 Q2072.83 149.989 2072.83 155.221 L2072.83 170.869 L2068.55 170.869 L2068.55 155.359 Q2068.55 151.633 2067.23 149.827 Q2065.91 148.022 2063.2 148.022 Q2059.89 148.022 2057.97 150.221 Q2056.05 152.42 2056.05 156.216 L2056.05 170.869 L2051.77 170.869 L2051.77 155.359 Q2051.77 151.609 2050.45 149.827 Q2049.13 148.022 2046.37 148.022 Q2043.11 148.022 2041.19 150.244 Q2039.27 152.443 2039.27 156.216 L2039.27 170.869 L2034.99 170.869 L2034.99 144.943 L2039.27 144.943 L2039.27 148.971 Q2040.73 146.586 2042.76 145.452 Q2044.8 144.318 2047.6 144.318 Q2050.43 144.318 2052.39 145.753 Q2054.38 147.188 2055.33 149.92 Z" fill="#000000" fill-rule="evenodd" fill-opacity="1" /><path clip-path="url(#clip210)" d="M2080.89 160.637 L2080.89 144.943 L2085.15 144.943 L2085.15 160.475 Q2085.15 164.156 2086.58 166.008 Q2088.02 167.836 2090.89 167.836 Q2094.34 167.836 2096.33 165.637 Q2098.34 163.438 2098.34 159.642 L2098.34 144.943 L2102.6 144.943 L2102.6 170.869 L2098.34 170.869 L2098.34 166.887 Q2096.79 169.248 2094.73 170.406 Q2092.69 171.54 2089.99 171.54 Q2085.52 171.54 2083.2 168.762 Q2080.89 165.984 2080.89 160.637 M2091.61 144.318 L2091.61 144.318 Z" fill="#000000" fill-rule="evenodd" fill-opacity="1" /><path clip-path="url(#clip210)" d="M2111.37 134.85 L2115.63 134.85 L2115.63 170.869 L2111.37 170.869 L2111.37 134.85 Z" fill="#000000" fill-rule="evenodd" fill-opacity="1" /><path clip-path="url(#clip210)" d="M2136.33 157.836 Q2131.17 157.836 2129.18 159.017 Q2127.18 160.197 2127.18 163.045 Q2127.18 165.313 2128.67 166.656 Q2130.17 167.975 2132.74 167.975 Q2136.28 167.975 2138.41 165.475 Q2140.56 162.952 2140.56 158.785 L2140.56 157.836 L2136.33 157.836 M2144.82 156.077 L2144.82 170.869 L2140.56 170.869 L2140.56 166.933 Q2139.11 169.295 2136.93 170.429 Q2134.75 171.54 2131.61 171.54 Q2127.62 171.54 2125.26 169.318 Q2122.93 167.072 2122.93 163.322 Q2122.93 158.947 2125.84 156.725 Q2128.78 154.503 2134.59 154.503 L2140.56 154.503 L2140.56 154.086 Q2140.56 151.147 2138.62 149.549 Q2136.7 147.929 2133.2 147.929 Q2130.98 147.929 2128.87 148.461 Q2126.77 148.994 2124.82 150.059 L2124.82 146.123 Q2127.16 145.221 2129.36 144.781 Q2131.56 144.318 2133.64 144.318 Q2139.27 144.318 2142.05 147.234 Q2144.82 150.151 2144.82 156.077 Z" fill="#000000" fill-rule="evenodd" fill-opacity="1" /><path clip-path="url(#clip210)" d="M2157.81 137.582 L2157.81 144.943 L2166.58 144.943 L2166.58 148.253 L2157.81 148.253 L2157.81 162.327 Q2157.81 165.498 2158.67 166.401 Q2159.55 167.304 2162.21 167.304 L2166.58 167.304 L2166.58 170.869 L2162.21 170.869 Q2157.28 170.869 2155.4 169.04 Q2153.53 167.188 2153.53 162.327 L2153.53 148.253 L2150.4 148.253 L2150.4 144.943 L2153.53 144.943 L2153.53 137.582 L2157.81 137.582 Z" fill="#000000" fill-rule="evenodd" fill-opacity="1" /><path clip-path="url(#clip210)" d="M2172.18 144.943 L2176.44 144.943 L2176.44 170.869 L2172.18 170.869 L2172.18 144.943 M2172.18 134.85 L2176.44 134.85 L2176.44 140.244 L2172.18 140.244 L2172.18 134.85 Z" fill="#000000" fill-rule="evenodd" fill-opacity="1" /><path clip-path="url(#clip210)" d="M2195.4 147.929 Q2191.98 147.929 2189.99 150.614 Q2187.99 153.276 2187.99 157.929 Q2187.99 162.582 2189.96 165.267 Q2191.95 167.929 2195.4 167.929 Q2198.8 167.929 2200.8 165.244 Q2202.79 162.558 2202.79 157.929 Q2202.79 153.322 2200.8 150.637 Q2198.8 147.929 2195.4 147.929 M2195.4 144.318 Q2200.96 144.318 2204.13 147.929 Q2207.3 151.54 2207.3 157.929 Q2207.3 164.295 2204.13 167.929 Q2200.96 171.54 2195.4 171.54 Q2189.82 171.54 2186.65 167.929 Q2183.5 164.295 2183.5 157.929 Q2183.5 151.54 2186.65 147.929 Q2189.82 144.318 2195.4 144.318 Z" fill="#000000" fill-rule="evenodd" fill-opacity="1" /><path clip-path="url(#clip210)" d="M2235.91 155.221 L2235.91 170.869 L2231.65 170.869 L2231.65 155.359 Q2231.65 151.679 2230.22 149.85 Q2228.78 148.022 2225.91 148.022 Q2222.46 148.022 2220.47 150.221 Q2218.48 152.42 2218.48 156.216 L2218.48 170.869 L2214.2 170.869 L2214.2 144.943 L2218.48 144.943 L2218.48 148.971 Q2220.01 146.633 2222.07 145.475 Q2224.15 144.318 2226.86 144.318 Q2231.33 144.318 2233.62 147.096 Q2235.91 149.85 2235.91 155.221 Z" fill="#000000" fill-rule="evenodd" fill-opacity="1" /><polyline clip-path="url(#clip210)" style="stroke:#e26f46; stroke-linecap:butt; stroke-linejoin:round; stroke-width:4; stroke-opacity:1; fill:none" points="
  1826.96,214.069 1967.17,214.069 
  "/>
<path clip-path="url(#clip210)" d="M1990.54 196.789 L2010.4 196.789 L2010.4 200.724 L1995.22 200.724 L1995.22 210.909 L2008.92 210.909 L2008.92 214.844 L1995.22 214.844 L1995.22 231.349 L1990.54 231.349 L1990.54 196.789 Z" fill="#000000" fill-rule="evenodd" fill-opacity="1" /><path clip-path="url(#clip210)" d="M2014.18 205.423 L2018.44 205.423 L2018.44 231.349 L2014.18 231.349 L2014.18 205.423 M2014.18 195.33 L2018.44 195.33 L2018.44 200.724 L2014.18 200.724 L2014.18 195.33 Z" fill="#000000" fill-rule="evenodd" fill-opacity="1" /><path clip-path="url(#clip210)" d="M2031.56 198.062 L2031.56 205.423 L2040.33 205.423 L2040.33 208.733 L2031.56 208.733 L2031.56 222.807 Q2031.56 225.978 2032.42 226.881 Q2033.3 227.784 2035.96 227.784 L2040.33 227.784 L2040.33 231.349 L2035.96 231.349 Q2031.03 231.349 2029.15 229.52 Q2027.28 227.668 2027.28 222.807 L2027.28 208.733 L2024.15 208.733 L2024.15 205.423 L2027.28 205.423 L2027.28 198.062 L2031.56 198.062 Z" fill="#000000" fill-rule="evenodd" fill-opacity="1" /></svg>
